<svg id="icon-more" xmlns="http://www.w3.org/2000/svg" width="18.943" height="18.943" viewBox="0 0 18.943 18.943">
  <path id="Pfad_88" data-name="Pfad 88" d="M0,0H18.943V18.943H0Z" fill="none"/>
  <path id="Pfad_89" data-name="Pfad 89" d="M9.248,6.648a.786.786,0,0,0,0,1.113l3.062,3.062L9.248,13.886A.787.787,0,1,0,10.361,15l3.623-3.623a.786.786,0,0,0,0-1.113L10.361,6.64A.793.793,0,0,0,9.248,6.648Z" transform="translate(-5.736 -1.352)"/>
  <path id="Pfad_235" data-name="Pfad 235" d="M9.248,6.648a.786.786,0,0,0,0,1.113l3.062,3.062L9.248,13.886A.787.787,0,1,0,10.361,15l3.623-3.623a.786.786,0,0,0,0-1.113L10.361,6.64A.793.793,0,0,0,9.248,6.648Z" transform="translate(1.446 -1.352)"/>
</svg>
