<svg id="Icon-Close-groß" xmlns="http://www.w3.org/2000/svg" width="48" height="48" viewBox="0 0 48 48">
  <circle id="Ellipse_101" data-name="Ellipse 101" cx="24" cy="24" r="24" fill="#e1e6e6"/>
  <circle id="Ellipse_102" data-name="Ellipse 102" cx="21" cy="21" r="21" transform="translate(3 3)" fill="#fff"/>
  <g id="Icon_Close" transform="translate(10 10)">
    <path id="Pfad_33" data-name="Pfad 33" d="M0,0H29V29H0Z" fill="none"/>
    <path id="Pfad_34" data-name="Pfad 34" d="M23.189,5.825a1.374,1.374,0,0,0-1.945,0L14.5,12.555,7.756,5.811A1.375,1.375,0,0,0,5.811,7.756L12.555,14.5,5.811,21.244a1.375,1.375,0,0,0,1.945,1.945L14.5,16.445l6.744,6.744a1.375,1.375,0,0,0,1.945-1.945L16.445,14.5l6.744-6.744A1.382,1.382,0,0,0,23.189,5.825Z" transform="translate(0 0)"/>
  </g>
</svg>
