<svg id="icon-menu" xmlns="http://www.w3.org/2000/svg" width="48" height="48" viewBox="0 0 48 48">
  <circle id="Ellipse_101" data-name="Ellipse 101" cx="24" cy="24" r="24" fill="#e1e6e6"/>
  <circle id="Ellipse_102" data-name="Ellipse 102" cx="21" cy="21" r="21" transform="translate(3 3)" fill="#fff"/>
  <g id="Icon_Menue" transform="translate(10 10)">
    <path id="Pfad_43" data-name="Pfad 43" d="M0,0H28V28H0Z" fill="none"/>
    <path id="Pfad_44" data-name="Pfad 44" d="M4.222,21.132H23.778a1.262,1.262,0,0,0,0-2.522H4.222a1.262,1.262,0,0,0,0,2.522Zm0-6.3H23.778a1.262,1.262,0,0,0,0-2.522H4.222a1.262,1.262,0,0,0,0,2.522ZM3,7.261A1.246,1.246,0,0,0,4.222,8.522H23.778a1.262,1.262,0,0,0,0-2.522H4.222A1.246,1.246,0,0,0,3,7.261Z" transform="translate(0 0.434)"/>
  </g>
</svg>
