<?xml version="1.0" standalone="no"?>
<!DOCTYPE svg PUBLIC "-//W3C//DTD SVG 1.1//EN" "http://www.w3.org/Graphics/SVG/1.1/DTD/svg11.dtd" >
<svg xmlns="http://www.w3.org/2000/svg" xmlns:xlink="http://www.w3.org/1999/xlink" version="1.1">
<metadata>
Created by FontForge 20170731 at Wed Aug  9 14:26:27 2023
 By Aleksey,,,
Copyright (c) 2014 by Fontfabric LLC. All rights reserved.
</metadata>
<defs>
<font id="GloberBold" horiz-adv-x="1120" >
  <font-face 
    font-family="Glober Bold"
    font-weight="700"
    font-stretch="normal"
    units-per-em="2048"
    panose-1="0 0 0 0 0 0 0 0 0 0"
    ascent="1536"
    descent="-512"
    x-height="1077"
    cap-height="1475"
    bbox="-352 -631 2181 2160.31"
    underline-thickness="102"
    underline-position="-307"
    unicode-range="U+0020-FB02"
  />
<missing-glyph horiz-adv-x="1265" 
d="M1178 0h-1102v1475h1102v-1475zM954 997q0 80 -27.5 139.5t-77 93.5t-110 50t-133.5 16q-76 0 -142.5 -15t-95.5 -29l-28 -15q-9 -93 63 -147q7 4 20.5 10.5t58.5 17t93 10.5q78 0 122 -30t44 -109q0 -45 -12.5 -78t-33 -54.5t-45 -40.5t-49.5 -43.5t-45.5 -55.5
t-33 -83.5t-12.5 -121.5q31 -20 82 -20q24 0 43.5 5t26.5 10l8 5q0 47 15.5 82.5t40.5 59.5t55.5 45.5t61 46.5t55.5 56t40.5 81t15.5 114zM694 367q-36 14 -104 14q-32 0 -58 -3.5t-36 -7.5l-9 -3v-189q31 -12 103 -12q30 0 56 3t37 6l11 3v189z" />
    <glyph glyph-name="fi" unicode="fi" horiz-adv-x="1204" 
d="M205 1200q0 160 101.5 248t297.5 88q122 0 234 -17.5t164 -34.5l51 -18q-6 -104 -68 -178q-16 5 -46 12.5t-125 20t-193 12.5q-158 0 -158 -123v-133h475q37 0 69.5 -4t46.5 -8l13 -4v-1045q-45 -16 -129 -16q-40 0 -72 4t-44 8l-13 4v871h-346v-871q-45 -16 -129 -16
q-40 0 -72 4t-44 8l-13 4v871h-131q-13 41 -13 98q0 24 3.5 47t6.5 34l3 11h131v123z" />
    <glyph glyph-name="fl" unicode="fl" horiz-adv-x="1206" 
d="M205 1200q0 160 101.5 248t297.5 88q109 0 225 -17.5t177 -34.5l61 -18v-1450q-45 -16 -129 -16q-40 0 -72 4t-44 8l-13 4v1307q-92 10 -188 10q-158 0 -158 -123v-133h168q12 -46 12 -94q0 -47 -12 -96h-168v-871q-45 -16 -129 -16q-40 0 -72 4t-44 8l-13 4v871h-131
q-11 61 -11 96q0 54 11 94h131v123z" />
    <glyph glyph-name=".notdef" horiz-adv-x="1265" 
d="M1178 0h-1102v1475h1102v-1475zM954 997q0 80 -27.5 139.5t-77 93.5t-110 50t-133.5 16q-76 0 -142.5 -15t-95.5 -29l-28 -15q-9 -93 63 -147q7 4 20.5 10.5t58.5 17t93 10.5q78 0 122 -30t44 -109q0 -45 -12.5 -78t-33 -54.5t-45 -40.5t-49.5 -43.5t-45.5 -55.5
t-33 -83.5t-12.5 -121.5q31 -20 82 -20q24 0 43.5 5t26.5 10l8 5q0 47 15.5 82.5t40.5 59.5t55.5 45.5t61 46.5t55.5 56t40.5 81t15.5 114zM694 367q-36 14 -104 14q-32 0 -58 -3.5t-36 -7.5l-9 -3v-189q31 -12 103 -12q30 0 56 3t37 6l11 3v189z" />
    <glyph glyph-name=".null" horiz-adv-x="0" 
 />
    <glyph glyph-name="nonmarkingreturn" horiz-adv-x="682" 
 />
    <glyph glyph-name="space" unicode=" " horiz-adv-x="440" 
 />
    <glyph glyph-name="exclam" unicode="!" horiz-adv-x="581" 
d="M195 424l-43 1034q49 17 139 17q37 0 72 -4.5t51 -8.5l16 -4l-43 -1034q-35 -18 -94 -18q-26 0 -50.5 4.5t-36.5 9.5zM420 252v-236q-45 -16 -129 -16q-40 0 -72.5 4t-44.5 8l-12 4v236q39 16 129 16q37 0 69.5 -4t45.5 -8z" />
    <glyph glyph-name="quotedbl" unicode="&#x22;" horiz-adv-x="790" 
d="M143 1038l-43 420q37 17 127 17q37 0 69 -4.5t45 -8.5l13 -4l-43 -420q-29 -14 -84 -14q-24 0 -45 3.5t-30 6.5zM479 1038l-43 420q37 17 127 17q37 0 69 -4.5t45 -8.5l13 -4l-43 -420q-29 -14 -84 -14q-24 0 -45 3.5t-30 6.5z" />
    <glyph glyph-name="numbersign" unicode="#" horiz-adv-x="1370" 
d="M989 1257q55 19 113 19q56 0 108 -19l-65 -231h137q16 -46 16 -94q0 -58 -16 -111h-195l-108 -387h133q16 -41 16 -102q0 -26 -4 -52t-8 -38l-4 -13h-190l-60 -211q-50 -18 -108 -18q-60 0 -113 18l59 211h-249l-60 -211q-53 -18 -115 -18q-57 0 -106 18l59 211h-147
q-14 38 -14 101q0 31 3.5 57t6.5 37l4 10h205l108 387h-143q-14 49 -14 105q0 57 14 100h201l65 231q52 19 109 19t112 -19l-65 -231h250zM616 821l-108 -387h250l108 387h-250z" />
    <glyph glyph-name="dollar" unicode="$" horiz-adv-x="1144" 
d="M475 1599q42 17 105 17q30 0 56.5 -4t37.5 -8l12 -5l-18 -233q83 -4 164.5 -17.5t121.5 -24.5l41 -11q2 -46 -16 -103q-8 -24 -21.5 -45.5t-23.5 -30.5l-10 -10q-127 43 -291 43q-138 0 -209.5 -37t-71.5 -124q0 -46 31 -80.5t82 -54t116.5 -40.5t133 -39t133 -50.5
t116.5 -74t82 -110.5t31 -158q0 -352 -411 -391l20 -256q-34 -16 -104 -16q-29 0 -56 4t-39 8l-12 4l19 252q-105 4 -203 24.5t-143 39.5l-46 18q-7 35 9 98q7 27 19 51t20 34l8 10q22 -7 60 -17t140.5 -26.5t186.5 -16.5q135 0 200.5 37t65.5 127q0 61 -39.5 102.5
t-102.5 65t-139.5 43t-152.5 46t-139 64.5t-102.5 108t-39.5 167q0 168 101 265.5t297 117.5z" />
    <glyph glyph-name="percent" unicode="%" horiz-adv-x="1576" 
d="M1286 1423l-788 -1429q-31 -14 -97 -14q-28 0 -52 3.5t-34 6.5l-10 4l789 1429q30 15 96 15q28 0 52 -4t34 -8zM360 707q-141 0 -213.5 84t-72.5 270q0 184 72.5 269t213.5 85t215 -84t74 -270t-74 -270t-215 -84zM360 1274q-55 0 -79.5 -44t-24.5 -169q0 -127 24 -169
t80 -42q36 0 56.5 14.5t33.5 62t13 134.5q0 125 -24.5 169t-78.5 44zM1217 -20q-142 0 -214.5 84t-72.5 270q0 184 73 269t214 85t214.5 -84t73.5 -270t-73.5 -270t-214.5 -84zM1217 547q-55 0 -80 -44t-25 -169q0 -87 13 -134.5t34 -62t58 -14.5q36 0 56.5 14.5t33 62
t12.5 134.5q0 86 -12.5 133.5t-33.5 63.5t-56 16z" />
    <glyph glyph-name="ampersand" unicode="&#x26;" horiz-adv-x="1314" 
d="M647 1413q149 0 236.5 -68t87.5 -190q0 -73 -25.5 -137t-75 -117.5t-97.5 -91t-118 -82.5q104 -158 260 -293q32 52 80 174q58 7 111 -13t82 -60q-49 -110 -127 -211q118 -76 221 -121q4 -59 -29 -118t-84 -87q-138 56 -272 147q-30 -29 -66 -54.5t-88 -52t-120.5 -42.5
t-143.5 -16q-79 0 -149 21t-128 62.5t-92 111t-34 159.5q0 65 22 127t54 106.5t75.5 85.5t78.5 65t71 44q-78 176 -78 323q0 150 87 239t261 89zM635 1247q-53 0 -83 -37t-30 -112q0 -103 53 -224q79 54 121.5 115.5t42.5 149.5q0 51 -26.5 79.5t-77.5 28.5zM522 186
q127 0 232 72q-181 163 -297 354q-140 -112 -140 -241q0 -81 55 -133t150 -52z" />
    <glyph glyph-name="quotesingle" unicode="'" horiz-adv-x="454" 
d="M143 1038l-43 420q37 17 127 17q37 0 69 -4.5t45 -8.5l13 -4l-43 -420q-29 -14 -84 -14q-24 0 -45 3.5t-30 6.5z" />
    <glyph glyph-name="parenleft" unicode="(" horiz-adv-x="620" 
d="M469 1632q27 -15 48 -33t29 -29l7 -11q-8 -14 -22 -41.5t-49.5 -118.5t-62.5 -189t-49 -249.5t-22 -305.5t21 -303.5t51 -253t60.5 -185t51.5 -121.5l21 -40q-3 -5 -8 -13.5t-26.5 -28t-47.5 -32.5t-54 -20t-43 -8h-14q-11 18 -28.5 52t-63 141.5t-80.5 219t-63.5 274.5
t-28.5 318t27 316t66 279.5t78 214.5t66 146l27 50q50 2 109 -29z" />
    <glyph glyph-name="parenright" unicode=")" horiz-adv-x="620" 
d="M272 655q0 154 -21 303.5t-51 253.5t-60 185.5t-51 121.5l-21 40q23 40 84 73q26 14 53 21t41 7l14 1q11 -18 28.5 -52t63 -141.5t80.5 -219t63.5 -275t28.5 -318.5t-27 -316t-66 -279t-78 -214.5t-66 -145.5l-27 -50q-51 -1 -110 28q-26 13 -46.5 31.5t-27.5 30.5l-8 12
q8 14 22 41.5t49 118t62 189t49 249.5t22 305z" />
    <glyph glyph-name="asterisk" unicode="*" horiz-adv-x="694" 
d="M281 1298v158q65 21 133 -2v-156l149 50q39 -45 39 -125l-147 -49l94 -127q-48 -56 -111 -76l-90 125l-90 -125q-66 21 -111 76l91 124l-146 52q0 78 41 125z" />
    <glyph glyph-name="plus" unicode="+" horiz-adv-x="958" 
d="M385 500h-285q-14 37 -14 94q0 25 3.5 48.5t6.5 34.5l4 11h285v285q37 14 94 14q25 0 48.5 -3.5t34.5 -7.5l11 -3v-285h285q14 -37 14 -94q0 -25 -3.5 -48.5t-6.5 -34.5l-4 -11h-285v-285q-37 -14 -94 -14q-25 0 -48.5 3.5t-34.5 7.5l-11 3v285z" />
    <glyph glyph-name="comma" unicode="," horiz-adv-x="503" 
d="M215 -281l-90 62q3 3 7.5 9t17 27.5t22.5 45t19.5 61t11.5 76.5q-24 2 -44 6t-28 7l-8 3v236q45 16 129 16q37 0 69.5 -4t46.5 -8l13 -4v-154q0 -71 -17 -136t-41.5 -107t-49 -74.5t-41.5 -46.5z" />
    <glyph glyph-name="hyphen" unicode="-" horiz-adv-x="739" 
d="M594 500h-451q-14 37 -14 94q0 25 3.5 48.5t7.5 34.5l3 11h451q14 -37 14 -94q0 -25 -3.5 -48.5t-6.5 -34.5z" />
    <glyph glyph-name="period" unicode="." horiz-adv-x="503" 
d="M381 252v-236q-45 -16 -129 -16q-40 0 -72 4t-44 8l-13 4v236q39 16 129 16q37 0 69.5 -4t46.5 -8z" />
    <glyph glyph-name="slash" unicode="/" horiz-adv-x="1015" 
d="M39 -78l682 1596q45 18 125 18q37 0 69.5 -4.5t46.5 -9.5l13 -4l-682 -1596q-45 -18 -125 -18q-37 0 -69.5 4.5t-46.5 9.5z" />
    <glyph glyph-name="zero" unicode="0" horiz-adv-x="1265" 
d="M631 -20q-256 0 -388 171.5t-132 544.5q0 370 132.5 543.5t387.5 173.5q257 0 390.5 -172.5t133.5 -544.5t-133.5 -544t-390.5 -172zM631 1196q-49 0 -85 -12t-68 -45t-51.5 -88.5t-30.5 -144t-11 -210.5t11 -210t31 -143.5t51.5 -88.5t67.5 -45t85 -12q50 0 86 12.5
t67.5 45t50 88t29 143.5t10.5 210q0 123 -10.5 211t-29 144t-50 88.5t-67.5 44.5t-86 12z" />
    <glyph glyph-name="one" unicode="1" horiz-adv-x="868" 
d="M55 1120q127 34 216 94t163 160q39 19 127 19q38 0 70.5 -4.5t45.5 -9.5l13 -5v-1356q-41 -18 -129 -18q-36 0 -69.5 4.5t-48.5 9.5l-15 4v785q0 139 10 256q-130 -106 -321 -152q-38 38 -55 95.5t-7 117.5z" />
    <glyph glyph-name="two" unicode="2" horiz-adv-x="1095" 
d="M215 1155q-86 70 -74 184q19 8 52.5 20.5t134 33t196.5 20.5q100 0 182.5 -22t147.5 -66.5t101 -120.5t36 -178q0 -49 -6 -91t-21.5 -79t-31 -65.5t-46.5 -60t-54 -52.5t-68.5 -51.5t-75.5 -49t-88 -53.5q-16 -10 -57.5 -34t-62 -37t-52.5 -38t-48 -45t-29 -48.5
t-13 -59.5q0 -11 4 -31h608q25 -46 25 -114q0 -62 -25 -117h-850q-12 65 -12 137q0 110 28.5 197t97 159t112 106.5t140.5 99.5q11 8 17 12q98 67 145 108t72 89t25 112q0 91 -64.5 135.5t-177.5 44.5q-62 0 -129 -11t-103 -23z" />
    <glyph glyph-name="three" unicode="3" horiz-adv-x="1087" 
d="M981 383q0 -199 -125 -301t-401 -102q-66 0 -128 7.5t-103.5 18t-73.5 21.5t-47 19l-15 7q-3 53 14.5 106t49.5 85q130 -43 284 -43q142 0 210.5 47t68.5 166q0 109 -58.5 159t-187.5 50h-174q-43 106 0 204h174q201 0 201 181q0 101 -59 145.5t-177 44.5
q-65 0 -127.5 -11t-92.5 -21l-30 -11q-92 67 -80 184q15 8 43 20.5t120.5 33t191.5 20.5q223 0 348 -95t125 -280q0 -226 -164 -305q213 -84 213 -350z" />
    <glyph glyph-name="four" unicode="4" horiz-adv-x="1193" 
d="M76 543l612 831q45 19 131 19q38 0 69.5 -4.5t43.5 -9.5l12 -5v-831h168q18 -37 18 -103q0 -29 -4.5 -54.5t-9.5 -36.5l-4 -11h-168v-320q-45 -18 -119 -18q-35 0 -66.5 4.5t-46.5 9.5l-14 4v320h-622q-21 36 -21 102q0 29 5.5 55t10.5 37zM698 1042l-368 -499h368v499z
" />
    <glyph glyph-name="five" unicode="5" horiz-adv-x="1075" 
d="M422 1167v-327q23 2 76 2q236 0 356.5 -103.5t120.5 -324.5q0 -213 -134.5 -323.5t-402.5 -110.5q-71 0 -133 7.5t-101 18t-67.5 21.5t-40.5 19l-12 7q-3 53 14 106t49 85q12 -5 34 -12t92 -19t141 -12q144 0 219.5 50t75.5 163q0 68 -17.5 110.5t-58.5 66t-95 32
t-139 8.5q-127 0 -231 -8v770h747q20 -56 20 -116.5t-20 -109.5h-493z" />
    <glyph glyph-name="six" unicode="6" horiz-adv-x="1132" 
d="M903 1393q20 -44 20 -100.5t-20 -106.5q-211 -24 -331 -108t-166 -253q114 27 212 27q92 0 167.5 -24.5t136 -75t94 -136t33.5 -200.5q0 -221 -123 -328.5t-348 -107.5t-348.5 134t-123.5 412q0 420 203 631.5t594 235.5zM782 416q0 235 -209 235q-95 0 -200 -33
q-2 -31 -2 -100q0 -342 207 -342q97 0 150.5 59t53.5 181z" />
    <glyph glyph-name="seven" unicode="7" horiz-adv-x="1019" 
d="M86 1393h858q18 -59 14 -144q-4 -94 -33.5 -181t-73.5 -158t-96 -143t-103.5 -150.5t-94 -164t-68.5 -199t-26 -241.5q-55 -12 -123 -12q-70 0 -125 12q0 137 22.5 257t59.5 208.5t82 165.5t94.5 142t92.5 123t79.5 124t52.5 131h-612q-18 45 -18 117q0 33 4.5 61t9.5 40
z" />
    <glyph glyph-name="eight" unicode="8" horiz-adv-x="1189" 
d="M586 -20q-225 0 -353.5 96t-128.5 278q0 222 244 353q-96 59 -150.5 140.5t-54.5 203.5q0 167 119 264.5t330 97.5q203 0 318.5 -88.5t115.5 -251.5q0 -199 -182 -330q114 -63 178.5 -149.5t64.5 -218.5q0 -191 -131 -293t-370 -102zM592 1223q-94 0 -145.5 -41.5
t-51.5 -114.5q0 -26 9 -50t20.5 -42t38 -38t43 -31.5t56 -31t57.5 -27.5t65 -28q113 101 113 232q0 83 -52.5 127.5t-152.5 44.5zM594 180q105 0 168 48t63 134q0 20 -5.5 39.5t-12 34.5t-22 31.5t-26 27.5t-35 26t-37.5 23t-44 22.5t-44 20.5t-49 21.5t-48 20.5
q-152 -108 -152 -264q0 -88 63.5 -136.5t180.5 -48.5z" />
    <glyph glyph-name="nine" unicode="9" horiz-adv-x="1132" 
d="M229 0q-40 109 0 207q211 22 330 106t168 254q-96 -26 -213 -26q-91 0 -167 24.5t-136 75t-93.5 136t-33.5 200.5q0 221 123 328.5t348 107.5t348 -134t123 -413q0 -420 -203 -631t-594 -235zM350 977q0 -236 209 -236q91 0 199 31q4 66 4 102q0 343 -207 343
q-97 0 -151 -59t-54 -181z" />
    <glyph glyph-name="colon" unicode=":" horiz-adv-x="516" 
d="M387 1061v-236q-45 -16 -129 -16q-40 0 -72 4t-44 8l-13 4v236q39 16 129 16q37 0 69.5 -4t46.5 -8zM387 252v-236q-45 -16 -129 -16q-40 0 -72 4t-44 8l-13 4v236q39 16 129 16q37 0 69.5 -4t46.5 -8z" />
    <glyph glyph-name="semicolon" unicode=";" horiz-adv-x="516" 
d="M387 1061v-236q-45 -16 -129 -16q-40 0 -72 4t-44 8l-13 4v236q39 16 129 16q37 0 69.5 -4t46.5 -8zM221 -281l-90 62q3 3 7.5 9t17 27.5t22.5 45t19.5 61t11.5 76.5q-24 2 -44 6t-28 7l-8 3v236q39 16 129 16q37 0 69.5 -4t46.5 -8l13 -4v-154q0 -71 -17 -136
t-41.5 -107t-49 -74.5t-41.5 -46.5z" />
    <glyph glyph-name="less" unicode="&#x3c;" horiz-adv-x="901" 
d="M756 205l-656 293q-14 43 -14 98q0 25 3.5 48t6.5 34l4 10l656 293q14 -31 14 -94q0 -27 -3.5 -51t-6.5 -34l-4 -11l-443 -201l443 -195q14 -31 14 -94q0 -27 -3.5 -51t-6.5 -34z" />
    <glyph glyph-name="equal" unicode="=" horiz-adv-x="1060" 
d="M909 688h-757q-28 104 0 191h757q31 -89 0 -191zM909 307h-757q-28 104 0 191h757q31 -89 0 -191z" />
    <glyph glyph-name="greater" unicode="&#x3e;" horiz-adv-x="901" 
d="M801 498l-656 -293q-14 35 -14 96q0 28 3.5 51.5t7.5 33.5l3 9l443 195l-443 201q-14 35 -14 96q0 28 3.5 51.5t7.5 33.5l3 9l656 -293q14 -35 14 -92q0 -24 -3.5 -48.5t-7.5 -37.5z" />
    <glyph glyph-name="question" unicode="?" horiz-adv-x="901" 
d="M829 1040q0 -81 -19.5 -143t-51 -101t-69.5 -70t-76 -58t-69.5 -57t-51 -75t-19.5 -104q-28 -24 -96 -24q-28 0 -53.5 6t-37.5 12l-12 6q0 86 16 152t41.5 105t56 69.5t61.5 55t56.5 51t41.5 68t16 97.5q0 51 -16 86t-46 53t-64.5 25.5t-80.5 7.5q-61 0 -114.5 -12
t-77.5 -24l-23 -11q-92 67 -80 184q14 8 40 20.5t112.5 33t181.5 20.5q90 0 165.5 -20t137.5 -62.5t96.5 -116.5t34.5 -174zM504 252v-236q-45 -16 -129 -16q-40 0 -72.5 4t-44.5 8l-12 4v236q39 16 129 16q37 0 69.5 -4t45.5 -8z" />
    <glyph glyph-name="at" unicode="@" horiz-adv-x="1867" 
d="M1759 621q0 -216 -100.5 -331.5t-276.5 -115.5q-210 0 -274 115q-73 -115 -262 -115q-152 0 -235 92t-83 303q0 110 22.5 188t65.5 123.5t99.5 66t130.5 20.5q156 0 231 -72v61q35 21 111 21q34 0 60.5 -5.5t35.5 -10.5l10 -5v-505q0 -54 22.5 -80.5t72.5 -26.5
q79 0 122 71t43 206q0 276 -155.5 442t-433.5 166q-298 0 -467.5 -175t-169.5 -483q0 -166 52.5 -292t143 -199.5t201 -109.5t238.5 -36q269 0 524 148q70 -38 76 -127q-289 -193 -631 -193q-129 0 -249 30.5t-227.5 95.5t-187 158.5t-126 228.5t-46.5 296q0 190 66 346
t182.5 260t275.5 160t345 56q370 0 582 -209t212 -563zM764 569q0 -137 40 -187t124 -50q65 0 104.5 38.5t44.5 100.5v201q-5 61 -44.5 99t-104.5 38q-85 0 -124.5 -49.5t-39.5 -190.5z" />
    <glyph glyph-name="A" unicode="A" horiz-adv-x="1363" 
d="M522 1456q68 19 160 19q44 0 84 -4.5t58 -9.5l18 -5l489 -1438q-47 -18 -143 -18q-39 0 -71 4.5t-44 9.5l-12 4l-111 328h-559l-110 -328q-45 -18 -127 -18q-35 0 -65 4.5t-43 9.5l-13 4zM676 1200h-8q-21 -104 -62 -227l-143 -416h416l-140 416q-19 56 -35 113t-22 86z
" />
    <glyph glyph-name="B" unicode="B" horiz-adv-x="1288" 
d="M168 1475h577q183 0 292.5 -114.5t109.5 -301.5q0 -96 -39.5 -172.5t-112.5 -124.5q93 -47 144 -132.5t51 -201.5q0 -193 -119.5 -310.5t-316.5 -117.5h-586v1475zM430 846h256q96 0 145.5 59t49.5 154q0 100 -49 157.5t-146 57.5h-256v-428zM430 201h268
q111 0 166.5 58.5t55.5 166.5q0 115 -54.5 171t-167.5 56h-268v-452z" />
    <glyph glyph-name="C" unicode="C" horiz-adv-x="1157" 
d="M106 737q0 371 158.5 564.5t462.5 193.5q101 0 189.5 -18t126.5 -36l38 -18q7 -103 -77 -194q-117 43 -248 43q-86 0 -151 -25t-117 -83.5t-79.5 -166.5t-27.5 -262q0 -124 18.5 -217.5t50.5 -152t80.5 -94.5t102.5 -50t123 -14q65 0 132 10.5t102 21.5l34 11
q78 -72 78 -199q-6 -3 -16.5 -7.5t-47 -17t-77 -22t-104 -17t-130.5 -7.5q-304 0 -462.5 193t-158.5 564z" />
    <glyph glyph-name="D" unicode="D" horiz-adv-x="1363" 
d="M168 1475h481q606 0 606 -738q0 -737 -606 -737h-481v1475zM430 217h201q64 0 112.5 12.5t94 46.5t74.5 91t46 150t17 220t-17 220.5t-46 150.5t-74.5 91t-94 46t-112.5 12h-201v-1040z" />
    <glyph glyph-name="E" unicode="E" horiz-adv-x="1134" 
d="M168 1475h846q20 -52 20 -99q0 -62 -20 -112h-584v-414h481q21 -58 21 -102q0 -56 -21 -109h-481v-428h604q21 -58 21 -102q0 -57 -21 -109h-866v1475z" />
    <glyph glyph-name="F" unicode="F" horiz-adv-x="1083" 
d="M428 610v-592q-45 -18 -133 -18q-38 0 -70.5 4.5t-45.5 9.5l-13 4v1457h825q21 -58 21 -105q0 -54 -21 -106h-563v-443h502q20 -41 20 -100q0 -64 -20 -111h-502z" />
    <glyph glyph-name="G" unicode="G" horiz-adv-x="1298" 
d="M106 737q0 370 168 564t488 194q110 0 207.5 -18t139.5 -36l42 -18q0 -55 -21 -107t-57 -85q-130 43 -282 43q-75 0 -134.5 -15t-112.5 -53t-88 -98t-55 -154.5t-20 -218.5t20 -217.5t55 -152.5t88 -95.5t112.5 -50.5t134.5 -14q34 0 67.5 2t50.5 4l17 2v416h-258
q-21 38 -21 104q0 30 5.5 57t10.5 38l5 12h503v-789q-6 -3 -18 -7.5t-52 -17t-84 -22t-113.5 -17t-141.5 -7.5q-320 0 -488 193.5t-168 563.5z" />
    <glyph glyph-name="H" unicode="H" horiz-adv-x="1392" 
d="M967 868v588q45 19 131 19q38 0 71 -4.5t47 -9.5l13 -5v-1438q-43 -18 -129 -18q-43 0 -76 4.5t-45 9.5l-12 4v625h-541v-625q-47 -18 -131 -18q-42 0 -74.5 4.5t-44.5 9.5l-12 4v1438q43 19 129 19q39 0 72.5 -4.5t46.5 -9.5l14 -5v-588h541z" />
    <glyph glyph-name="I" unicode="I" horiz-adv-x="589" 
d="M164 18v1438q43 19 129 19q39 0 72.5 -4.5t46.5 -9.5l14 -5v-1438q-47 -18 -131 -18q-42 0 -74.5 4.5t-44.5 9.5z" />
    <glyph glyph-name="J" unicode="J" horiz-adv-x="927" 
d="M508 412v1044q37 19 131 19q39 0 72 -4.5t46 -9.5l13 -5v-1036q0 -215 -118.5 -327.5t-309.5 -112.5q-75 0 -152 15t-117 31l-40 15q-3 122 69 197q85 -31 179 -31q102 0 164.5 49t62.5 156z" />
    <glyph glyph-name="K" unicode="K" horiz-adv-x="1265" 
d="M518 870l404 586q70 19 131 19t139 -19l-455 -661l518 -777q-53 -18 -155 -18q-42 0 -79.5 4.5t-54.5 9.5l-16 4l-432 644h-92v-644q-37 -18 -131 -18q-37 0 -70 4.5t-47 9.5l-14 4v1438q45 19 133 19q38 0 70.5 -4.5t45.5 -9.5l13 -5v-586h92z" />
    <glyph glyph-name="L" unicode="L" horiz-adv-x="1073" 
d="M166 0v1456q43 19 129 19q39 0 72.5 -4.5t46.5 -9.5l14 -5v-1231h588q20 -47 20 -112q0 -51 -20 -113h-850z" />
    <glyph glyph-name="M" unicode="M" horiz-adv-x="1703" 
d="M1200 1456q87 19 168 19q44 0 86.5 -4.5t63.5 -9.5l20 -5v-1438q-45 -18 -129 -18q-37 0 -70.5 4.5t-48.5 9.5l-14 4v449q0 45 -1 171t-1 194.5t4 160.5t12 152h-12q-12 -45 -41 -116t-51.5 -120t-70.5 -150t-62 -132l-144 -301q-30 -11 -75 -11q-20 0 -36.5 2.5
t-23.5 5.5l-6 3q-16 32 -66 133t-77 157q-66 133 -96.5 197t-75.5 168t-60 164h-12q7 -34 12.5 -83.5t8 -92t3.5 -113t1.5 -108.5t0 -121t-0.5 -109v-500q-43 -18 -123 -18q-32 0 -61.5 4.5t-42.5 9.5l-13 4v1438q64 19 158 19q35 0 73.5 -4.5t60.5 -9.5l21 -5l187 -375
q141 -288 176 -401h10q35 113 82 213q113 227 266 563z" />
    <glyph glyph-name="N" unicode="N" horiz-adv-x="1435" 
d="M958 18l-426 824q-35 64 -68 139t-49 119l-16 43h-8q17 -162 17 -375v-750q-39 -18 -123 -18q-36 0 -66 4.5t-41 9.5l-12 4v1438q56 19 158 19q46 0 85 -4.5t55 -9.5l15 -5l422 -819q36 -65 70 -142t51 -121l16 -44h9q-17 172 -17 381v745q37 19 123 19q38 0 68 -4.5
t41 -9.5l10 -5v-1438q-50 -18 -154 -18q-45 0 -85 4.5t-57 9.5z" />
    <glyph glyph-name="O" unicode="O" horiz-adv-x="1396" 
d="M106 737q0 382 156.5 570t435.5 188q280 0 436 -186.5t156 -571.5q0 -387 -154 -572t-438 -185t-438 185t-154 572zM1014 737q0 128 -14.5 223t-40.5 155.5t-66.5 97t-87 51t-107.5 14.5q-75 0 -129.5 -24t-98 -83t-65.5 -167t-22 -267q0 -127 15 -222t41.5 -155t67 -97
t86.5 -51.5t105 -14.5q77 0 131.5 24t98 83t65 167t21.5 266z" />
    <glyph glyph-name="P" unicode="P" horiz-adv-x="1243" 
d="M428 553v-535q-43 -18 -129 -18q-43 0 -76 4.5t-45 9.5l-12 4v1457h549q206 0 331 -127.5t125 -333.5t-125 -333.5t-331 -127.5h-287zM428 770h250q106 0 162.5 64t56.5 180t-56.5 179.5t-162.5 63.5h-250v-487z" />
    <glyph glyph-name="Q" unicode="Q" horiz-adv-x="1396" 
d="M106 737q0 382 156.5 570t435.5 188q280 0 436 -186.5t156 -571.5q0 -431 -196 -618q113 -92 280 -123q-6 -68 -46 -130.5t-97 -90.5q-185 67 -311 239q-90 -34 -222 -34q-284 0 -438 185t-154 572zM1014 737q0 128 -14.5 223t-40.5 155.5t-66.5 97t-87 51t-107.5 14.5
q-75 0 -129.5 -24t-98 -83t-65.5 -167t-22 -267q0 -127 15 -222t41.5 -155t67 -97t86.5 -51.5t105 -14.5q77 0 131.5 24t98 83t65 167t21.5 266z" />
    <glyph glyph-name="R" unicode="R" horiz-adv-x="1288" 
d="M166 1475h539q206 0 331 -122t125 -321q0 -152 -75 -262t-207 -154l356 -598q-54 -18 -156 -18q-42 0 -78.5 4.5t-52.5 9.5l-16 4l-338 572h-166v-572q-43 -18 -129 -18q-43 0 -76 4.5t-45 9.5l-12 4v1457zM428 1257v-450h240q107 0 163 58.5t56 166.5t-56 166.5
t-163 58.5h-240z" />
    <glyph glyph-name="S" unicode="S" horiz-adv-x="1171" 
d="M102 1063q0 200 131 316t385 116q113 0 216 -15.5t150 -30.5l46 -15q0 -57 -17.5 -112.5t-51.5 -92.5q-15 5 -42 12.5t-107.5 20t-156.5 12.5q-293 0 -293 -199q0 -27 9.5 -49.5t31 -41t43 -32.5t59 -29t65 -24.5t75 -25t74.5 -25.5q52 -19 92 -37.5t85 -45t77 -59
t59 -73.5t41 -95t14 -118q0 -215 -133.5 -327.5t-394.5 -112.5q-125 0 -239 22.5t-166 45.5l-52 22q-3 110 62 209q22 -7 60 -17.5t139.5 -28.5t185.5 -18q140 0 205 49.5t65 149.5q0 40 -15.5 72t-46.5 56t-66 41t-85 35q-27 10 -81.5 28t-87 29t-82.5 33t-81 42t-67.5 52
t-56.5 68t-34 85.5t-14 107.5z" />
    <glyph glyph-name="T" unicode="T" horiz-adv-x="1132" 
d="M68 1475h997q20 -50 20 -111q0 -29 -5 -58t-10 -43l-5 -14h-363v-1231q-47 -18 -131 -18q-42 0 -74.5 4.5t-44.5 9.5l-12 4v1231h-372q-21 43 -21 111q0 29 5.5 58t10.5 43z" />
    <glyph glyph-name="U" unicode="U" horiz-adv-x="1378" 
d="M1223 1456v-940q0 -255 -144 -395.5t-391 -140.5q-245 0 -388.5 142.5t-143.5 393.5v940q43 19 129 19q39 0 72.5 -4.5t46.5 -9.5l14 -5v-981q0 -130 71.5 -202t202.5 -72t202 72t71 202v981q41 19 127 19q38 0 71 -4.5t47 -9.5z" />
    <glyph glyph-name="V" unicode="V" horiz-adv-x="1339" 
d="M305 1454l291 -879q24 -72 43 -145.5t26 -111.5l7 -37h8q23 131 78 297l293 876q36 21 120 21q36 0 70 -5.5t50 -10.5l16 -5l-480 -1438q-67 -16 -157 -16q-41 0 -80.5 4t-58.5 8l-19 4l-477 1434q49 25 145 25q39 0 70.5 -5.5t43.5 -10.5z" />
    <glyph glyph-name="W" unicode="W" horiz-adv-x="1994" 
d="M1245 18l-186 842q-21 96 -33.5 183.5t-15.5 126.5l-2 40h-11q-6 -133 -53 -350l-184 -842q-74 -18 -174 -18q-86 0 -156 18l-383 1438q43 19 131 19q40 0 72.5 -4.5t45.5 -9.5l13 -5l234 -876q16 -63 32 -139t23 -121l8 -44h8q21 159 54 302l200 878q44 19 140 19
q44 0 80 -4.5t50 -9.5l13 -5l199 -876q16 -68 28 -144t16 -118l5 -42h8q20 140 63 302l238 878q49 19 119 19q34 0 64.5 -4.5t44.5 -9.5l14 -5l-389 -1438q-62 -18 -154 -18q-40 0 -80.5 4.5t-60.5 9.5z" />
    <glyph glyph-name="X" unicode="X" horiz-adv-x="1314" 
d="M975 1456q65 19 135 19q77 0 139 -19l-426 -670l469 -761q-53 -25 -151 -25q-39 0 -75.5 5t-53.5 10l-17 5l-344 560l-356 -564q-59 -16 -127 -16q-99 0 -156 16l480 756l-416 684q53 19 151 19q39 0 76 -4.5t55 -9.5l17 -5l295 -481z" />
    <glyph glyph-name="Y" unicode="Y" horiz-adv-x="1314" 
d="M1012 1456q47 19 135 19q37 0 73.5 -4.5t53.5 -9.5l18 -5l-506 -842v-596q-43 -18 -127 -18q-42 0 -75.5 4.5t-46.5 9.5l-13 4v590l-491 848q56 19 160 19q42 0 78.5 -4.5t52.5 -9.5l16 -5l334 -579z" />
    <glyph glyph-name="Z" unicode="Z" horiz-adv-x="1230" 
d="M145 1475h961q18 -40 18 -109q0 -68 -18 -121l-729 -1014h756q14 -58 14 -110q0 -66 -14 -121h-1045q-18 58 -18 119q0 59 18 112l717 1014h-660q-14 52 -14 123q0 64 14 107z" />
    <glyph glyph-name="bracketleft" unicode="[" horiz-adv-x="692" 
d="M174 1659h436q15 -33 15 -96q0 -28 -3.5 -51.5t-7.5 -33.5l-4 -10h-198v-1626h198q15 -33 15 -96q0 -28 -3.5 -51.5t-7.5 -32.5l-4 -10h-436v2007z" />
    <glyph glyph-name="backslash" unicode="\" horiz-adv-x="1024" 
d="M303 1518l682 -1596q-47 -18 -133 -18q-36 0 -68.5 4.5t-46.5 9.5l-14 4l-682 1596q47 18 133 18q36 0 68.5 -4.5t46.5 -9.5z" />
    <glyph glyph-name="bracketright" unicode="]" horiz-adv-x="690" 
d="M518 -348h-436q-14 31 -14 94q0 28 3.5 52t6.5 34l4 10h199v1626h-199q-14 32 -14 95q0 28 3.5 52t6.5 34l4 10h436v-2007z" />
    <glyph glyph-name="asciicircum" unicode="^" horiz-adv-x="1077" 
d="M639 1460l354 -520q-37 -14 -94 -14q-26 0 -53 3.5t-41 6.5l-14 4l-252 371l-252 -371q-50 -14 -109 -14q-25 0 -48.5 3.5t-34.5 6.5l-11 4l354 520q38 15 101 15q28 0 53 -3.5t36 -7.5z" />
    <glyph glyph-name="underscore" unicode="_" horiz-adv-x="1138" 
d="M1020 -209h-901q-15 27 -15 84q0 25 4 46t8 29l3 9h901q14 -27 14 -84q0 -25 -3.5 -46t-6.5 -29z" />
    <glyph glyph-name="grave" unicode="`" horiz-adv-x="487" 
d="M301 1300l-256 267q28 43 95 71t128 21l176 -281q-44 -61 -143 -78z" />
    <glyph glyph-name="a" unicode="a" horiz-adv-x="1058" 
d="M154 1016q6 3 17.5 8.5t49.5 20t78 25t101 19.5t122 9q220 0 315 -92t95 -289v-701q-29 -16 -101 -16q-28 0 -54 4t-38 8l-12 4l-39 111q-72 -147 -299 -147q-150 0 -233.5 89t-83.5 265q0 169 101.5 247t297.5 78q105 0 203 -10v45q0 187 -185 187q-60 0 -125.5 -12.5
t-101.5 -24.5l-35 -13q-32 21 -57 76q-11 24 -15 51.5t-3 42.5zM674 479q-102 8 -170 8q-166 0 -166 -153q0 -84 37.5 -121t109.5 -37q51 0 89.5 22t59 58.5t30.5 77t10 84.5v61z" />
    <glyph glyph-name="b" unicode="b" horiz-adv-x="1142" 
d="M393 1520v-529q87 107 277 107q89 0 156.5 -29t118.5 -93t77.5 -174t26.5 -263t-26.5 -263t-77.5 -174t-118.5 -93t-156.5 -29q-191 0 -277 106v-70q-45 -16 -131 -16q-38 0 -70 4t-44 8l-13 4v1504q41 16 127 16q38 0 71 -4t47 -8zM782 539q0 106 -13 176t-41 107.5
t-63 52t-87 14.5q-85 0 -135 -61.5t-50 -159.5v-258q0 -98 50 -160t135 -62q52 0 87 14.5t63 52t41 108t13 176.5z" />
    <glyph glyph-name="c" unicode="c" horiz-adv-x="915" 
d="M594 889q-130 0 -185 -82.5t-55 -267.5q0 -182 58.5 -262t189.5 -80q46 0 92 7t69 14l23 7q32 -29 51 -79t21 -103q-10 -7 -30.5 -17.5t-100 -28t-176.5 -17.5q-461 0 -461 559t461 559q94 0 165.5 -13.5t96.5 -26.5l25 -14q0 -52 -19.5 -101t-52.5 -81q-70 27 -172 27z
" />
    <glyph glyph-name="d" unicode="d" horiz-adv-x="1142" 
d="M750 1520q45 16 131 16q38 0 70 -4t45 -8l12 -4v-1504q-46 -16 -109 -16q-29 0 -59 4t-45 8l-15 4l-16 88q-88 -124 -291 -124q-89 0 -156.5 29t-118.5 93t-77.5 174t-26.5 263t26.5 263t77.5 174t118.5 93t156.5 29q187 0 277 -107v529zM750 676q-3 95 -53 154t-132 59
q-41 0 -71 -8.5t-56.5 -31.5t-43 -62t-25.5 -101t-9 -147q0 -106 13.5 -176.5t41.5 -108t63 -52t87 -14.5q85 0 135 62t50 160v266z" />
    <glyph glyph-name="e" unicode="e" horiz-adv-x="1056" 
d="M954 459h-600q13 -148 75.5 -205t178.5 -57q61 0 119.5 12.5t86.5 24.5l28 12q33 -32 55 -81t23 -102q-5 -3 -14.5 -9t-43 -20t-71 -25t-97 -20t-123.5 -9q-247 0 -364 141.5t-117 423.5q0 281 123 417t344 136q197 0 308.5 -105.5t111.5 -318.5q0 -58 -5.5 -112
t-11.5 -78zM721 705q0 192 -164 192q-176 0 -201 -260h361q4 46 4 68z" />
    <glyph glyph-name="f" unicode="f" horiz-adv-x="737" 
d="M205 1200q0 336 358 336q68 0 129 -12t88 -24l27 -13q-6 -104 -68 -178q-61 24 -159 24q-61 0 -89 -29t-28 -94v-133h225q12 -49 12 -98q0 -45 -12 -92h-225v-871q-45 -16 -129 -16q-40 0 -72 4t-44 8l-13 4v871h-131q-11 61 -11 98q0 52 11 92h131v123z" />
    <glyph glyph-name="g" unicode="g" horiz-adv-x="1095" 
d="M741 1051l295 47q15 -38 15 -97.5t-15 -99.5l-157 21q45 -80 45 -201q0 -178 -106 -277.5t-310 -99.5q-51 0 -74 2q-30 -48 -22 -90q6 -30 36.5 -48.5t75 -26t100 -16t112 -16t110.5 -28.5t95.5 -52t67 -87.5t25.5 -133.5q0 -161 -146.5 -260.5t-393.5 -99.5
q-229 0 -341 75t-112 204q0 165 184 272q-43 46 -43 119q0 116 101 229q-191 89 -191 334q0 178 107 277.5t309 99.5q141 0 233 -47zM678 721q0 101 -45 150t-125 49t-126 -49t-46 -150q0 -100 46 -148.5t126 -48.5t125 48t45 149zM791 -180q0 37 -26.5 60.5t-76 35
t-100.5 18t-119 16t-113 21.5q-67 -67 -67 -151q0 -67 52.5 -109.5t160.5 -42.5q143 0 216 41t73 111z" />
    <glyph glyph-name="h" unicode="h" 
d="M993 786v-770q-45 -16 -129 -16q-40 0 -72 4t-44 8l-13 4v725q0 69 -40 108.5t-124 39.5q-101 0 -180 -76v-797q-45 -16 -129 -16q-40 0 -72 4t-44 8l-13 4v1504q39 16 129 16q37 0 69.5 -4t46.5 -8l13 -4v-521q108 99 281 99q154 0 237.5 -85t83.5 -227z" />
    <glyph glyph-name="i" unicode="i" horiz-adv-x="532" 
d="M395 1493v-236q-45 -16 -129 -16q-40 0 -72 4t-44 8l-13 4v236q39 16 129 16q37 0 69.5 -4t46.5 -8zM395 1061v-1045q-45 -16 -129 -16q-40 0 -72 4t-44 8l-13 4v1045q39 16 129 16q37 0 69.5 -4t46.5 -8z" />
    <glyph glyph-name="j" unicode="j" horiz-adv-x="532" 
d="M395 1493v-236q-45 -16 -129 -16q-40 0 -72 4t-44 8l-13 4v236q39 16 129 16q37 0 69.5 -4t46.5 -8zM137 -188v1249q39 16 129 16q37 0 69.5 -4t46.5 -8l13 -4v-1241q0 -160 -78.5 -246t-230.5 -86q-38 0 -74.5 4.5t-53.5 9.5l-17 4q-9 27 -9 60q0 40 7 73t13 47l7 13
q33 -8 68 -8q110 0 110 121z" />
    <glyph glyph-name="k" unicode="k" horiz-adv-x="1032" 
d="M459 657l254 404q53 16 129 16q31 0 63 -4t48 -8l16 -4l-299 -481l346 -564q-60 -18 -144 -18q-38 0 -73 4.5t-51 9.5l-15 4l-278 451h-62v-451q-51 -16 -127 -16q-36 0 -68.5 4t-47.5 8l-15 4v1508q53 12 131 12q30 0 62 -3t48 -6l17 -3v-867h66z" />
    <glyph glyph-name="l" unicode="l" horiz-adv-x="536" 
d="M397 1520v-1504q-45 -16 -129 -16q-40 0 -72 4t-44 8l-13 4v1504q39 16 129 16q37 0 69.5 -4t46.5 -8z" />
    <glyph glyph-name="m" unicode="m" horiz-adv-x="1681" 
d="M922 977q121 121 321 121q148 0 229.5 -85.5t81.5 -226.5v-770q-45 -16 -129 -16q-40 0 -72.5 4t-44.5 8l-12 4v725q0 148 -153 148q-99 0 -170 -74v-799q-45 -16 -129 -16q-40 0 -72 4t-44 8l-13 4v725q0 148 -154 148q-99 0 -170 -74v-799q-45 -16 -129 -16
q-40 0 -72 4t-44 8l-13 4v1045q39 16 129 16q37 0 69.5 -4t46.5 -8l13 -4v-60q105 97 268 97q176 0 263 -121z" />
    <glyph glyph-name="n" unicode="n" 
d="M993 786v-770q-45 -16 -129 -16q-40 0 -72 4t-44 8l-13 4v725q0 69 -40 108.5t-124 39.5q-101 0 -180 -76v-797q-45 -16 -129 -16q-40 0 -72 4t-44 8l-13 4v1045q39 16 129 16q37 0 69.5 -4t46.5 -8l13 -4v-62q108 99 281 99q154 0 237.5 -85t83.5 -227z" />
    <glyph glyph-name="o" unicode="o" horiz-adv-x="1122" 
d="M90 539q0 293 122 426t349 133q228 0 349.5 -132.5t121.5 -426.5q0 -293 -122 -426t-349 -133t-349 133t-122 426zM766 539q0 107 -14 179t-42 111.5t-63.5 55.5t-85.5 16t-85.5 -16t-64 -55.5t-43 -112t-14.5 -178.5t14.5 -179t43 -112.5t64 -55.5t85.5 -16t85.5 16
t63.5 55.5t42 112t14 179.5z" />
    <glyph glyph-name="p" unicode="p" horiz-adv-x="1142" 
d="M393 991q87 107 277 107q89 0 156.5 -29t118.5 -93t77.5 -174t26.5 -263t-26.5 -263t-77.5 -174t-118.5 -93t-156.5 -29q-191 0 -277 106v-528q-45 -17 -131 -17q-38 0 -70 4.5t-44 8.5l-13 4v1503q41 16 127 16q38 0 71 -4t47 -8l13 -4v-70zM782 539q0 106 -13 176
t-41 107.5t-63 52t-87 14.5q-85 0 -135 -61.5t-50 -159.5v-258q0 -98 50 -160t135 -62q52 0 87 14.5t63 52t41 108t13 176.5z" />
    <glyph glyph-name="q" unicode="q" horiz-adv-x="1140" 
d="M750 -442v528q-89 -106 -277 -106q-89 0 -156.5 29t-118.5 93t-77.5 174t-26.5 263t26.5 263t77.5 174t118.5 93t156.5 29q187 0 277 -107v70q38 16 124 16q38 0 71.5 -4t48.5 -8l14 -4v-1503q-41 -17 -127 -17q-38 0 -71 4.5t-46 8.5zM360 539q0 -106 13.5 -176.5
t41.5 -108t63 -52t87 -14.5q82 0 132 58.5t53 152.5v269q0 98 -50 159.5t-135 61.5q-41 0 -71 -8.5t-56.5 -31.5t-43 -62t-25.5 -101t-9 -147z" />
    <glyph glyph-name="r" unicode="r" horiz-adv-x="813" 
d="M391 944q112 152 227 152q98 0 181 -54q-11 -132 -111 -219q-54 45 -119 45q-102 0 -178 -106v-746q-45 -16 -129 -16q-40 0 -72 4t-44 8l-13 4v1045q39 16 129 16q37 0 69.5 -4t46.5 -8l13 -4v-117z" />
    <glyph glyph-name="s" unicode="s" horiz-adv-x="913" 
d="M92 766q0 154 100 243t295 89q97 0 172.5 -15t102.5 -30l26 -15q0 -120 -65 -182q-96 33 -209 33q-176 0 -176 -115q0 -21 11 -38.5t27 -28.5t44 -22.5t52.5 -18.5t62 -18.5t63.5 -20.5q52 -18 91 -40t76 -57t57 -88.5t20 -122.5q0 -164 -101.5 -251.5t-300.5 -87.5
q-62 0 -121.5 8t-100 19.5t-71.5 22.5t-46 19l-15 8q0 124 70 191q133 -49 272 -49q160 0 160 114q0 39 -31 67t-59 38.5t-99 31.5q-15 5 -22 7q-41 12 -69 22.5t-64.5 28.5t-60.5 40t-46.5 52.5t-33.5 72.5t-11 93z" />
    <glyph glyph-name="t" unicode="t" horiz-adv-x="794" 
d="M467 887v-488q0 -125 45.5 -169t149.5 -44l71 7q19 -46 19 -103q0 -24 -4 -47t-8 -34l-3 -11q-63 -18 -151 -18q-194 0 -285.5 101t-91.5 306v500h-156q-14 37 -14 94q0 28 3.5 52t7.5 34l3 10h156v176q107 65 258 52v-228h242q14 -35 14 -94q0 -24 -3.5 -48t-7.5 -36
l-3 -12h-242z" />
    <glyph glyph-name="u" unicode="u" 
d="M127 291v770q45 16 129 16q40 0 72 -4t44 -8l13 -4v-725q0 -69 40 -108.5t124 -39.5q104 0 180 76v797q45 16 129 16q40 0 72 -4t44 -8l13 -4v-1045q-39 -16 -129 -16q-37 0 -69.5 4t-46.5 8l-13 4v62q-107 -98 -280 -98q-155 0 -238.5 84.5t-83.5 226.5z" />
    <glyph glyph-name="v" unicode="v" horiz-adv-x="1073" 
d="M297 1061l188 -594q16 -52 30 -109.5t20 -88.5l6 -31h8q24 110 63 231l191 592q43 16 117 16q36 0 65.5 -4t40.5 -8l12 -4l-340 -1045q-67 -16 -159 -16q-44 0 -84 4t-58 8l-18 4l-348 1045q49 16 133 16q40 0 73 -4t47 -8z" />
    <glyph glyph-name="w" unicode="w" horiz-adv-x="1634" 
d="M995 16l-121 488q-37 146 -49 313h-8q-12 -171 -51 -313l-125 -488q-63 -16 -152 -16q-92 0 -155 16l-293 1045q47 16 129 16q39 0 67 -4t36 -8l8 -4l165 -594q27 -96 43 -215h7q21 126 45 217l151 592q66 16 144 16q37 0 69 -4t45 -8l13 -4l145 -590q27 -117 41 -219h6
q16 93 51 217l166 592q41 16 113 16q35 0 62 -4t37 -8l9 -4l-293 -1045q-68 -16 -151 -16t-154 16z" />
    <glyph glyph-name="x" unicode="x" horiz-adv-x="1044" 
d="M373 551l-324 510q51 16 139 16q42 0 77.5 -4t50.5 -8l14 -4l202 -318l207 318q47 16 123 16q37 0 70.5 -4t47.5 -8l15 -4l-325 -494l354 -551q-51 -16 -139 -16q-42 0 -77.5 4t-49.5 8l-15 4l-231 359l-236 -359q-46 -16 -122 -16q-37 0 -70.5 4t-48.5 8l-15 4z" />
    <glyph glyph-name="y" unicode="y" horiz-adv-x="1085" 
d="M1049 1061l-361 -1178q-22 -70 -41 -118t-44.5 -96.5t-55 -79t-69 -55t-90 -35.5t-114.5 -11q-32 0 -61.5 6t-42.5 12l-14 5q-19 43 -19 96q0 25 4.5 50.5t9.5 38.5l5 13q51 -8 94 -8q35 0 54.5 3t42.5 14.5t39 35t34 64t37 102.5l24 80q-44 0 -80 16l-368 1045
q49 16 133 16q39 0 72.5 -4t47.5 -8l13 -4l193 -549q24 -68 41.5 -132.5t23.5 -95.5l6 -30h8q19 102 66 258l166 549q41 16 125 16q33 0 63 -4t44 -8z" />
    <glyph glyph-name="z" unicode="z" horiz-adv-x="970" 
d="M362 211h504q17 -39 17 -107q0 -27 -4.5 -53t-8.5 -39l-4 -12h-776q-14 49 -14 111q0 57 14 100l510 655h-483q-15 48 -15 109q0 28 4 53.5t8 37.5l3 11h753q15 -40 15 -98q0 -63 -15 -113z" />
    <glyph glyph-name="braceleft" unicode="{" horiz-adv-x="729" 
d="M483 1659h164q15 -43 15 -94q0 -43 -15 -97h-112q-86 0 -86 -86v-479q0 -147 -91 -217q91 -70 91 -219v-479q0 -86 86 -86h112q15 -46 15 -99q0 -49 -15 -92h-164q-133 0 -202.5 73t-69.5 200v520q0 86 -86 86h-51q-15 44 -15 96q0 40 15 94h51q86 0 86 86v520
q0 127 69.5 200t202.5 73z" />
    <glyph glyph-name="bar" unicode="|" horiz-adv-x="598" 
d="M170 1602q39 16 129 16q37 0 69.5 -4t45.5 -8l14 -4v-1989q-45 -16 -129 -16q-40 0 -72.5 4t-44.5 8l-12 4v1989z" />
    <glyph glyph-name="braceright" unicode="}" horiz-adv-x="729" 
d="M82 1659h164q133 0 202.5 -73t69.5 -200v-520q0 -86 86 -86h51q15 -54 15 -94q0 -52 -15 -96h-51q-86 0 -86 -86v-520q0 -127 -69.5 -200t-202.5 -73h-164q-14 41 -14 92q0 56 14 99h113q86 0 86 86v479q0 149 88 219q-88 70 -88 217v479q0 86 -86 86h-113q-14 51 -14 97
q0 53 14 94z" />
    <glyph glyph-name="asciitilde" unicode="~" horiz-adv-x="1054" 
d="M365 520q-27 0 -51.5 -8t-40 -19t-27 -22t-16.5 -19l-5 -8q-45 15 -73.5 48t-34.5 75q3 6 8.5 16t27 35t48 44t71.5 35t97 16q45 0 89 -16.5t74 -36t72.5 -36t85.5 -16.5q27 0 51.5 8t40 19t26.5 22t16 19l5 8q45 -15 74 -48t35 -75q-3 -6 -8.5 -15.5t-27 -34.5
t-48 -44.5t-71.5 -35t-97 -15.5q-45 0 -89 16t-74 36t-72.5 36t-85.5 16z" />
    <glyph glyph-name="exclamdown" unicode="&#xa1;" horiz-adv-x="552" 
d="M147 1044q45 17 129 17q40 0 72.5 -4.5t45.5 -8.5l12 -4v-235q-40 -16 -130 -16q-37 0 -69.5 4t-46.5 8l-13 4v235zM180 637q35 14 94 14q26 0 51 -3.5t37 -7.5l11 -3l43 -1034q-50 -17 -140 -17q-37 0 -72 4t-51 8l-16 5z" />
    <glyph glyph-name="cent" unicode="&#xa2;" horiz-adv-x="952" 
d="M457 1284q45 21 104 21q30 0 57 -5.5t38 -10.5l12 -5l-19 -190q64 -5 113.5 -17.5t67.5 -22.5l18 -10q-3 -101 -72 -170q-70 27 -172 27q-129 0 -184 -87.5t-55 -274.5q0 -184 58.5 -269.5t188.5 -85.5q46 0 92.5 7t69.5 15l23 7q65 -58 71 -170q-7 -5 -22 -13t-72 -24
t-125 -22l19 -191q-39 -20 -107 -20q-26 0 -52 5t-39 10l-13 5l16 193q-373 48 -373 553q0 502 373 553z" />
    <glyph glyph-name="sterling" unicode="&#xa3;" horiz-adv-x="1103" 
d="M852 600h-315q13 -101 -16 -190.5t-122 -178.5h586q21 -44 21 -114q0 -32 -5 -61.5t-11 -42.5l-5 -13h-850v231q106 103 136.5 190.5t11.5 178.5h-168q-15 33 -15 92q0 24 4 46t8 32l3 10h114q-43 135 -43 246q0 102 33 178t94 121.5t141 67.5t179 22q185 0 362 -76
q12 -115 -73 -184q-120 44 -244 47q-225 0 -225 -182q0 -94 43 -240h356q14 -33 14 -86q0 -24 -3.5 -47.5t-6.5 -34.5z" />
    <glyph glyph-name="currency" unicode="&#xa4;" horiz-adv-x="1226" 
d="M997 47l-151 150q-104 -68 -232 -68q-125 0 -233 68l-150 -150q-38 2 -81 47q-18 18 -29 37.5t-13 30.5l-2 10l152 152q-70 107 -70 231q0 120 70 231l-152 152q5 39 46 80q19 20 39 31t30 13l10 1l150 -152q106 70 233 70q125 0 232 -70l151 152q37 0 80 -45
q18 -18 29.5 -38t13.5 -31l2 -11l-151 -152q69 -106 69 -231q0 -124 -69 -233l151 -150q-2 -41 -43 -82q-19 -20 -39.5 -31t-31.5 -11zM614 807q-105 0 -178.5 -73.5t-73.5 -178.5t73.5 -178.5t178.5 -73.5q106 0 179 73t73 179t-73 179t-179 73z" />
    <glyph glyph-name="yen" unicode="&#xa5;" horiz-adv-x="1282" 
d="M975 1384q49 17 133 17q33 0 64 -4.5t46 -8.5l15 -4l-393 -651h235q12 -37 12 -78q0 -39 -12 -80h-321v-139h321q12 -34 12 -76q0 -40 -12 -81h-321v-261q-43 -18 -121 -18q-34 0 -63.5 4.5t-42.5 9.5l-13 4v261h-328q-12 43 -12 83q0 36 12 74h328v139h-328
q-12 44 -12 80q0 41 12 78h240l-369 645q50 23 144 23q39 0 73.5 -5.5t49.5 -10.5l14 -5l307 -555z" />
    <glyph glyph-name="brokenbar" unicode="&#xa6;" horiz-adv-x="585" 
d="M164 739v863q39 16 129 16q37 0 69.5 -4t45.5 -8l14 -4v-863q-45 -16 -129 -16q-40 0 -72.5 4t-44.5 8zM164 -387v883q39 16 129 16q37 0 69.5 -4t45.5 -8l14 -4v-883q-45 -16 -129 -16q-40 0 -72.5 4t-44.5 8z" />
    <glyph glyph-name="section" unicode="&#xa7;" horiz-adv-x="993" 
d="M651 281q0 37 -29.5 62.5t-77 39.5t-104.5 26.5t-114 31t-104.5 45.5t-77 77t-29.5 119q0 117 96 221q-76 76 -76 205q0 150 106 227.5t285 77.5q150 0 289 -47q5 -42 -7.5 -87.5t-43.5 -72.5q-101 27 -203 27q-89 0 -147 -28t-58 -93q0 -33 22.5 -56.5t59 -35.5
t83.5 -24t95.5 -22t95.5 -30t83.5 -47t59 -74t22.5 -110q0 -106 -89 -207q101 -80 101 -230q0 -77 -34 -135.5t-93.5 -93t-133.5 -51t-161 -16.5q-86 0 -171.5 13t-127.5 27l-43 13q-10 45 3 91.5t50 72.5q129 -33 260 -33q213 0 213 117zM367 819q-37 -50 -37 -104
q0 -24 13 -42t32.5 -29t51.5 -20.5t60.5 -15t70 -14t69.5 -16.5q35 46 35 102q0 28 -16.5 47.5t-49 32t-65 20.5t-82.5 18.5t-82 20.5z" />
    <glyph glyph-name="dieresis" unicode="&#xa8;" horiz-adv-x="931" 
d="M383 1464v-198q-39 -15 -111 -15q-34 0 -61.5 3.5t-38.5 7.5l-10 4v198q34 15 110 15q32 0 60 -3.5t40 -7.5zM754 1464v-198q-39 -15 -111 -15q-34 0 -61.5 3.5t-38.5 7.5l-11 4v198q35 15 111 15q32 0 60 -3.5t39 -7.5z" />
    <glyph glyph-name="copyright" unicode="&#xa9;" horiz-adv-x="1634" 
d="M817 -20q-195 0 -360 95.5t-261 260.5t-96 360q0 146 56.5 279t152.5 229t229 152.5t279 56.5t279 -56.5t229 -152.5t152.5 -229t56.5 -279q0 -195 -96 -360t-261 -260.5t-360 -95.5zM817 1247q-112 0 -214 -43.5t-176 -117.5t-117.5 -176t-43.5 -214t43.5 -214
t117.5 -176t176 -117.5t214 -43.5t214 43.5t176 117.5t117.5 176t43.5 214t-43.5 214t-117.5 176t-176 117.5t-214 43.5zM825 301q-179 0 -272.5 106t-93.5 304q0 201 93 304t273 103q60 0 115 -11t80 -23l24 -11q0 -84 -59 -135q-71 29 -143 29q-90 0 -140.5 -59
t-50.5 -199q0 -139 50 -193.5t141 -54.5q36 0 73.5 5.5t57.5 11.5l20 5q62 -39 62 -135q-10 -5 -28.5 -13t-78.5 -21t-123 -13z" />
    <glyph glyph-name="ordfeminine" unicode="&#xaa;" horiz-adv-x="741" 
d="M145 1235q11 6 31.5 15t81.5 24.5t119 15.5q136 0 195 -57t59 -178v-424q-25 -17 -72 -17q-17 0 -35 4t-28 8l-9 5l-16 45q-59 -72 -176 -72q-93 0 -146 56t-53 163q0 207 250 207l109 -4v27q0 40 -24.5 64t-74.5 24q-35 0 -74.5 -7.5t-61.5 -15.5l-23 -8q-49 56 -52 125
zM455 903q-39 2 -90 2q-91 0 -91 -82q0 -44 20 -63t60 -19q52 0 76.5 41t24.5 95v26zM113 500h512q24 -68 0 -150h-512q-22 81 0 150z" />
    <glyph glyph-name="guillemotleft" unicode="&#xab;" horiz-adv-x="1093" 
d="M104 659l412 383q63 -51 84 -149l-289 -342l289 -340q-22 -99 -84 -150l-412 377q-18 39 -18 105q0 32 4.5 61t9.5 42zM526 653l392 365q57 -45 79 -141l-274 -326l274 -324q-22 -96 -79 -141l-392 358q-18 38 -18 99q0 30 4.5 57.5t9.5 39.5z" />
    <glyph glyph-name="logicalnot" unicode="&#xac;" horiz-adv-x="1245" 
d="M1102 899v-553q-41 -22 -109 -22q-30 0 -57.5 5.5t-39.5 10.5l-13 6v336h-764q-23 45 -23 106q0 29 6 57t12 41l5 13h983z" />
    <glyph glyph-name="uni00AD" unicode="&#xad;" horiz-adv-x="487" 
 />
    <glyph glyph-name="registered" unicode="&#xae;" horiz-adv-x="1077" 
d="M539 516q-186 0 -317.5 131.5t-131.5 317.5t131.5 317t317.5 131t317 -131t131 -317t-131 -317.5t-317 -131.5zM539 1303q-140 0 -239 -98.5t-99 -239.5t99 -239.5t239 -98.5q141 0 239.5 98.5t98.5 239.5t-98.5 239.5t-239.5 98.5zM567 1206q73 0 118.5 -40t45.5 -105
q0 -46 -24 -82t-66 -51l119 -172q-31 -17 -70 -17q-16 0 -29.5 2.5t-19.5 5.5l-6 3l-117 165h-33v-165q-26 -11 -53 -11q-15 0 -28.5 2.5t-19.5 5.5l-7 3v456h190zM485 1006h72q61 0 61 55t-61 55h-72v-110z" />
    <glyph glyph-name="macron" unicode="&#xaf;" horiz-adv-x="833" 
d="M733 1290h-661q-22 80 0 148h661q24 -67 0 -148z" />
    <glyph glyph-name="degree" unicode="&#xb0;" horiz-adv-x="710" 
d="M86 1264q0 106 73 186t199 80q125 0 196 -77.5t71 -182.5q0 -106 -71 -183t-196 -77q-130 0 -201 74.5t-71 179.5zM475 1268q0 50 -31 86.5t-88 36.5q-58 0 -90.5 -37.5t-32.5 -87.5q0 -48 32 -83.5t91 -35.5q57 0 88 35.5t31 85.5z" />
    <glyph glyph-name="plusminus" unicode="&#xb1;" horiz-adv-x="1036" 
d="M424 729h-285q-14 37 -14 94q0 25 3.5 49t7.5 35l3 11h285v223q37 14 94 14q25 0 48.5 -3.5t34.5 -7.5l11 -3v-223h285q14 -38 14 -95q0 -25 -3.5 -48.5t-7.5 -34.5l-3 -11h-285v-223q-37 -14 -94 -14q-25 0 -48.5 3.5t-34.5 6.5l-11 4v223zM897 242h-758q-14 37 -14 94
q0 25 3.5 48.5t7.5 34.5l3 11h758q14 -37 14 -94q0 -25 -3.5 -48.5t-7.5 -34.5z" />
    <glyph glyph-name="twosuperior" unicode="&#xb2;" horiz-adv-x="616" 
d="M51 793q0 77 34 135t82 91t96 59t82 56.5t34 67.5q0 76 -119 76q-62 0 -123 -18q-49 52 -43 126q88 35 205 35q111 0 184.5 -53.5t73.5 -155.5q0 -60 -24.5 -104.5t-64.5 -73.5t-82.5 -52.5t-88.5 -55.5t-72 -68h297q15 -37 15 -76q0 -36 -15 -73h-463q-8 37 -8 84z" />
    <glyph glyph-name="threesuperior" unicode="&#xb3;" horiz-adv-x="608" 
d="M547 905q0 -207 -293 -207q-58 0 -109 11t-73 23l-21 11q0 80 47 121q66 -22 148 -22q125 0 125 84q0 42 -23.5 61t-79.5 19h-98q-24 68 0 137h98q82 0 82 63q0 74 -100 74q-32 0 -67 -5t-53 -10l-19 -5q-46 43 -43 122q77 39 196 39q121 0 191.5 -50t70.5 -140
q0 -107 -84 -152q105 -46 105 -174z" />
    <glyph glyph-name="acute" unicode="&#xb4;" horiz-adv-x="458" 
d="M432 1567l-256 -267q-99 17 -143 78l176 281q61 7 128 -21t95 -71z" />
    <glyph glyph-name="mu" unicode="&#xb5;" horiz-adv-x="1193" 
d="M768 1061q45 16 129 16q40 0 72 -4t45 -8l12 -4v-1045q-39 -16 -129 -16q-37 0 -69.5 4t-45.5 8l-14 4v39q-84 -75 -213 -75q-104 0 -174 59q14 -136 37.5 -260t39.5 -180l17 -56q-50 -41 -138 -52t-144 11q-27 128 -27 469v1090q45 16 129 16q40 0 72 -4t45 -8l12 -4
v-725q0 -69 40 -108.5t124 -39.5q101 0 180 76v797z" />
    <glyph glyph-name="paragraph" unicode="&#xb6;" horiz-adv-x="1333" 
d="M489 -453v973q-107 2 -193 42t-138.5 104.5t-80 143.5t-26.5 165q2 88 31.5 168.5t84.5 145.5t143 104t196 39h184v-1885q-34 -12 -100 -12q-31 0 -56.5 3t-35.5 6zM1153 1419v-1872q-34 -12 -100 -12q-31 0 -56.5 3t-34.5 6l-10 3v1872q31 13 101 13q29 0 54 -3t35 -7z
" />
    <glyph glyph-name="periodcentered" unicode="&#xb7;" horiz-adv-x="479" 
d="M350 682v-199q-38 -16 -110 -16q-35 0 -62.5 4t-37.5 8l-11 4v199q33 16 111 16q32 0 59.5 -4t38.5 -8z" />
    <glyph glyph-name="cedilla" unicode="&#xb8;" horiz-adv-x="606" 
d="M213 109l135 -37l-22 -125q109 0 157.5 -54.5t48.5 -146.5q0 -101 -68 -154t-188 -53q-56 0 -103.5 12.5t-66.5 24.5l-20 12q-2 32 12 61t39 44q56 -27 125 -27q117 0 117 88q0 38 -24.5 61t-75.5 23h-80l-29 33z" />
    <glyph glyph-name="onesuperior" unicode="&#xb9;" horiz-adv-x="507" 
d="M37 1284q69 18 114.5 45t84.5 70q34 10 86 10q33 0 81 -10v-682q-45 -10 -81 -10q-54 0 -95 10v399q0 57 2 82q-63 -43 -147 -53q-24 24 -36 62t-9 77z" />
    <glyph glyph-name="ordmasculine" unicode="&#xba;" horiz-adv-x="763" 
d="M94 948q0 183 72.5 262.5t214.5 79.5t215.5 -79t73.5 -263t-73.5 -264t-215.5 -80q-143 0 -215 79.5t-72 264.5zM483 948q0 119 -24 160t-78 41q-37 0 -58 -14.5t-34 -59.5t-13 -127t13 -126.5t34 -58t58 -13.5q36 0 56.5 13.5t33 58t12.5 126.5zM123 500h512
q12 -34 12 -72q0 -40 -12 -78h-512q-10 31 -10 78q0 43 10 72z" />
    <glyph glyph-name="guillemotright" unicode="&#xbb;" horiz-adv-x="1093" 
d="M578 1042l411 -383q19 -44 19 -116q0 -29 -5 -55.5t-9 -37.5l-5 -12l-411 -377q-62 51 -84 150l288 340l-288 342q21 98 84 149zM176 1018l391 -365q19 -42 19 -110q0 -27 -5 -52t-9 -36l-5 -11l-391 -358q-58 46 -80 141l275 324l-275 326q22 95 80 141z" />
    <glyph glyph-name="onequarter" unicode="&#xbc;" horiz-adv-x="1396" 
d="M209 -6l788 1429q31 15 97 15q29 0 53 -4t33 -8l10 -3l-791 -1429q-39 -14 -96 -14q-24 0 -47.5 3.5t-35.5 6.5zM53 1284q69 18 114.5 45t84.5 70q34 10 86 10q34 0 82 -10v-682q-45 -10 -82 -10q-53 0 -94 10v399q0 57 2 82q-63 -43 -148 -53q-24 24 -36 62t-9 77z
M1245 283h76q10 -29 10 -64q0 -23 -10 -61h-76v-148q-36 -10 -74 -10q-39 0 -73 10v148h-336q-10 30 -10 57q0 34 8 55l319 420q41 12 84 12q45 0 82 -12v-407zM1098 500l-164 -217h164v217z" />
    <glyph glyph-name="onehalf" unicode="&#xbd;" horiz-adv-x="1495" 
d="M997 1423q31 15 97 15q29 0 53 -4t33 -8l10 -3l-791 -1429q-39 -14 -96 -14q-24 0 -47.5 3.5t-35.5 6.5l-11 4zM252 1399q34 10 86 10q34 0 82 -10v-682q-45 -10 -82 -10q-53 0 -94 10v399q0 57 2 82q-63 -43 -148 -53q-24 24 -36 62t-9 77q69 18 114.5 45t84.5 70z
M956 678q88 35 205 35q111 0 184.5 -53.5t73.5 -155.5q0 -60 -24.5 -104.5t-64.5 -73.5t-82.5 -52.5t-88.5 -55.5t-72 -68h297q15 -38 15 -76q0 -36 -15 -74h-462q-9 37 -9 84q0 65 24.5 117.5t60.5 82.5t79 58t79 47t60.5 46t24.5 59q0 75 -113 75q-72 3 -129 -18
q-49 52 -43 127z" />
    <glyph glyph-name="threequarters" unicode="&#xbe;" horiz-adv-x="1484" 
d="M1085 1423q31 15 97 15q29 0 53 -4t33 -8l10 -3l-791 -1429q-39 -14 -96 -14q-24 0 -47.5 3.5t-35.5 6.5l-11 4zM96 1382q78 39 197 39q121 0 191.5 -50t70.5 -140q0 -107 -84 -152q104 -46 104 -174q0 -207 -292 -207q-58 0 -109 11t-72 23l-22 11q0 80 47 121
q65 -22 147 -22q125 0 125 84q0 42 -23 61t-79 19h-98q-24 68 0 137h98q82 0 82 63q0 74 -100 74q-32 0 -67 -5t-54 -10l-19 -5q-46 43 -43 122zM1167 690q41 12 84 12q45 0 82 -12v-407h76q10 -29 10 -64q0 -23 -10 -61h-76v-148q-36 -10 -73 -10q-40 0 -74 10v148h-336
q-10 33 -10 61q0 30 8 51zM1022 283h164v217z" />
    <glyph glyph-name="questiondown" unicode="&#xbf;" horiz-adv-x="882" 
d="M389 813v236q45 16 129 16q40 0 72 -4t44 -8l13 -4v-236q-39 -16 -129 -16q-37 0 -69.5 4t-46.5 8zM63 25q0 81 19.5 143t51 101t69.5 70t76.5 58t70 57t51 75t19.5 104q28 14 96 14q28 0 53.5 -3.5t36.5 -7.5l12 -3q0 -86 -16 -152t-41.5 -105t-56 -69.5t-61 -55
t-56 -51t-41.5 -68t-16 -97.5q0 -51 16 -86t46 -53t64.5 -25.5t80.5 -7.5q61 0 114.5 11.5t76.5 23.5l24 12q91 -67 79 -184q-13 -8 -39 -20.5t-112.5 -33t-181.5 -20.5q-90 0 -166 20t-137.5 62.5t-96.5 116.5t-35 174z" />
    <glyph glyph-name="Agrave" unicode="&#xc0;" horiz-adv-x="1363" 
d="M645 1892l176 -280q-44 -61 -143 -78l-256 266q28 43 95 71t128 21zM522 1456q68 19 160 19q44 0 84 -4.5t58 -9.5l18 -5l489 -1438q-47 -18 -143 -18q-39 0 -71 4.5t-44 9.5l-12 4l-111 328h-559l-110 -328q-45 -18 -127 -18q-35 0 -65 4.5t-43 9.5l-13 4zM676 1200h-8
q-21 -104 -62 -227l-143 -416h416l-140 416q-19 56 -35 113t-22 86z" />
    <glyph glyph-name="Aacute" unicode="&#xc1;" horiz-adv-x="1363" 
d="M559 1614l176 280q61 7 128 -21t95 -71l-256 -266q-99 17 -143 78zM522 1456q68 19 160 19q44 0 84 -4.5t58 -9.5l18 -5l489 -1438q-47 -18 -143 -18q-39 0 -71 4.5t-44 9.5l-12 4l-111 328h-559l-110 -328q-45 -18 -127 -18q-35 0 -65 4.5t-43 9.5l-13 4zM676 1200h-8
q-21 -104 -62 -227l-143 -416h416l-140 416q-19 56 -35 113t-22 86z" />
    <glyph glyph-name="Acircumflex" unicode="&#xc2;" horiz-adv-x="1363" 
d="M698 1890l295 -241q-49 -89 -119 -111l-202 129l-201 -127q-71 22 -119 109l293 241h53zM522 1456q68 19 160 19q44 0 84 -4.5t58 -9.5l18 -5l489 -1438q-47 -18 -143 -18q-39 0 -71 4.5t-44 9.5l-12 4l-111 328h-559l-110 -328q-45 -18 -127 -18q-35 0 -65 4.5t-43 9.5
l-13 4zM676 1200h-8q-21 -104 -62 -227l-143 -416h416l-140 416q-19 56 -35 113t-22 86z" />
    <glyph glyph-name="Atilde" unicode="&#xc3;" horiz-adv-x="1363" 
d="M367 1645q2 5 6.5 12.5t20.5 28t35.5 36t52 30t69.5 17.5q53 3 96.5 -15t79 -36t70.5 -16q24 2 45 14.5t30 24.5l9 12q36 -9 68 -33t46 -55q-3 -5 -8 -12.5t-23.5 -27t-39 -34.5t-54.5 -29t-71 -16q-42 -3 -78 7.5t-56.5 24t-48 24t-55.5 8.5q-29 -2 -51 -14t-30 -24
l-7 -11q-85 17 -106 84zM522 1456q68 19 160 19q44 0 84 -4.5t58 -9.5l18 -5l489 -1438q-47 -18 -143 -18q-39 0 -71 4.5t-44 9.5l-12 4l-111 328h-559l-110 -328q-45 -18 -127 -18q-35 0 -65 4.5t-43 9.5l-13 4zM676 1200h-8q-21 -104 -62 -227l-143 -416h416l-140 416
q-19 56 -35 113t-22 86z" />
    <glyph glyph-name="Adieresis" unicode="&#xc4;" horiz-adv-x="1363" 
d="M379 1749q34 14 110 14q32 0 59.5 -3.5t39.5 -7.5l12 -3v-199q-39 -14 -111 -14q-34 0 -61.5 3.5t-37.5 6.5l-11 4v199zM750 1749q34 14 110 14q32 0 59.5 -3.5t39.5 -7.5l12 -3v-199q-39 -14 -111 -14q-34 0 -61.5 3.5t-38.5 6.5l-10 4v199zM522 1456q68 19 160 19
q44 0 84 -4.5t58 -9.5l18 -5l489 -1438q-47 -18 -143 -18q-39 0 -71 4.5t-44 9.5l-12 4l-111 328h-559l-110 -328q-45 -18 -127 -18q-35 0 -65 4.5t-43 9.5l-13 4zM676 1200h-8q-21 -104 -62 -227l-143 -416h416l-140 416q-19 56 -35 113t-22 86z" />
    <glyph glyph-name="Aring" unicode="&#xc5;" horiz-adv-x="1363" 
d="M854 1417l477 -1399q-47 -18 -143 -18q-39 0 -71 4.5t-44 9.5l-12 4l-111 328h-559l-110 -328q-45 -18 -127 -18q-35 0 -65 4.5t-43 9.5l-13 4l473 1391q-82 66 -82 182q0 108 74 169t178 61q102 0 178 -60.5t76 -169.5q0 -108 -76 -174zM791 1591q0 45 -31 77t-86 32
q-54 0 -83.5 -32.5t-29.5 -76.5q0 -45 29.5 -76.5t83.5 -31.5q55 0 86 32.5t31 75.5zM879 557l-140 416q-19 56 -35 113t-22 86l-6 28h-8q-21 -104 -62 -227l-143 -416h416z" />
    <glyph glyph-name="AE" unicode="&#xc6;" horiz-adv-x="1785" 
d="M889 1475h776q22 -56 20.5 -109.5t-20.5 -101.5h-522v-414h420q40 -111 0 -211h-420v-428h543q20 -54 20 -111t-20 -100h-785v346h-426l-192 -326q-62 -20 -144 -20q-90 0 -137 20zM600 557h301v508z" />
    <glyph glyph-name="Ccedilla" unicode="&#xc7;" horiz-adv-x="1157" 
d="M1081 160q11 -25 16.5 -52.5t4.5 -41.5v-15q-15 -8 -43 -19t-121.5 -30.5t-194.5 -21.5l-14 -74q109 0 158 -54.5t49 -146.5q0 -101 -68 -154t-188 -53q-56 0 -104 12t-68 24l-19 13q-1 32 13 61t39 44q56 -27 125 -27q116 0 116 88q0 38 -24.5 61t-75.5 23h-80l-29 33
l29 160q-243 37 -369.5 227t-126.5 520q0 371 158.5 564.5t462.5 193.5q101 0 189.5 -18t126.5 -36l38 -18q7 -43 -16 -102q-11 -28 -26.5 -50.5t-24.5 -30.5l-10 -9q-117 43 -248 43q-68 0 -122.5 -15t-103 -53t-80.5 -98t-50.5 -154.5t-18.5 -218.5t18.5 -217.5
t50.5 -152.5t80.5 -95.5t102.5 -50.5t123 -14q65 0 132 10.5t102 21.5l34 11q32 -29 57 -88z" />
    <glyph glyph-name="Egrave" unicode="&#xc8;" horiz-adv-x="1132" 
d="M592 1534l-256 266q28 43 95 71t128 21l176 -280q-44 -61 -143 -78zM166 1475h846q20 -52 20 -99q0 -62 -20 -112h-584v-414h481q21 -58 21 -102q0 -56 -21 -109h-481v-428h604q21 -58 21 -102q0 -57 -21 -109h-866v1475z" />
    <glyph glyph-name="Eacute" unicode="&#xc9;" horiz-adv-x="1132" 
d="M827 1804l-256 -266q-99 17 -143 78l176 280q61 7 128 -21t95 -71zM166 1475h846q20 -52 20 -99q0 -62 -20 -112h-584v-414h481q21 -58 21 -102q0 -56 -21 -109h-481v-428h604q21 -58 21 -102q0 -57 -21 -109h-866v1475z" />
    <glyph glyph-name="Ecircumflex" unicode="&#xca;" horiz-adv-x="1134" 
d="M618 1890l295 -241q-49 -89 -118 -111l-203 129l-201 -127q-71 22 -119 109l293 241h53zM168 1475h846q20 -52 20 -99q0 -62 -20 -112h-584v-414h481q21 -58 21 -102q0 -56 -21 -109h-481v-428h604q21 -58 21 -102q0 -57 -21 -109h-866v1475z" />
    <glyph glyph-name="Edieresis" unicode="&#xcb;" horiz-adv-x="1134" 
d="M506 1749v-199q-39 -14 -111 -14q-34 0 -61.5 3.5t-37.5 6.5l-11 4v199q34 14 110 14q32 0 59.5 -3.5t39.5 -7.5zM877 1749v-199q-39 -14 -111 -14q-34 0 -61.5 3.5t-38.5 6.5l-11 4v199q35 14 111 14q32 0 59.5 -3.5t39.5 -7.5zM168 1475h846q20 -52 20 -99
q0 -62 -20 -112h-584v-414h481q21 -58 21 -102q0 -56 -21 -109h-481v-428h604q21 -58 21 -102q0 -57 -21 -109h-866v1475z" />
    <glyph glyph-name="Igrave" unicode="&#xcc;" horiz-adv-x="589" 
d="M303 1534l-256 266q28 43 95 71t128 21l176 -280q-44 -61 -143 -78zM164 18v1438q43 19 129 19q39 0 72.5 -4.5t46.5 -9.5l14 -5v-1438q-47 -18 -131 -18q-42 0 -74.5 4.5t-44.5 9.5z" />
    <glyph glyph-name="Iacute" unicode="&#xcd;" horiz-adv-x="589" 
d="M518 1804l-256 -266q-99 17 -143 78l176 280q61 7 128 -21t95 -71zM164 18v1438q43 19 129 19q39 0 72.5 -4.5t46.5 -9.5l14 -5v-1438q-47 -18 -131 -18q-42 0 -74.5 4.5t-44.5 9.5z" />
    <glyph glyph-name="Icircumflex" unicode="&#xce;" horiz-adv-x="589" 
d="M322 1890l294 -241q-49 -89 -118 -111l-203 129l-201 -127q-71 22 -119 109l293 241h54zM164 18v1438q43 19 129 19q39 0 72.5 -4.5t46.5 -9.5l14 -5v-1438q-47 -18 -131 -18q-42 0 -74.5 4.5t-44.5 9.5z" />
    <glyph glyph-name="Idieresis" unicode="&#xcf;" horiz-adv-x="589" 
d="M221 1749v-199q-38 -14 -110 -14q-34 0 -61.5 3.5t-38.5 6.5l-11 4v199q35 14 111 14q32 0 59.5 -3.5t39.5 -7.5zM592 1749v-199q-39 -14 -111 -14q-34 0 -61.5 3.5t-37.5 6.5l-11 4v199q34 14 110 14q32 0 59.5 -3.5t39.5 -7.5zM164 18v1438q43 19 129 19
q39 0 72.5 -4.5t46.5 -9.5l14 -5v-1438q-47 -18 -131 -18q-42 0 -74.5 4.5t-44.5 9.5z" />
    <glyph glyph-name="Eth" unicode="&#xd0;" horiz-adv-x="1402" 
d="M207 1475h481q606 0 606 -738q0 -737 -606 -737h-481v643h-158q-11 40 -11 90t11 84h158v658zM469 1257v-440h266q12 -36 11.5 -87t-11.5 -87h-266v-426h201q64 0 112.5 12.5t94 46.5t74.5 91t46 150t17 220t-17 220.5t-46 150.5t-74.5 91t-94 46t-112.5 12h-201z" />
    <glyph glyph-name="Ntilde" unicode="&#xd1;" horiz-adv-x="1435" 
d="M872 1706q29 0 54.5 13t35.5 27l11 13q34 -15 59 -48t31 -69q-3 -4 -9 -11t-25.5 -25t-41.5 -32t-57 -25t-72 -11q-53 0 -93 16.5t-72.5 33t-67.5 16.5q-29 0 -54.5 -13.5t-36.5 -26.5l-10 -14q-78 43 -90 117q3 4 9 11t25.5 25.5t41.5 32t57 25t72 11.5q53 0 93 -16.5
t72.5 -33t67.5 -16.5zM958 18l-426 824q-35 64 -68 139t-49 119l-16 43h-8q17 -162 17 -375v-750q-39 -18 -123 -18q-36 0 -66 4.5t-41 9.5l-12 4v1438q56 19 158 19q46 0 85 -4.5t55 -9.5l15 -5l422 -819q36 -65 70 -142t51 -121l16 -44h9q-17 172 -17 381v745
q37 19 123 19q38 0 68 -4.5t41 -9.5l10 -5v-1438q-50 -18 -154 -18q-45 0 -85 4.5t-57 9.5z" />
    <glyph glyph-name="Ograve" unicode="&#xd2;" horiz-adv-x="1396" 
d="M705 1892l176 -280q-44 -61 -144 -78l-256 266q28 43 95.5 71t128.5 21zM106 737q0 382 156.5 570t435.5 188q280 0 436 -186.5t156 -571.5q0 -387 -154 -572t-438 -185t-438 185t-154 572zM1014 737q0 128 -14.5 223t-40.5 155.5t-66.5 97t-87 51t-107.5 14.5
q-75 0 -129.5 -24t-98 -83t-65.5 -167t-22 -267q0 -127 15 -222t41.5 -155t67 -97t86.5 -51.5t105 -14.5q77 0 131.5 24t98 83t65 167t21.5 266z" />
    <glyph glyph-name="Oacute" unicode="&#xd3;" horiz-adv-x="1396" 
d="M635 1669l176 281q61 7 128 -21t95 -71l-256 -267q-99 17 -143 78zM106 737q0 382 156.5 570t435.5 188q280 0 436 -186.5t156 -571.5q0 -387 -154 -572t-438 -185t-438 185t-154 572zM1014 737q0 128 -14.5 223t-40.5 155.5t-66.5 97t-87 51t-107.5 14.5
q-75 0 -129.5 -24t-98 -83t-65.5 -167t-22 -267q0 -127 15 -222t41.5 -155t67 -97t86.5 -51.5t105 -14.5q77 0 131.5 24t98 83t65 167t21.5 266z" />
    <glyph glyph-name="Ocircumflex" unicode="&#xd4;" horiz-adv-x="1396" 
d="M727 1890l295 -241q-49 -89 -119 -111l-203 129l-200 -127q-71 22 -119 109l293 241h53zM106 737q0 382 156.5 570t435.5 188q280 0 436 -186.5t156 -571.5q0 -387 -154 -572t-438 -185t-438 185t-154 572zM1014 737q0 128 -14.5 223t-40.5 155.5t-66.5 97t-87 51
t-107.5 14.5q-75 0 -129.5 -24t-98 -83t-65.5 -167t-22 -267q0 -127 15 -222t41.5 -155t67 -97t86.5 -51.5t105 -14.5q77 0 131.5 24t98 83t65 167t21.5 266z" />
    <glyph glyph-name="Otilde" unicode="&#xd5;" horiz-adv-x="1396" 
d="M829 1741q29 1 54 15t35 28l10 14q34 -13 60 -46t34 -69q-3 -4 -8.5 -11.5t-24.5 -26t-40.5 -32.5t-56 -26.5t-71.5 -13.5q-53 -2 -123.5 28t-111.5 29q-29 -1 -54 -15t-35 -28l-10 -14q-79 39 -94 115q3 4 8.5 11.5t24.5 26t40.5 32.5t56 26.5t71.5 13.5q68 2 132.5 -28
t102.5 -29zM698 -20q-284 0 -438 185t-154 572q0 382 156.5 570t435.5 188q280 0 436 -186.5t156 -571.5q0 -387 -154 -572t-438 -185zM698 1278q-75 0 -129.5 -24t-98 -83t-65.5 -167t-22 -267q0 -127 15 -222t41.5 -155t67 -97t86.5 -51.5t105 -14.5q77 0 131.5 24t98 83
t65 167t21.5 266q0 128 -14.5 223t-40.5 155.5t-66.5 97t-87 51t-107.5 14.5z" />
    <glyph glyph-name="Odieresis" unicode="&#xd6;" horiz-adv-x="1396" 
d="M408 1769q34 15 110 15q32 0 60 -4t40 -8l11 -3v-198q-39 -15 -111 -15q-34 0 -61.5 4t-38.5 8l-10 3v198zM778 1769q35 15 111 15q32 0 59.5 -4t39.5 -8l11 -3v-198q-38 -15 -110 -15q-34 0 -61.5 4t-38.5 8l-11 3v198zM106 737q0 382 156.5 570t435.5 188
q280 0 436 -186.5t156 -571.5q0 -387 -154 -572t-438 -185t-438 185t-154 572zM1014 737q0 128 -14.5 223t-40.5 155.5t-66.5 97t-87 51t-107.5 14.5q-75 0 -129.5 -24t-98 -83t-65.5 -167t-22 -267q0 -127 15 -222t41.5 -155t67 -97t86.5 -51.5t105 -14.5q77 0 131.5 24
t98 83t65 167t21.5 266z" />
    <glyph glyph-name="multiply" unicode="&#xd7;" horiz-adv-x="974" 
d="M487 459l-241 -242q-37 14 -78 55q-18 18 -32 37.5t-18 30.5l-5 10l241 242l-241 242q14 36 55 77q18 18 37.5 32t30.5 19l10 5l241 -242l242 242q37 -15 78 -56q18 -18 32 -37.5t19 -29.5l4 -10l-241 -242l241 -242q-14 -37 -55 -78q-18 -18 -37.5 -32t-29.5 -18l-11 -5
z" />
    <glyph glyph-name="Oslash" unicode="&#xd8;" horiz-adv-x="1394" 
d="M997 1423l93 150q49 0 97 -23t79 -57l-121 -199q143 -191 143 -557q0 -387 -154 -572t-438 -185q-181 0 -309 73l-92 -151q-115 0 -178 82l125 202q-138 196 -138 551q0 382 156.5 570t435.5 188q178 0 301 -72zM877 1225q-67 53 -181 53q-75 0 -129.5 -24t-98 -83
t-65.5 -167t-22 -267q0 -169 27 -280zM983 1030l-471 -774q67 -59 184 -59q77 0 131.5 24t98 83t65 167t21.5 266q0 174 -29 293z" />
    <glyph glyph-name="Ugrave" unicode="&#xd9;" horiz-adv-x="1378" 
d="M684 1534l-256 266q28 43 95 71t128 21l176 -280q-44 -61 -143 -78zM1223 1456v-940q0 -255 -144 -395.5t-391 -140.5q-245 0 -388.5 142.5t-143.5 393.5v940q43 19 129 19q39 0 72.5 -4.5t46.5 -9.5l14 -5v-981q0 -130 71.5 -202t202.5 -72t202 72t71 202v981
q41 19 127 19q38 0 71 -4.5t47 -9.5z" />
    <glyph glyph-name="Uacute" unicode="&#xda;" horiz-adv-x="1378" 
d="M940 1804l-256 -266q-99 17 -143 78l176 280q61 7 128 -21t95 -71zM1223 1456v-940q0 -255 -144 -395.5t-391 -140.5q-245 0 -388.5 142.5t-143.5 393.5v940q43 19 129 19q39 0 72.5 -4.5t46.5 -9.5l14 -5v-981q0 -130 71.5 -202t202.5 -72t202 72t71 202v981
q41 19 127 19q38 0 71 -4.5t47 -9.5z" />
    <glyph glyph-name="Ucircumflex" unicode="&#xdb;" horiz-adv-x="1378" 
d="M737 1890l295 -241q-49 -89 -119 -111l-202 129l-201 -127q-71 22 -119 109l293 241h53zM1223 1456v-940q0 -255 -144 -395.5t-391 -140.5q-245 0 -388.5 142.5t-143.5 393.5v940q43 19 129 19q39 0 72.5 -4.5t46.5 -9.5l14 -5v-981q0 -130 71.5 -202t202.5 -72t202 72
t71 202v981q41 19 127 19q38 0 71 -4.5t47 -9.5z" />
    <glyph glyph-name="Udieresis" unicode="&#xdc;" horiz-adv-x="1378" 
d="M621 1749v-199q-39 -14 -111 -14q-34 0 -61.5 3.5t-38.5 6.5l-11 4v199q35 14 111 14q32 0 59.5 -3.5t39.5 -7.5zM991 1749v-199q-38 -14 -110 -14q-34 0 -61.5 3.5t-38.5 6.5l-11 4v199q35 14 111 14q32 0 59.5 -3.5t39.5 -7.5zM1223 1456v-940q0 -255 -144 -395.5
t-391 -140.5q-245 0 -388.5 142.5t-143.5 393.5v940q43 19 129 19q39 0 72.5 -4.5t46.5 -9.5l14 -5v-981q0 -130 71.5 -202t202.5 -72t202 72t71 202v981q41 19 127 19q38 0 71 -4.5t47 -9.5z" />
    <glyph glyph-name="Yacute" unicode="&#xdd;" horiz-adv-x="1314" 
d="M520 1616l176 280q61 7 128.5 -21t95.5 -71l-256 -266q-100 17 -144 78zM1012 1456q47 19 135 19q37 0 73.5 -4.5t53.5 -9.5l18 -5l-506 -842v-596q-43 -18 -127 -18q-42 0 -75.5 4.5t-46.5 9.5l-13 4v590l-491 848q56 19 160 19q42 0 78.5 -4.5t52.5 -9.5l16 -5
l334 -579z" />
    <glyph glyph-name="Thorn" unicode="&#xde;" horiz-adv-x="1245" 
d="M164 1456q43 19 129 19q39 0 72.5 -4.5t46.5 -9.5l14 -5v-248h287q206 0 331 -123t125 -325t-125 -325.5t-331 -123.5h-287v-293q-47 -18 -131 -18q-42 0 -74.5 4.5t-44.5 9.5l-12 4v1438zM426 991v-463h250q106 0 162.5 60.5t56.5 171.5t-56 171t-163 60h-250z" />
    <glyph glyph-name="germandbls" unicode="&#xdf;" horiz-adv-x="1171" 
d="M135 16v1123q0 200 117 298.5t334 98.5q102 0 182.5 -29t130.5 -79t75.5 -114t24.5 -138q0 -98 -43 -191q-7 -1 -18.5 -4t-41 -16t-52.5 -30.5t-41.5 -50t-18.5 -71.5q0 -46 24.5 -84.5t60.5 -65t79 -61t79 -70.5t60.5 -96t24.5 -135q0 -161 -96.5 -241t-259.5 -80
q-63 0 -122.5 10t-87.5 20l-28 10q-12 103 53 177q71 -23 144 -23q67 0 110 28t43 91q0 35 -18.5 66t-47.5 56t-64 51t-70.5 57t-64.5 66t-47.5 85.5t-18.5 109.5t19 110t46 81.5t54 52.5t46 30l19 9q20 58 20 102q-2 72 -42.5 118t-114.5 46q-96 0 -143.5 -47t-47.5 -147
v-1123q-45 -16 -129 -16q-40 0 -72 4t-44 8z" />
    <glyph glyph-name="agrave" unicode="&#xe0;" horiz-adv-x="1058" 
d="M459 1591l176 -280q-44 -61 -143 -78l-256 266q28 43 95 71t128 21zM154 1016q6 3 17.5 8.5t49.5 20t78 25t101 19.5t122 9q220 0 315 -92t95 -289v-701q-29 -16 -101 -16q-28 0 -54 4t-38 8l-12 4l-39 111q-72 -147 -299 -147q-150 0 -233.5 89t-83.5 265
q0 169 101.5 247t297.5 78q105 0 203 -10v58q0 82 -41.5 128t-143.5 46q-60 0 -125.5 -12.5t-101.5 -24.5l-35 -13q-32 21 -57 76q-11 24 -15 51.5t-3 42.5zM674 479q-102 8 -170 8q-166 0 -166 -153q0 -84 37.5 -121t109.5 -37q51 0 89.5 22t59 58.5t30.5 77t10 84.5v61z
" />
    <glyph glyph-name="aacute" unicode="&#xe1;" horiz-adv-x="1058" 
d="M360 1311l177 280q61 7 128 -21t95 -71l-256 -266q-100 17 -144 78zM154 1016q6 3 17.5 8.5t49.5 20t78 25t101 19.5t122 9q220 0 315 -92t95 -289v-701q-29 -16 -101 -16q-28 0 -54 4t-38 8l-12 4l-39 111q-72 -147 -299 -147q-150 0 -233.5 89t-83.5 265
q0 169 101.5 247t297.5 78q105 0 203 -10v56q0 85 -40.5 130.5t-144.5 45.5q-60 0 -125.5 -12.5t-101.5 -24.5l-35 -13q-32 21 -57 76q-11 24 -15 51.5t-3 42.5zM674 479q-102 8 -170 8q-166 0 -166 -153q0 -84 37.5 -121t109.5 -37q51 0 89.5 22t59 58.5t30.5 77t10 84.5
v61z" />
    <glyph glyph-name="acircumflex" unicode="&#xe2;" horiz-adv-x="1058" 
d="M565 1577l289 -236q-47 -86 -117 -108l-196 125l-197 -123q-71 22 -117 106l287 236h51zM154 1016q6 3 17.5 8.5t49.5 20t78 25t101 19.5t122 9q220 0 315 -92t95 -289v-701q-29 -16 -101 -16q-28 0 -54 4t-38 8l-12 4l-39 111q-72 -147 -299 -147q-150 0 -233.5 89
t-83.5 265q0 169 101.5 247t297.5 78q105 0 203 -10v64q0 82 -42 125t-143 43q-60 0 -125.5 -12.5t-101.5 -24.5l-35 -13q-32 21 -57 76q-11 24 -15 51.5t-3 42.5zM674 479q-102 8 -170 8q-166 0 -166 -153q0 -84 37.5 -121t109.5 -37q51 0 89.5 22t59 58.5t30.5 77t10 84.5
v61z" />
    <glyph glyph-name="atilde" unicode="&#xe3;" horiz-adv-x="1058" 
d="M221 1366q3 4 9 11t25.5 25t41.5 32t57 25t72 11q53 0 93 -16.5t72.5 -32.5t67.5 -16q29 0 54.5 13.5t36.5 26.5l10 13q34 -15 59 -48t31 -69q-3 -4 -9 -11t-25.5 -25t-41.5 -32t-57 -25t-72 -11q-53 0 -93 16.5t-72.5 33t-67.5 16.5q-29 0 -54.5 -13.5t-35.5 -27.5
l-11 -13q-78 43 -90 117zM154 1016q6 3 17.5 8.5t49.5 20t78 25t101 19.5t122 9q220 0 315 -92t95 -289v-701q-29 -16 -101 -16q-28 0 -54 4t-38 8l-12 4l-39 111q-72 -147 -299 -147q-150 0 -233.5 89t-83.5 265q0 169 101.5 247t297.5 78q105 0 203 -10v70
q0 85 -41.5 123.5t-143.5 38.5q-60 0 -125.5 -12.5t-101.5 -24.5l-35 -13q-32 21 -57 76q-11 24 -15 51.5t-3 42.5zM674 479q-102 8 -170 8q-166 0 -166 -153q0 -84 37.5 -121t109.5 -37q51 0 89.5 22t59 58.5t30.5 77t10 84.5v61z" />
    <glyph glyph-name="adieresis" unicode="&#xe4;" horiz-adv-x="1058" 
d="M244 1446q34 14 110 14q32 0 59.5 -3.5t39.5 -6.5l12 -4v-199q-39 -14 -111 -14q-34 0 -61.5 3.5t-38.5 7.5l-10 3v199zM614 1446q35 14 111 14q32 0 59.5 -3.5t39.5 -6.5l12 -4v-199q-39 -14 -111 -14q-34 0 -61.5 3.5t-38.5 7.5l-11 3v199zM154 1016q6 3 17.5 8.5
t49.5 20t78 25t101 19.5t122 9q220 0 315 -92t95 -289v-701q-29 -16 -101 -16q-28 0 -54 4t-38 8l-12 4l-39 111q-72 -147 -299 -147q-150 0 -233.5 89t-83.5 265q0 169 101.5 247t297.5 78q105 0 203 -10v60q0 172 -185 172q-60 0 -125.5 -12.5t-101.5 -24.5l-35 -13
q-32 21 -57 76q-11 24 -15 51.5t-3 42.5zM674 479q-102 8 -170 8q-166 0 -166 -153q0 -84 37.5 -121t109.5 -37q51 0 89.5 22t59 58.5t30.5 77t10 84.5v61z" />
    <glyph glyph-name="aring" unicode="&#xe5;" horiz-adv-x="1058" 
d="M283 1415q0 102 74.5 160.5t177.5 58.5q65 0 121 -23.5t94 -75t38 -120.5q0 -105 -73.5 -165t-182.5 -60t-179 60t-70 165zM639 1415q0 39 -28 65.5t-79 26.5q-48 0 -75 -27t-27 -65q0 -39 27 -66.5t75 -27.5q51 0 79 28t28 66zM154 1016q6 3 17.5 8.5t49.5 20t78 25
t101 19.5t122 9q220 0 315 -92t95 -289v-701q-29 -16 -101 -16q-28 0 -54 4t-38 8l-12 4l-39 111q-72 -147 -299 -147q-150 0 -233.5 89t-83.5 265q0 169 101.5 247t297.5 78q105 0 203 -10v53q0 89 -40.5 134t-144.5 45q-60 0 -125.5 -12.5t-101.5 -24.5l-35 -13
q-32 21 -57 76q-11 24 -15 51.5t-3 42.5zM674 479q-102 8 -170 8q-166 0 -166 -153q0 -84 37.5 -121t109.5 -37q51 0 89.5 22t59 58.5t30.5 77t10 84.5v61z" />
    <glyph glyph-name="ae" unicode="&#xe6;" horiz-adv-x="1564" 
d="M799 967q118 131 282 131q192 0 300 -105.5t108 -318.5q0 -53 -5.5 -103.5t-11.5 -74.5l-6 -25h-575q13 -152 74 -219.5t168 -67.5q58 0 115 12t84 24l28 11q62 -56 72 -168q-4 -3 -13 -9t-39.5 -20t-66 -25t-94.5 -20t-123 -9q-77 0 -142 20.5t-105.5 53.5t-63.5 59.5
t-37 52.5q-10 -19 -23 -38.5t-42 -47.5t-64 -49t-90 -36t-119 -15q-170 0 -256 89.5t-86 264.5q0 168 98 240.5t297 72.5h182v72q0 85 -38 123.5t-134 38.5q-57 0 -119.5 -12.5t-96.5 -24.5l-34 -13q-67 70 -73 185l17 8.5t47.5 20t75.5 25t98 19.5t118 9q203 0 293 -131z
M1233 705q0 58 -11.5 98t-46.5 67t-94 27q-79 0 -127 -57.5t-61 -192.5h336q4 29 4 58zM645 473h-149q-89 0 -125.5 -32.5t-36.5 -112.5q0 -152 127 -152q92 0 138 65t46 160v72z" />
    <glyph glyph-name="ccedilla" unicode="&#xe7;" horiz-adv-x="913" 
d="M573 -20l-14 -84q109 0 158 -54.5t49 -146.5q0 -101 -68 -154t-188 -53q-56 0 -104 12t-68 24l-19 13q-1 32 13 61t39 44q56 -27 125 -27q116 0 116 88q0 38 -24.5 61t-75.5 23h-80l-29 33l31 170q-344 66 -344 549q0 559 461 559q94 0 165.5 -13.5t96.5 -26.5l25 -14
q-3 -101 -72 -170q-70 27 -172 27q-129 0 -184.5 -87.5t-55.5 -274.5q0 -184 59 -269.5t189 -85.5q46 0 92 7t69 15l23 7q66 -59 72 -170q-3 -2 -10 -6t-32 -14.5t-55 -18.5t-80.5 -15.5t-107.5 -8.5z" />
    <glyph glyph-name="egrave" unicode="&#xe8;" horiz-adv-x="1056" 
d="M551 1233l-256 266q28 43 95 71t128 21l176 -280q-44 -61 -143 -78zM954 459h-600q13 -148 75.5 -205t178.5 -57q61 0 119.5 12.5t86.5 24.5l28 12q33 -32 55 -81t23 -102q-5 -3 -14.5 -9t-43 -20t-71 -25t-97 -20t-123.5 -9q-247 0 -364 141.5t-117 423.5q0 281 123 417
t344 136q197 0 308.5 -105.5t111.5 -318.5q0 -58 -5.5 -112t-11.5 -78zM721 705q0 192 -164 192q-176 0 -201 -260h361q4 46 4 68z" />
    <glyph glyph-name="eacute" unicode="&#xe9;" horiz-adv-x="1056" 
d="M768 1499l-256 -266q-99 17 -143 78l176 280q61 7 128 -21t95 -71zM954 459h-600q13 -148 75.5 -205t178.5 -57q61 0 119.5 12.5t86.5 24.5l28 12q33 -32 55 -81t23 -102q-5 -3 -14.5 -9t-43 -20t-71 -25t-97 -20t-123.5 -9q-247 0 -364 141.5t-117 423.5q0 281 123 417
t344 136q197 0 308.5 -105.5t111.5 -318.5q0 -58 -5.5 -112t-11.5 -78zM721 705q0 192 -164 192q-176 0 -201 -260h361q4 46 4 68z" />
    <glyph glyph-name="ecircumflex" unicode="&#xea;" horiz-adv-x="1056" 
d="M573 1577l289 -236q-47 -86 -117 -108l-196 125l-197 -123q-70 22 -116 106l286 236h51zM954 459h-600q13 -148 75.5 -205t178.5 -57q61 0 119.5 12.5t86.5 24.5l28 12q33 -32 55 -81t23 -102q-5 -3 -14.5 -9t-43 -20t-71 -25t-97 -20t-123.5 -9q-247 0 -364 141.5
t-117 423.5q0 281 123 417t344 136q197 0 308.5 -105.5t111.5 -318.5q0 -58 -5.5 -112t-11.5 -78zM721 705q0 192 -164 192q-176 0 -201 -260h361q4 46 4 68z" />
    <glyph glyph-name="edieresis" unicode="&#xeb;" horiz-adv-x="1056" 
d="M473 1446v-199q-39 -14 -111 -14q-34 0 -61.5 3.5t-38.5 7.5l-10 3v199q34 14 110 14q32 0 59.5 -3.5t39.5 -6.5zM844 1446v-199q-39 -14 -111 -14q-34 0 -61.5 3.5t-37.5 7.5l-11 3v199q34 14 110 14q32 0 59.5 -3.5t39.5 -6.5zM954 459h-600q13 -148 75.5 -205
t178.5 -57q61 0 119.5 12.5t86.5 24.5l28 12q33 -32 55 -81t23 -102q-5 -3 -14.5 -9t-43 -20t-71 -25t-97 -20t-123.5 -9q-247 0 -364 141.5t-117 423.5q0 281 123 417t344 136q197 0 308.5 -105.5t111.5 -318.5q0 -58 -5.5 -112t-11.5 -78zM721 705q0 192 -164 192
q-176 0 -201 -260h361q4 46 4 68z" />
    <glyph glyph-name="igrave" unicode="&#xec;" horiz-adv-x="532" 
d="M262 1237l-256 266q28 43 95 71t128 21l177 -280q-44 -61 -144 -78zM395 1061v-1045q-45 -16 -129 -16q-40 0 -72 4t-44 8l-13 4v1045q39 16 129 16q37 0 69.5 -4t46.5 -8z" />
    <glyph glyph-name="iacute" unicode="&#xed;" horiz-adv-x="532" 
d="M510 1499l-256 -266q-99 17 -143 78l176 280q61 7 128 -21t95 -71zM395 1061v-1045q-45 -16 -129 -16q-40 0 -72 4t-44 8l-13 4v1045q39 16 129 16q37 0 69.5 -4t46.5 -8z" />
    <glyph glyph-name="icircumflex" unicode="&#xee;" horiz-adv-x="532" 
d="M293 1577l289 -236q-47 -86 -117 -108l-197 125l-196 -123q-71 22 -117 106l287 236h51zM395 1061v-1045q-45 -16 -129 -16q-40 0 -72 4t-44 8l-13 4v1045q39 16 129 16q37 0 69.5 -4t46.5 -8z" />
    <glyph glyph-name="idieresis" unicode="&#xef;" horiz-adv-x="532" 
d="M186 1446v-199q-38 -14 -110 -14q-34 0 -61.5 3.5t-38.5 7.5l-11 3v199q35 14 111 14q32 0 59.5 -3.5t38.5 -6.5zM557 1446v-199q-39 -14 -111 -14q-34 0 -61.5 3.5t-38.5 7.5l-10 3v199q34 14 110 14q32 0 59.5 -3.5t39.5 -6.5zM395 1061v-1045q-45 -16 -129 -16
q-40 0 -72 4t-44 8l-13 4v1045q39 16 129 16q37 0 69.5 -4t46.5 -8z" />
    <glyph glyph-name="eth" unicode="&#xf0;" horiz-adv-x="1140" 
d="M879 1411l-117 -74q136 -122 210.5 -301t74.5 -407q0 -149 -21.5 -261t-61 -185.5t-101 -119t-134.5 -64.5t-168 -19q-228 0 -349.5 126.5t-121.5 409.5q0 537 451 537q128 0 217 -58q-52 142 -166 234l-219 -139q-67 58 -86 131l153 96q-83 36 -178 59q-7 106 53 160
q169 -24 310 -102l170 108q60 -48 84 -131zM561 176q50 0 85.5 14.5t64.5 50.5t43 104.5t14 170.5q0 104 -14 173t-43 104.5t-64 49t-86 13.5q-40 0 -69.5 -8.5t-56 -31t-43.5 -60t-26.5 -98t-9.5 -142.5t9.5 -142.5t26.5 -98t43.5 -60t56 -31t69.5 -8.5z" />
    <glyph glyph-name="ntilde" unicode="&#xf1;" horiz-adv-x="1122" 
d="M231 1362q3 4 9 11t25.5 25t41.5 32t57 25t72 11q53 0 93.5 -16.5t73 -32.5t67.5 -16q29 0 54 13.5t36 26.5l10 13q34 -15 59 -48t31 -69q-3 -4 -9 -11t-25.5 -25t-41.5 -32t-57 -25t-72 -11q-53 0 -93 16.5t-72.5 32.5t-67.5 16q-29 0 -54 -13t-36 -27l-10 -13
q-79 43 -91 117zM391 999q108 99 281 99q154 0 237.5 -85t83.5 -227v-770q-45 -16 -129 -16q-40 0 -72 4t-44 8l-13 4v725q0 69 -40 108.5t-124 39.5q-101 0 -180 -76v-797q-45 -16 -129 -16q-40 0 -72 4t-44 8l-13 4v1045q39 16 129 16q37 0 69.5 -4t46.5 -8l13 -4v-62z
" />
    <glyph glyph-name="ograve" unicode="&#xf2;" horiz-adv-x="1122" 
d="M467 1591l176 -280q-44 -61 -143 -78l-256 266q28 43 95 71t128 21zM90 539q0 293 122 426t349 133q228 0 349.5 -132.5t121.5 -426.5q0 -293 -122 -426t-349 -133t-349 133t-122 426zM766 539q0 107 -14 179t-42 111.5t-63.5 55.5t-85.5 16t-85.5 -16t-64 -55.5
t-43 -112t-14.5 -178.5t14.5 -179t43 -112.5t64 -55.5t85.5 -16t85.5 16t63.5 55.5t42 112t14 179.5z" />
    <glyph glyph-name="oacute" unicode="&#xf3;" horiz-adv-x="1122" 
d="M369 1311l176 280q61 7 128 -21t95 -71l-256 -266q-99 17 -143 78zM90 539q0 293 122 426t349 133q228 0 349.5 -132.5t121.5 -426.5q0 -293 -122 -426t-349 -133t-349 133t-122 426zM766 539q0 107 -14 179t-42 111.5t-63.5 55.5t-85.5 16t-85.5 -16t-64 -55.5t-43 -112
t-14.5 -178.5t14.5 -179t43 -112.5t64 -55.5t85.5 -16t85.5 16t63.5 55.5t42 112t14 179.5z" />
    <glyph glyph-name="ocircumflex" unicode="&#xf4;" horiz-adv-x="1122" 
d="M573 1577l289 -236q-47 -86 -117 -108l-196 125l-197 -123q-70 22 -116 106l286 236h51zM90 539q0 293 122 426t349 133q228 0 349.5 -132.5t121.5 -426.5q0 -293 -122 -426t-349 -133t-349 133t-122 426zM766 539q0 107 -14 179t-42 111.5t-63.5 55.5t-85.5 16
t-85.5 -16t-64 -55.5t-43 -112t-14.5 -178.5t14.5 -179t43 -112.5t64 -55.5t85.5 -16t85.5 16t63.5 55.5t42 112t14 179.5z" />
    <glyph glyph-name="otilde" unicode="&#xf5;" horiz-adv-x="1122" 
d="M229 1362q3 4 9 11t25.5 25t41.5 32t57 25t72 11q53 0 93.5 -16.5t73 -32.5t67.5 -16q29 0 54 13.5t36 26.5l10 13q34 -15 59 -48t31 -69q-3 -4 -9 -11t-25.5 -25t-41.5 -32t-57 -25t-72 -11q-53 0 -93 16.5t-72.5 32.5t-67.5 16q-29 0 -54.5 -13t-35.5 -27l-11 -13
q-78 43 -90 117zM90 539q0 293 122 426t349 133q228 0 349.5 -132.5t121.5 -426.5q0 -293 -122 -426t-349 -133t-349 133t-122 426zM766 539q0 107 -14 179t-42 111.5t-63.5 55.5t-85.5 16t-85.5 -16t-64 -55.5t-43 -112t-14.5 -178.5t14.5 -179t43 -112.5t64 -55.5
t85.5 -16t85.5 16t63.5 55.5t42 112t14 179.5z" />
    <glyph glyph-name="odieresis" unicode="&#xf6;" horiz-adv-x="1122" 
d="M252 1446q34 14 110 14q32 0 59.5 -3.5t39.5 -6.5l12 -4v-199q-39 -14 -111 -14q-34 0 -61.5 3.5t-38.5 7.5l-10 3v199zM623 1446q34 14 110 14q32 0 59.5 -3.5t39.5 -6.5l12 -4v-199q-39 -14 -111 -14q-34 0 -61.5 3.5t-37.5 7.5l-11 3v199zM90 539q0 293 122 426
t349 133q228 0 349.5 -132.5t121.5 -426.5q0 -293 -122 -426t-349 -133t-349 133t-122 426zM766 539q0 107 -14 179t-42 111.5t-63.5 55.5t-85.5 16t-85.5 -16t-64 -55.5t-43 -112t-14.5 -178.5t14.5 -179t43 -112.5t64 -55.5t85.5 -16t85.5 16t63.5 55.5t42 112t14 179.5z
" />
    <glyph glyph-name="divide" unicode="&#xf7;" horiz-adv-x="1079" 
d="M670 1044v-235q-45 -16 -129 -16q-40 0 -72.5 4t-44.5 8l-12 4v235q39 17 129 17q37 0 69.5 -4.5t45.5 -8.5zM971 500h-862q-15 37 -15 94q0 25 4 48.5t8 34.5l3 11h862q14 -37 14 -94q0 -25 -3.5 -48.5t-7.5 -34.5zM670 379v-236q-45 -16 -129 -16q-40 0 -72.5 4
t-44.5 8l-12 4v236q39 16 129 16q37 0 69.5 -4t45.5 -8z" />
    <glyph glyph-name="oslash" unicode="&#xf8;" 
d="M780 1057l74 119q39 0 78 -20.5t65 -47.5l-88 -143q121 -140 121 -426q0 -293 -122 -426t-349 -133q-129 0 -227 43l-76 -125q-91 0 -145 67l94 154q-117 139 -117 420q0 293 122 426t349 133q132 0 221 -41zM668 872q-45 29 -109 29q-50 0 -85.5 -16t-64 -55.5t-43 -112
t-14.5 -178.5q0 -89 13 -162zM752 707l-306 -498q41 -33 113 -33q50 0 85.5 16t63.5 55.5t42 112t14 179.5q0 101 -12 168z" />
    <glyph glyph-name="ugrave" unicode="&#xf9;" 
d="M518 1591l176 -280q-44 -61 -143 -78l-256 266q28 43 95 71t128 21zM729 1061q45 16 129 16q40 0 72 -4t44 -8l13 -4v-1045q-39 -16 -129 -16q-37 0 -69.5 4t-46.5 8l-13 4v62q-107 -98 -280 -98q-155 0 -238.5 84.5t-83.5 226.5v770q45 16 129 16q40 0 72 -4t44 -8
l13 -4v-725q0 -69 40 -108.5t124 -39.5q104 0 180 76v797z" />
    <glyph glyph-name="uacute" unicode="&#xfa;" 
d="M784 1499l-256 -266q-99 17 -143 78l176 280q61 7 128 -21t95 -71zM127 291v770q45 16 129 16q40 0 72 -4t44 -8l13 -4v-725q0 -69 40 -108.5t124 -39.5q104 0 180 76v797q45 16 129 16q40 0 72 -4t44 -8l13 -4v-1045q-39 -16 -129 -16q-37 0 -69.5 4t-46.5 8l-13 4v62
q-107 -98 -280 -98q-155 0 -238.5 84.5t-83.5 226.5z" />
    <glyph glyph-name="ucircumflex" unicode="&#xfb;" 
d="M590 1577l289 -236q-47 -86 -117 -108l-197 125l-196 -123q-71 22 -117 106l287 236h51zM127 291v770q45 16 129 16q40 0 72 -4t44 -8l13 -4v-725q0 -69 40 -108.5t124 -39.5q104 0 180 76v797q45 16 129 16q40 0 72 -4t44 -8l13 -4v-1045q-39 -16 -129 -16
q-37 0 -69.5 4t-46.5 8l-13 4v62q-107 -98 -280 -98q-155 0 -238.5 84.5t-83.5 226.5z" />
    <glyph glyph-name="udieresis" unicode="&#xfc;" 
d="M268 1446q35 14 111 14q32 0 59.5 -3.5t39.5 -6.5l11 -4v-199q-38 -14 -110 -14q-34 0 -61.5 3.5t-38.5 7.5l-11 3v199zM639 1446q35 14 111 14q32 0 59.5 -3.5t38.5 -6.5l12 -4v-199q-38 -14 -110 -14q-34 0 -61.5 3.5t-38.5 7.5l-11 3v199zM729 1061q45 16 129 16
q40 0 72 -4t44 -8l13 -4v-1045q-39 -16 -129 -16q-37 0 -69.5 4t-46.5 8l-13 4v62q-107 -98 -280 -98q-155 0 -238.5 84.5t-83.5 226.5v770q45 16 129 16q40 0 72 -4t44 -8l13 -4v-725q0 -69 40 -108.5t124 -39.5q104 0 180 76v797z" />
    <glyph glyph-name="yacute" unicode="&#xfd;" horiz-adv-x="1085" 
d="M788 1499l-256 -266q-99 17 -143 78l176 280q61 7 128 -21t95 -71zM1049 1061l-361 -1178q-22 -70 -41 -118t-44.5 -96.5t-55 -79t-69 -55t-90 -35.5t-114.5 -11q-32 0 -61.5 6t-42.5 12l-14 5q-19 43 -19 96q0 25 4.5 50.5t9.5 38.5l5 13q51 -8 94 -8q35 0 54.5 3
t42.5 14.5t39 35t34 64t37 102.5l24 80q-44 0 -80 16l-368 1045q49 16 133 16q39 0 72.5 -4t47.5 -8l13 -4l193 -549q24 -68 41.5 -132.5t23.5 -95.5l6 -30h8q19 102 66 258l166 549q41 16 125 16q33 0 63 -4t44 -8z" />
    <glyph glyph-name="thorn" unicode="&#xfe;" horiz-adv-x="1142" 
d="M135 1520q41 16 127 16q38 0 71 -4t47 -8l13 -4v-529q87 107 277 107q89 0 156.5 -29t118.5 -93t77.5 -174t26.5 -263t-26.5 -263t-77.5 -174t-118.5 -93t-156.5 -29q-191 0 -277 106v-528q-45 -17 -131 -17q-38 0 -70 4.5t-44 8.5l-13 4v1962zM782 539q0 106 -13 176
t-41 107.5t-63 52t-87 14.5q-85 0 -135 -61.5t-50 -159.5v-258q0 -98 50 -160t135 -62q52 0 87 14.5t63 52t41 108t13 176.5z" />
    <glyph glyph-name="ydieresis" unicode="&#xff;" horiz-adv-x="1085" 
d="M494 1446v-199q-39 -14 -111 -14q-34 0 -61.5 3.5t-38.5 7.5l-11 3v199q35 14 111 14q32 0 59.5 -3.5t39.5 -6.5zM864 1446v-199q-38 -14 -110 -14q-34 0 -61.5 3.5t-38.5 7.5l-11 3v199q35 14 111 14q32 0 59.5 -3.5t38.5 -6.5zM1049 1061l-361 -1178q-22 -70 -41 -118
t-44.5 -96.5t-55 -79t-69 -55t-90 -35.5t-114.5 -11q-32 0 -61.5 6t-42.5 12l-14 5q-19 43 -19 96q0 25 4.5 50.5t9.5 38.5l5 13q51 -8 94 -8q35 0 54.5 3t42.5 14.5t39 35t34 64t37 102.5l24 80q-44 0 -80 16l-368 1045q49 16 133 16q39 0 72.5 -4t47.5 -8l13 -4l193 -549
q24 -68 41.5 -132.5t23.5 -95.5l6 -30h8q19 102 66 258l166 549q41 16 125 16q33 0 63 -4t44 -8z" />
    <glyph glyph-name="Amacron" unicode="&#x100;" horiz-adv-x="1363" 
d="M360 1739h625q21 -69 0 -150h-625q-22 80 0 150zM522 1456q68 19 160 19q44 0 84 -4.5t58 -9.5l18 -5l489 -1438q-47 -18 -143 -18q-39 0 -71 4.5t-44 9.5l-12 4l-111 328h-559l-110 -328q-45 -18 -127 -18q-35 0 -65 4.5t-43 9.5l-13 4zM676 1200h-8q-21 -104 -62 -227
l-143 -416h416l-140 416q-19 56 -35 113t-22 86z" />
    <glyph glyph-name="amacron" unicode="&#x101;" horiz-adv-x="1058" 
d="M236 1423h606q24 -64 0 -141h-606q-19 77 0 141zM154 1016q6 3 17.5 8.5t49.5 20t78 25t101 19.5t122 9q220 0 315 -92t95 -289v-701q-29 -16 -101 -16q-28 0 -54 4t-38 8l-12 4l-39 111q-72 -147 -299 -147q-150 0 -233.5 89t-83.5 265q0 169 101.5 247t297.5 78
q105 0 203 -10v56q0 89 -40.5 132.5t-144.5 43.5q-60 0 -125.5 -12.5t-101.5 -24.5l-35 -13q-32 21 -57 76q-11 24 -15 51.5t-3 42.5zM674 479q-102 8 -170 8q-166 0 -166 -153q0 -84 37.5 -121t109.5 -37q51 0 89.5 22t59 58.5t30.5 77t10 84.5v61z" />
    <glyph glyph-name="Abreve" unicode="&#x102;" horiz-adv-x="1363" 
d="M674 1765q63 0 118 14t79 28l24 14q37 -12 68 -44.5t43 -70.5q-4 -5 -13 -14t-39.5 -31.5t-66 -40t-93.5 -31.5t-120 -14t-119.5 13.5t-95 32.5t-65.5 38.5t-41 32.5l-13 14q12 38 44 70.5t69 44.5q9 -6 26 -15.5t74.5 -25t120.5 -15.5zM522 1456q68 19 160 19
q44 0 84 -4.5t58 -9.5l18 -5l489 -1438q-47 -18 -143 -18q-39 0 -71 4.5t-44 9.5l-12 4l-111 328h-559l-110 -328q-45 -18 -127 -18q-35 0 -65 4.5t-43 9.5l-13 4zM676 1200h-8q-21 -104 -62 -227l-143 -416h416l-140 416q-19 56 -35 113t-22 86z" />
    <glyph glyph-name="abreve" unicode="&#x103;" horiz-adv-x="1058" 
d="M530 1432q61 0 114.5 14t77.5 28l23 15q36 -12 66.5 -46t42.5 -73q-4 -6 -12.5 -15t-39 -32.5t-65 -41.5t-90.5 -33t-117 -15t-116.5 14t-91.5 34.5t-63.5 40.5t-39.5 34l-12 14q12 40 42 73.5t66 45.5q9 -6 25.5 -15.5t72.5 -25.5t117 -16zM154 1016q6 3 17.5 8.5
t49.5 20t78 25t101 19.5t122 9q220 0 315 -92t95 -289v-701q-29 -16 -101 -16q-28 0 -54 4t-38 8l-12 4l-39 111q-72 -147 -299 -147q-150 0 -233.5 89t-83.5 265q0 169 101.5 247t297.5 78q105 0 203 -10v68q0 164 -185 164q-60 0 -125.5 -12.5t-101.5 -24.5l-35 -13
q-32 21 -57 76q-11 24 -15 51.5t-3 42.5zM674 479q-102 8 -170 8q-166 0 -166 -153q0 -84 37.5 -121t109.5 -37q51 0 89.5 22t59 58.5t30.5 77t10 84.5v61z" />
    <glyph glyph-name="Aogonek" unicode="&#x104;" horiz-adv-x="1363" 
d="M1237 -266q15 0 29 2.5t21 5.5l7 2q40 -30 37 -94q-67 -39 -147 -39q-92 0 -154.5 55t-62.5 152q0 129 123 192l-29 8l-111 328h-559l-110 -328q-45 -18 -127 -18q-35 0 -65 4.5t-43 9.5l-13 4l489 1438q68 19 160 19q44 0 84 -4.5t58 -9.5l18 -5l489 -1438q-6 -2 -20 -6
q-81 -19 -132 -62t-51 -108q0 -54 31 -81t78 -27zM879 557l-140 416q-19 56 -35 113t-22 86l-6 28h-8q-21 -104 -62 -227l-143 -416h416z" />
    <glyph glyph-name="aogonek" unicode="&#x105;" horiz-adv-x="1058" 
d="M154 1016q6 3 17.5 8.5t49.5 20t78 25t101 19.5t122 9q220 0 315 -92t95 -289v-701q-96 -31 -147.5 -85t-51.5 -111q0 -88 107 -88q15 0 31 2.5t25 5.5l9 2q19 -14 29 -46.5t8 -64.5q-67 -39 -147 -39q-111 0 -174.5 53t-63.5 140q0 60 44.5 125.5t125.5 105.5l-39 111
q-72 -147 -299 -147q-150 0 -233.5 89t-83.5 265q0 169 101.5 247t297.5 78q105 0 203 -10v49q0 97 -39 140t-146 43q-60 0 -125.5 -12.5t-101.5 -24.5l-35 -13q-32 21 -57 76q-11 24 -15 51.5t-3 42.5zM674 479q-102 8 -170 8q-166 0 -166 -153q0 -84 37.5 -121t109.5 -37
q51 0 89.5 22t59 58.5t30.5 77t10 84.5v61z" />
    <glyph glyph-name="Cacute" unicode="&#x106;" horiz-adv-x="1157" 
d="M952 1804l-256 -266q-99 17 -143 78l176 280q61 7 128 -21t95 -71zM727 -20q-304 0 -462.5 193t-158.5 564t158.5 564.5t462.5 193.5q101 0 189.5 -18t126.5 -36l38 -18q7 -103 -77 -194q-117 43 -248 43q-86 0 -151 -25t-117 -83.5t-79.5 -166.5t-27.5 -262
q0 -124 18.5 -217.5t50.5 -152t80.5 -94.5t102.5 -50t123 -14q65 0 132 10.5t102 21.5l34 11q78 -72 78 -199q-6 -3 -16.5 -7.5t-47 -17t-77 -22t-104 -17t-130.5 -7.5z" />
    <glyph glyph-name="cacute" unicode="&#x107;" horiz-adv-x="915" 
d="M756 1499l-256 -266q-100 17 -144 78l176 280q61 7 128.5 -21t95.5 -71zM594 889q-130 0 -185 -82.5t-55 -267.5q0 -182 58.5 -262t189.5 -80q46 0 92 7t69 14l23 7q32 -29 51 -79t21 -103q-10 -7 -30.5 -17.5t-100 -28t-176.5 -17.5q-461 0 -461 559t461 559
q94 0 165.5 -13.5t96.5 -26.5l25 -14q0 -52 -19.5 -101t-52.5 -81q-70 27 -172 27z" />
    <glyph glyph-name="Ccircumflex" unicode="&#x108;" horiz-adv-x="1157" 
d="M760 1890l295 -241q-49 -89 -119 -111l-203 129l-201 -127q-70 22 -118 109l293 241h53zM727 -20q-304 0 -462.5 193t-158.5 564t158.5 564.5t462.5 193.5q101 0 189.5 -18t126.5 -36l38 -18q7 -103 -77 -194q-117 43 -248 43q-86 0 -151 -25t-117 -83.5t-79.5 -166.5
t-27.5 -262q0 -124 18.5 -217.5t50.5 -152t80.5 -94.5t102.5 -50t123 -14q65 0 132 10.5t102 21.5l34 11q78 -72 78 -199q-6 -3 -16.5 -7.5t-47 -17t-77 -22t-104 -17t-130.5 -7.5z" />
    <glyph glyph-name="ccircumflex" unicode="&#x109;" horiz-adv-x="915" 
d="M549 1577l289 -236q-47 -86 -117 -108l-197 125l-196 -123q-71 22 -117 106l287 236h51zM594 889q-130 0 -185 -82.5t-55 -267.5q0 -182 58.5 -262t189.5 -80q46 0 92 7t69 14l23 7q32 -29 51 -79t21 -103q-10 -7 -30.5 -17.5t-100 -28t-176.5 -17.5q-461 0 -461 559
t461 559q94 0 165.5 -13.5t96.5 -26.5l25 -14q0 -52 -19.5 -101t-52.5 -81q-70 27 -172 27z" />
    <glyph glyph-name="Cdotaccent" unicode="&#x10a;" horiz-adv-x="1159" 
d="M844 1800v-211q-41 -14 -117 -14q-36 0 -65.5 3.5t-40.5 7.5l-11 3v211q35 15 117 15q34 0 63 -3.5t42 -7.5zM727 -20q-304 0 -462.5 193t-158.5 564t158.5 564.5t462.5 193.5q101 0 189.5 -18t126.5 -36l38 -18q7 -103 -77 -194q-117 43 -248 43q-86 0 -151 -25
t-117 -83.5t-79.5 -166.5t-27.5 -262q0 -124 18.5 -217.5t50.5 -152t80.5 -94.5t102.5 -50t123 -14q65 0 132 10.5t102 21.5l34 11q78 -72 78 -199q-6 -3 -16.5 -7.5t-47 -17t-77 -22t-104 -17t-130.5 -7.5z" />
    <glyph glyph-name="cdotaccent" unicode="&#x10b;" horiz-adv-x="915" 
d="M655 1458v-211q-40 -14 -116 -14q-36 0 -65.5 3.5t-40.5 7.5l-11 3v211q35 15 117 15q34 0 63 -3.5t41 -7.5zM594 889q-130 0 -185 -82.5t-55 -267.5q0 -182 58.5 -262t189.5 -80q46 0 92 7t69 14l23 7q32 -29 51 -79t21 -103q-10 -7 -30.5 -17.5t-100 -28t-176.5 -17.5
q-461 0 -461 559t461 559q94 0 165.5 -13.5t96.5 -26.5l25 -14q0 -52 -19.5 -101t-52.5 -81q-70 27 -172 27z" />
    <glyph glyph-name="Ccaron" unicode="&#x10c;" horiz-adv-x="1159" 
d="M707 1538l-295 242q49 88 118 110l203 -129l201 127q72 -23 119 -108l-293 -242h-53zM727 -20q-304 0 -462.5 193t-158.5 564t158.5 564.5t462.5 193.5q101 0 189.5 -18t126.5 -36l38 -18q7 -103 -77 -194q-117 43 -248 43q-86 0 -151 -25t-117 -83.5t-79.5 -166.5
t-27.5 -262q0 -124 18.5 -217.5t50.5 -152t80.5 -94.5t102.5 -50t123 -14q65 0 132 10.5t102 21.5l34 11q78 -72 78 -199q-6 -3 -16.5 -7.5t-47 -17t-77 -22t-104 -17t-130.5 -7.5z" />
    <glyph glyph-name="ccaron" unicode="&#x10d;" horiz-adv-x="915" 
d="M530 1233l-270 223q43 83 109 103l184 -119l184 116q64 -19 109 -100l-268 -223h-48zM594 889q-130 0 -185 -82.5t-55 -267.5q0 -182 58.5 -262t189.5 -80q46 0 92 7t69 14l23 7q32 -29 51 -79t21 -103q-10 -7 -30.5 -17.5t-100 -28t-176.5 -17.5q-461 0 -461 559
t461 559q94 0 165.5 -13.5t96.5 -26.5l25 -14q0 -52 -19.5 -101t-52.5 -81q-70 27 -172 27z" />
    <glyph glyph-name="Dcaron" unicode="&#x10e;" horiz-adv-x="1363" 
d="M573 1538l-294 242q49 88 118 110l203 -129l201 127q72 -23 119 -108l-293 -242h-54zM168 1475h481q606 0 606 -738q0 -737 -606 -737h-481v1475zM430 217h201q64 0 112.5 12.5t94 46.5t74.5 91t46 150t17 220t-17 220.5t-46 150.5t-74.5 91t-94 46t-112.5 12h-201v-1040
z" />
    <glyph glyph-name="dcaron" unicode="&#x10f;" horiz-adv-x="1173" 
d="M1090 1239q58 73 77.5 134.5t12.5 154.5q136 25 215 -31q-9 -106 -63 -194t-132 -125q-73 9 -110 61zM750 1520q45 16 131 16q38 0 70 -4t45 -8l12 -4v-1504q-46 -16 -109 -16q-29 0 -59 4t-45 8l-15 4l-16 88q-88 -124 -291 -124q-89 0 -156.5 29t-118.5 93t-77.5 174
t-26.5 263t26.5 263t77.5 174t118.5 93t156.5 29q187 0 277 -107v529zM750 676q-3 95 -53 154t-132 59q-41 0 -71 -8.5t-56.5 -31.5t-43 -62t-25.5 -101t-9 -147q0 -106 13.5 -176.5t41.5 -108t63 -52t87 -14.5q85 0 135 62t50 160v266z" />
    <glyph glyph-name="Dcroat" unicode="&#x110;" horiz-adv-x="1402" 
d="M207 1475h481q606 0 606 -738q0 -737 -606 -737h-481v643h-158q-11 40 -11 90t11 84h158v658zM469 1257v-440h266q12 -36 11.5 -87t-11.5 -87h-266v-426h201q64 0 112.5 12.5t94 46.5t74.5 91t46 150t17 220t-17 220.5t-46 150.5t-74.5 91t-94 46t-112.5 12h-201z" />
    <glyph glyph-name="dcroat" unicode="&#x111;" horiz-adv-x="1142" 
d="M1145 1395q10 -29 10 -76q0 -21 -2.5 -40t-4.5 -27l-3 -9h-137v-1227q-46 -16 -109 -16q-29 0 -59 4t-45 8l-15 4l-16 88q-88 -124 -291 -124q-89 0 -156.5 29t-118.5 93t-77.5 174t-26.5 263t26.5 263t77.5 174t118.5 93t156.5 29q187 0 277 -107v252h-220
q-10 29 -10 76q0 21 2.5 40t5.5 27l2 9h220v125q45 16 131 16q38 0 70 -4t45 -8l12 -4v-125h137zM750 410v266q-3 95 -53 154t-132 59q-41 0 -71 -8.5t-56.5 -31.5t-43 -62t-25.5 -101t-9 -147q0 -106 13.5 -176.5t41.5 -108t63 -52t87 -14.5q85 0 135 62t50 160z" />
    <glyph glyph-name="Emacron" unicode="&#x112;" horiz-adv-x="1134" 
d="M895 1589h-625q-22 80 0 150h625q21 -69 0 -150zM168 1475h846q20 -52 20 -99q0 -62 -20 -112h-584v-414h481q21 -58 21 -102q0 -56 -21 -109h-481v-428h604q21 -58 21 -102q0 -57 -21 -109h-866v1475z" />
    <glyph glyph-name="emacron" unicode="&#x113;" horiz-adv-x="1056" 
d="M836 1272h-551q-20 82 0 151h551q11 -33 11.5 -74.5t-11.5 -76.5zM954 459h-600q13 -148 75.5 -205t178.5 -57q61 0 119.5 12.5t86.5 24.5l28 12q33 -32 55 -81t23 -102q-5 -3 -14.5 -9t-43 -20t-71 -25t-97 -20t-123.5 -9q-247 0 -364 141.5t-117 423.5q0 281 123 417
t344 136q197 0 308.5 -105.5t111.5 -318.5q0 -58 -5.5 -112t-11.5 -78zM721 705q0 192 -164 192q-176 0 -201 -260h361q4 46 4 68z" />
    <glyph glyph-name="Ebreve" unicode="&#x114;" horiz-adv-x="1134" 
d="M911 1706q-4 -5 -13 -14t-39.5 -31.5t-65.5 -40t-93 -31.5t-120 -14t-119.5 13.5t-95 32.5t-65.5 38.5t-41 32.5l-13 14q12 38 43.5 70.5t68.5 44.5q9 -6 26.5 -15.5t75 -25t120.5 -15.5t118 14t79 28l24 14q37 -12 67.5 -44.5t42.5 -70.5zM168 1475h846q20 -52 20 -99
q0 -62 -20 -112h-584v-414h481q21 -58 21 -102q0 -56 -21 -109h-481v-428h604q21 -58 21 -102q0 -57 -21 -109h-866v1475z" />
    <glyph glyph-name="ebreve" unicode="&#x115;" horiz-adv-x="1056" 
d="M877 1370q-4 -6 -12.5 -15t-39 -32.5t-65 -41.5t-90.5 -33t-117 -15t-116.5 14t-91.5 34.5t-63.5 40.5t-39.5 34l-13 14q12 39 42.5 73t66.5 46q9 -6 25.5 -15.5t72.5 -25.5t117 -16t114.5 14t76.5 28l24 15q36 -12 66.5 -46t42.5 -73zM954 459h-600q13 -148 75.5 -205
t178.5 -57q61 0 119.5 12.5t86.5 24.5l28 12q33 -32 55 -81t23 -102q-5 -3 -14.5 -9t-43 -20t-71 -25t-97 -20t-123.5 -9q-247 0 -364 141.5t-117 423.5q0 281 123 417t344 136q197 0 308.5 -105.5t111.5 -318.5q0 -58 -5.5 -112t-11.5 -78zM721 705q0 192 -164 192
q-176 0 -201 -260h361q4 46 4 68z" />
    <glyph glyph-name="Edotaccent" unicode="&#x116;" horiz-adv-x="1134" 
d="M707 1800v-211q-41 -14 -117 -14q-36 0 -65.5 3.5t-40.5 7.5l-11 3v211q35 15 117 15q34 0 63 -3.5t41 -7.5zM168 1475h846q20 -52 20 -99q0 -62 -20 -112h-584v-414h481q21 -58 21 -102q0 -56 -21 -109h-481v-428h604q21 -58 21 -102q0 -57 -21 -109h-866v1475z" />
    <glyph glyph-name="edotaccent" unicode="&#x117;" horiz-adv-x="1054" 
d="M666 1458v-211q-41 -14 -117 -14q-36 0 -65.5 3.5t-40.5 7.5l-11 3v211q35 15 117 15q34 0 63 -3.5t42 -7.5zM954 459h-600q13 -148 75.5 -205t178.5 -57q61 0 119.5 12.5t86.5 24.5l28 12q33 -32 55 -81t23 -102q-5 -3 -14.5 -9t-43 -20t-71 -25t-97 -20t-123.5 -9
q-247 0 -364 141.5t-117 423.5q0 281 123 417t344 136q197 0 308.5 -105.5t111.5 -318.5q0 -58 -5.5 -112t-11.5 -78zM721 705q0 192 -164 192q-176 0 -201 -260h361q4 46 4 68z" />
    <glyph glyph-name="Eogonek" unicode="&#x118;" horiz-adv-x="1134" 
d="M168 1475h846q20 -52 20 -99q0 -62 -20 -112h-584v-414h481q21 -58 21 -102q0 -56 -21 -109h-481v-428h604q21 -58 21 -102q0 -57 -21 -109q-108 -34 -160.5 -73t-52.5 -103q0 -54 31.5 -81.5t77.5 -27.5q15 0 29 2.5t21 5.5l7 3q40 -30 37 -95q-67 -39 -147 -39
q-92 0 -155 55t-63 152q0 137 138 201h-629v1475z" />
    <glyph glyph-name="eogonek" unicode="&#x119;" horiz-adv-x="1056" 
d="M90 545q0 281 123 417t344 136q197 0 308.5 -105.5t111.5 -318.5q0 -58 -5.5 -112t-11.5 -78l-6 -25h-600q13 -148 75.5 -205t178.5 -57q61 0 119.5 12.5t86.5 24.5l28 12q33 -32 55 -81t23 -102q-46 -32 -134 -55q-92 -33 -145 -87.5t-53 -119.5q0 -21 6.5 -35t14.5 -21
t25.5 -10.5t28 -4t33.5 -0.5q15 0 29.5 3.5t21.5 6.5l7 4q20 -15 30.5 -43.5t8.5 -58.5q-70 -41 -150 -41q-217 0 -217 176q0 128 106 203q-227 12 -334.5 153t-107.5 412zM721 705q0 192 -164 192q-176 0 -201 -260h361q4 46 4 68z" />
    <glyph glyph-name="Ecaron" unicode="&#x11a;" horiz-adv-x="1134" 
d="M532 1538l-294 242q49 88 118 110l203 -129l201 127q72 -23 119 -108l-293 -242h-54zM168 1475h846q20 -52 20 -99q0 -62 -20 -112h-584v-414h481q21 -58 21 -102q0 -56 -21 -109h-481v-428h604q21 -58 21 -102q0 -57 -21 -109h-866v1475z" />
    <glyph glyph-name="ecaron" unicode="&#x11b;" horiz-adv-x="1056" 
d="M526 1233l-280 229q46 86 112 105l195 -123l190 121q69 -20 113 -103l-278 -229h-52zM954 459h-600q13 -148 75.5 -205t178.5 -57q61 0 119.5 12.5t86.5 24.5l28 12q33 -32 55 -81t23 -102q-5 -3 -14.5 -9t-43 -20t-71 -25t-97 -20t-123.5 -9q-247 0 -364 141.5
t-117 423.5q0 281 123 417t344 136q197 0 308.5 -105.5t111.5 -318.5q0 -58 -5.5 -112t-11.5 -78zM721 705q0 192 -164 192q-176 0 -201 -260h361q4 46 4 68z" />
    <glyph glyph-name="Gcircumflex" unicode="&#x11c;" horiz-adv-x="1298" 
d="M799 1890l295 -241q-49 -89 -119 -111l-203 129l-201 -127q-70 22 -118 109l292 241h54zM762 -20q-320 0 -488 193.5t-168 563.5t168 564t488 194q110 0 207.5 -18t139.5 -36l42 -18q0 -55 -21 -107t-57 -85q-130 43 -282 43q-75 0 -134.5 -15t-112.5 -53t-88 -98
t-55 -154.5t-20 -218.5t20 -217.5t55 -152.5t88 -95.5t112.5 -50.5t134.5 -14q34 0 67.5 2t50.5 4l17 2v416h-258q-21 38 -21 104q0 30 5.5 57t10.5 38l5 12h503v-789q-6 -3 -18 -7.5t-52 -17t-84 -22t-113.5 -17t-141.5 -7.5z" />
    <glyph glyph-name="gcircumflex" unicode="&#x11d;" horiz-adv-x="1095" 
d="M528 1577l289 -236q-47 -86 -117 -108l-196 125l-197 -123q-71 22 -117 106l287 236h51zM283 387q-191 89 -191 334q0 178 107 277.5t309 99.5q141 0 233 -47l295 47q15 -38 15 -97.5t-15 -99.5l-157 21q45 -80 45 -201q0 -178 -106 -277.5t-310 -99.5q-51 0 -74 2
q-30 -48 -22 -90q6 -30 36.5 -48.5t75 -26t100 -16t112 -16t110.5 -28.5t95.5 -52t67 -87.5t25.5 -133.5q0 -161 -146.5 -260.5t-393.5 -99.5q-229 0 -341 75t-112 204q0 165 184 272q-43 46 -43 119q0 116 101 229zM508 920q-80 0 -126 -49t-46 -150q0 -100 46 -148.5
t126 -48.5t125 48t45 149t-45 150t-125 49zM502 -332q143 0 216 41t73 111q0 37 -26.5 60.5t-76 35t-100.5 18t-119 16t-113 21.5q-67 -67 -67 -151q0 -67 52.5 -109.5t160.5 -42.5z" />
    <glyph glyph-name="Gbreve" unicode="&#x11e;" horiz-adv-x="1298" 
d="M1106 1706q-4 -5 -13 -14t-39.5 -31.5t-66 -40t-93.5 -31.5t-120 -14t-119.5 13.5t-95 32.5t-65.5 38.5t-41 32.5l-13 14q12 38 44 70.5t69 44.5q9 -6 26 -15.5t74.5 -25t120.5 -15.5t118 14t79 28l24 14q37 -12 68 -44.5t43 -70.5zM762 -20q-320 0 -488 193.5
t-168 563.5t168 564t488 194q110 0 207.5 -18t139.5 -36l42 -18q0 -55 -21 -107t-57 -85q-130 43 -282 43q-75 0 -134.5 -15t-112.5 -53t-88 -98t-55 -154.5t-20 -218.5t20 -217.5t55 -152.5t88 -95.5t112.5 -50.5t134.5 -14q34 0 67.5 2t50.5 4l17 2v416h-258
q-21 38 -21 104q0 30 5.5 57t10.5 38l5 12h503v-789q-6 -3 -18 -7.5t-52 -17t-84 -22t-113.5 -17t-141.5 -7.5z" />
    <glyph glyph-name="gbreve" unicode="&#x11f;" horiz-adv-x="1095" 
d="M838 1370q-4 -6 -12.5 -15t-39 -32.5t-65 -41.5t-90.5 -33t-117 -15t-116.5 14t-91.5 34.5t-63.5 40.5t-40.5 34l-12 14q12 39 42.5 73t66.5 46q9 -6 25.5 -15.5t72.5 -25.5t117 -16t114.5 14t77.5 28l23 15q36 -12 66.5 -46t42.5 -73zM283 387q-191 89 -191 334
q0 178 107 277.5t309 99.5q141 0 233 -47l295 47q15 -38 15 -97.5t-15 -99.5l-157 21q45 -80 45 -201q0 -178 -106 -277.5t-310 -99.5q-51 0 -74 2q-30 -48 -22 -90q6 -30 36.5 -48.5t75 -26t100 -16t112 -16t110.5 -28.5t95.5 -52t67 -87.5t25.5 -133.5
q0 -161 -146.5 -260.5t-393.5 -99.5q-229 0 -341 75t-112 204q0 165 184 272q-43 46 -43 119q0 116 101 229zM508 920q-80 0 -126 -49t-46 -150q0 -100 46 -148.5t126 -48.5t125 48t45 149t-45 150t-125 49zM502 -332q143 0 216 41t73 111q0 37 -26.5 60.5t-76 35t-100.5 18
t-119 16t-113 21.5q-67 -67 -67 -151q0 -67 52.5 -109.5t160.5 -42.5z" />
    <glyph glyph-name="Gdotaccent" unicode="&#x120;" horiz-adv-x="1298" 
d="M881 1800v-211q-41 -14 -117 -14q-36 0 -65.5 3.5t-40.5 7.5l-11 3v211q35 15 117 15q34 0 63 -3.5t41 -7.5zM762 -20q-320 0 -488 193.5t-168 563.5t168 564t488 194q110 0 207.5 -18t139.5 -36l42 -18q0 -55 -21 -107t-57 -85q-130 43 -282 43q-75 0 -134.5 -15
t-112.5 -53t-88 -98t-55 -154.5t-20 -218.5t20 -217.5t55 -152.5t88 -95.5t112.5 -50.5t134.5 -14q34 0 67.5 2t50.5 4l17 2v416h-258q-21 38 -21 104q0 30 5.5 57t10.5 38l5 12h503v-789q-6 -3 -18 -7.5t-52 -17t-84 -22t-113.5 -17t-141.5 -7.5z" />
    <glyph glyph-name="gdotaccent" unicode="&#x121;" horiz-adv-x="1095" 
d="M633 1458v-211q-41 -14 -117 -14q-36 0 -65.5 3.5t-40.5 7.5l-11 3v211q35 15 117 15q34 0 63 -3.5t41 -7.5zM283 387q-191 89 -191 334q0 178 107 277.5t309 99.5q141 0 233 -47l295 47q15 -38 15 -97.5t-15 -99.5l-157 21q45 -80 45 -201q0 -178 -106 -277.5
t-310 -99.5q-51 0 -74 2q-30 -48 -22 -90q6 -30 36.5 -48.5t75 -26t100 -16t112 -16t110.5 -28.5t95.5 -52t67 -87.5t25.5 -133.5q0 -161 -146.5 -260.5t-393.5 -99.5q-229 0 -341 75t-112 204q0 165 184 272q-43 46 -43 119q0 116 101 229zM508 920q-80 0 -126 -49
t-46 -150q0 -100 46 -148.5t126 -48.5t125 48t45 149t-45 150t-125 49zM502 -332q143 0 216 41t73 111q0 37 -26.5 60.5t-76 35t-100.5 18t-119 16t-113 21.5q-67 -67 -67 -151q0 -67 52.5 -109.5t160.5 -42.5z" />
    <glyph glyph-name="Gcommaaccent" unicode="&#x122;" horiz-adv-x="1298" 
d="M762 -20q-320 0 -488 193.5t-168 563.5t168 564t488 194q110 0 207.5 -18t139.5 -36l42 -18q0 -55 -21 -107t-57 -85q-130 43 -282 43q-75 0 -134.5 -15t-112.5 -53t-88 -98t-55 -154.5t-20 -218.5t20 -217.5t55 -152.5t88 -95.5t112.5 -50.5t134.5 -14q34 0 67.5 2
t50.5 4l17 2v416h-258q-21 38 -21 104q0 30 5.5 57t10.5 38l5 12h503v-789q-6 -3 -18 -7.5t-52 -17t-84 -22t-113.5 -17t-141.5 -7.5zM723 -598l-96 57q3 3 8 8.5t18 25t23.5 41.5t20.5 57.5t12 72.5q-25 2 -46 5.5t-29 6.5l-9 2v222q47 16 137 16q40 0 74 -4t48 -8l15 -4
v-144q0 -66 -18 -127t-44 -100.5t-52 -69.5t-44 -43z" />
    <glyph glyph-name="gcommaaccent" unicode="&#x123;" horiz-adv-x="1095" 
d="M547 1718l92 -53q-3 -3 -8 -8.5t-17.5 -24t-23 -39.5t-20 -54.5t-11.5 -68.5q25 -2 45.5 -5.5t28.5 -6.5l8 -2v-209q-45 -14 -131 -14q-38 0 -71.5 3.5t-47.5 7.5l-14 3v137q0 62 17.5 119t42.5 94.5t50 66t43 41.5zM283 387q-191 89 -191 334q0 178 107 277.5t309 99.5
q141 0 233 -47l295 47q15 -38 15 -97.5t-15 -99.5l-157 21q45 -80 45 -201q0 -178 -106 -277.5t-310 -99.5q-51 0 -74 2q-30 -48 -22 -90q6 -30 36.5 -48.5t75 -26t100 -16t112 -16t110.5 -28.5t95.5 -52t67 -87.5t25.5 -133.5q0 -161 -146.5 -260.5t-393.5 -99.5
q-229 0 -341 75t-112 204q0 165 184 272q-43 46 -43 119q0 116 101 229zM508 920q-80 0 -126 -49t-46 -150q0 -100 46 -148.5t126 -48.5t125 48t45 149t-45 150t-125 49zM502 -332q143 0 216 41t73 111q0 37 -26.5 60.5t-76 35t-100.5 18t-119 16t-113 21.5
q-67 -67 -67 -151q0 -67 52.5 -109.5t160.5 -42.5z" />
    <glyph glyph-name="Hcircumflex" unicode="&#x124;" horiz-adv-x="1392" 
d="M735 1890l295 -241q-49 -89 -119 -111l-202 129l-201 -127q-71 22 -119 109l293 241h53zM967 868v588q45 19 131 19q38 0 71 -4.5t47 -9.5l13 -5v-1438q-43 -18 -129 -18q-43 0 -76 4.5t-45 9.5l-12 4v625h-541v-625q-47 -18 -131 -18q-42 0 -74.5 4.5t-44.5 9.5l-12 4
v1438q43 19 129 19q39 0 72.5 -4.5t46.5 -9.5l14 -5v-588h541z" />
    <glyph glyph-name="hcircumflex" unicode="&#x125;" 
d="M291 1909l282 -234q-49 -85 -114 -106l-195 125l-192 -123q-66 19 -115 104l283 234h51zM993 786v-770q-45 -16 -129 -16q-40 0 -72 4t-44 8l-13 4v725q0 69 -40 108.5t-124 39.5q-101 0 -180 -76v-797q-45 -16 -129 -16q-40 0 -72 4t-44 8l-13 4v1504q39 16 129 16
q37 0 69.5 -4t46.5 -8l13 -4v-521q108 99 281 99q154 0 237.5 -85t83.5 -227z" />
    <glyph glyph-name="Hbar" unicode="&#x126;" horiz-adv-x="1460" 
d="M1257 1251h154q24 -71 0 -153h-154v-1080q-43 -18 -129 -18q-43 0 -76 4.5t-45 9.5l-12 4v625h-540v-625q-47 -18 -131 -18q-42 0 -74.5 4.5t-44.5 9.5l-12 4v1080h-134q-22 83 0 153h134v205q43 19 129 19q39 0 72.5 -4.5t47.5 -9.5l13 -5v-205h540v205q45 19 131 19
q38 0 71 -4.5t47 -9.5l13 -5v-205zM455 1098v-230h540v230h-540z" />
    <glyph glyph-name="hbar" unicode="&#x127;" horiz-adv-x="1122" 
d="M393 999q108 99 281 99q154 0 237.5 -85t83.5 -227v-770q-45 -16 -129 -16q-40 0 -72 4t-44 8l-13 4v725q0 69 -40 108.5t-124 39.5q-101 0 -180 -76v-797q-45 -16 -129 -16q-40 0 -72 4t-44 8l-13 4v1225h-137q-24 82 0 154h137v125q39 16 129 16q37 0 69.5 -4t46.5 -8
l13 -4v-125h342q22 -71 0 -154h-342v-242z" />
    <glyph glyph-name="Itilde" unicode="&#x128;" horiz-adv-x="589" 
d="M412 1702q28 0 52.5 13t35.5 25l10 13q33 -15 57.5 -47t30.5 -66q-3 -4 -8.5 -11t-25 -24.5t-41 -31t-56 -24.5t-70.5 -11q-51 0 -90 16t-71 32t-66 16q-28 0 -52 -13t-34 -26l-10 -13q-76 42 -88 113q3 4 8.5 11t24.5 24.5t40.5 31t55 24.5t69.5 11q41 0 75.5 -10
t53.5 -21.5t45 -21.5t54 -10zM164 18v1438q43 19 129 19q39 0 72.5 -4.5t46.5 -9.5l14 -5v-1438q-47 -18 -131 -18q-42 0 -74.5 4.5t-44.5 9.5z" />
    <glyph glyph-name="itilde" unicode="&#x129;" horiz-adv-x="532" 
d="M367 1393q15 0 29 5.5t23 12.5t16 14.5t11 12.5l3 6q27 -15 46.5 -46t24.5 -65q-2 -4 -7 -11t-21 -24t-34 -30t-46 -24t-58 -11q-43 0 -75 15.5t-58.5 30.5t-54.5 15q-15 0 -28.5 -5t-22.5 -12t-16 -14.5t-10 -12.5l-3 -5q-65 41 -74 111q2 4 7 11t21 24t34 30t46 24
t58 11q43 0 75 -16t59 -31.5t55 -15.5zM395 1061v-1045q-45 -16 -129 -16q-40 0 -72 4t-44 8l-13 4v1045q39 16 129 16q37 0 69.5 -4t46.5 -8z" />
    <glyph glyph-name="Imacron" unicode="&#x12a;" horiz-adv-x="589" 
d="M610 1538h-624q-22 80 0 150h624q21 -69 0 -150zM164 18v1438q43 19 129 19q39 0 72.5 -4.5t46.5 -9.5l14 -5v-1438q-47 -18 -131 -18q-42 0 -74.5 4.5t-44.5 9.5z" />
    <glyph glyph-name="imacron" unicode="&#x12b;" horiz-adv-x="532" 
d="M473 1288h-410q-16 77 0 142h410q16 -69 0 -142zM395 1061v-1045q-45 -16 -129 -16q-40 0 -72 4t-44 8l-13 4v1045q39 16 129 16q37 0 69.5 -4t46.5 -8z" />
    <glyph glyph-name="Ibreve" unicode="&#x12c;" horiz-adv-x="589" 
d="M623 1706q-4 -5 -13 -14t-39.5 -31.5t-66 -40t-93.5 -31.5t-120 -14t-119.5 13.5t-95 32.5t-65.5 38.5t-41 32.5l-13 14q12 38 44 70.5t69 44.5q9 -6 26 -15.5t74.5 -25t120.5 -15.5t118 14t79 28l24 14q37 -12 68 -44.5t43 -70.5zM164 18v1438q43 19 129 19
q39 0 72.5 -4.5t46.5 -9.5l14 -5v-1438q-47 -18 -131 -18q-42 0 -74.5 4.5t-44.5 9.5z" />
    <glyph glyph-name="ibreve" unicode="&#x12d;" horiz-adv-x="532" 
d="M588 1370q-4 -6 -12.5 -15t-39 -32.5t-65 -41.5t-90.5 -33t-117 -15t-116.5 14t-91.5 34.5t-63.5 40.5t-39.5 34l-12 14q12 40 42 73.5t66 45.5q9 -6 25.5 -15.5t72.5 -25.5t117 -16t114.5 14t77.5 28l23 15q36 -12 66.5 -46t42.5 -73zM395 1061v-1045q-45 -16 -129 -16
q-40 0 -72 4t-44 8l-13 4v1045q39 16 129 16q37 0 69.5 -4t46.5 -8z" />
    <glyph glyph-name="Iogonek" unicode="&#x12e;" horiz-adv-x="591" 
d="M428 18l-12 -4q-102 -32 -151.5 -70.5t-49.5 -101.5q0 -54 31 -81t78 -27q15 0 29 2.5t21 5.5l7 2q40 -30 37 -94q-68 -39 -148 -39q-92 0 -154.5 55t-62.5 152q0 130 127 194l-14 6v1438q43 19 129 19q39 0 72.5 -4.5t46.5 -9.5l14 -5v-1438z" />
    <glyph glyph-name="iogonek" unicode="&#x12f;" horiz-adv-x="532" 
d="M137 1493q39 16 129 16q37 0 69.5 -4t46.5 -8l13 -4v-236q-45 -16 -129 -16q-40 0 -72 4t-44 8l-13 4v236zM137 1061q39 16 129 16q37 0 69.5 -4t46.5 -8l13 -4v-1045q-190 -62 -190 -200q0 -48 29.5 -65t80.5 -17q15 0 29.5 2.5t21.5 5.5l7 2q19 -14 29 -47.5t8 -65.5
q-68 -39 -148 -39q-61 0 -115.5 21t-92.5 67.5t-38 110.5q0 61 32.5 116.5t88.5 92.5v1061z" />
    <glyph glyph-name="Idotaccent" unicode="&#x130;" horiz-adv-x="589" 
d="M168 1780q39 16 129 16q37 0 69.5 -4t45.5 -8l14 -4v-236q-45 -16 -129 -16q-40 0 -72 4t-45 8l-12 4v236zM164 1456q43 19 129 19q39 0 72.5 -4.5t46.5 -9.5l14 -5v-1438q-47 -18 -131 -18q-42 0 -74.5 4.5t-44.5 9.5l-12 4v1438z" />
    <glyph glyph-name="dotlessi" unicode="&#x131;" horiz-adv-x="532" 
d="M395 1061v-1045q-45 -16 -129 -16q-40 0 -72 4t-44 8l-13 4v1045q39 16 129 16q37 0 69.5 -4t46.5 -8z" />
    <glyph glyph-name="IJ" unicode="&#x132;" horiz-adv-x="1476" 
d="M166 18v1438q43 19 129 19q39 0 72.5 -4.5t46.5 -9.5l14 -5v-1438q-47 -18 -131 -18q-42 0 -74.5 4.5t-44.5 9.5zM1057 412v1044q37 19 131 19q39 0 72 -4.5t46 -9.5l13 -5v-1044q0 -109 -32.5 -192.5t-90.5 -135.5t-135 -78t-170 -26q-75 0 -152 15t-117 31l-40 15
q-3 122 69 197q84 -31 178 -31q103 0 165.5 49t62.5 156z" />
    <glyph glyph-name="ij" unicode="&#x133;" horiz-adv-x="1077" 
d="M137 1257v236q39 16 129 16q37 0 69.5 -4t46.5 -8l13 -4v-236q-45 -16 -129 -16q-40 0 -72 4t-44 8zM807 1509h4q37 0 69.5 -4t45.5 -8l14 -4v-236q-45 -16 -129 -16h-4h-2q-40 0 -72 4t-45 8l-12 4v236q39 16 129 16h2zM137 16v1045q39 16 129 16q37 0 69.5 -4t46.5 -8
l13 -4v-1045q-45 -16 -129 -16q-40 0 -72 4t-44 8zM682 -188v1249q39 16 129 16q37 0 69.5 -4t45.5 -8l14 -4v-1241q0 -160 -78.5 -246t-230.5 -86q-38 0 -74.5 4.5t-54.5 9.5l-17 4q-8 27 -8 60q0 40 6.5 73t13.5 47l7 13q32 -8 67 -8q111 0 111 121z" />
    <glyph glyph-name="Jcircumflex" unicode="&#x134;" horiz-adv-x="927" 
d="M664 1890l294 -241q-49 -89 -118 -111l-203 129l-201 -127q-71 22 -119 109l293 241h54zM508 412v1044q37 19 131 19q39 0 72 -4.5t46 -9.5l13 -5v-1036q0 -215 -118.5 -327.5t-309.5 -112.5q-75 0 -152 15t-117 31l-40 15q-3 122 69 197q85 -31 179 -31q102 0 164.5 49
t62.5 156z" />
    <glyph glyph-name="jcircumflex" unicode="&#x135;" horiz-adv-x="532" 
d="M293 1538l289 -235q-48 -86 -117 -109l-199 127l-196 -125q-70 22 -117 107l287 235h53zM137 -188v1249q39 16 129 16q37 0 69.5 -4t46.5 -8l13 -4v-1241q0 -160 -78.5 -246t-230.5 -86q-38 0 -74.5 4.5t-53.5 9.5l-17 4q-9 27 -9 60q0 40 7 73t13 47l7 13q33 -8 68 -8
q110 0 110 121z" />
    <glyph glyph-name="Kcommaaccent" unicode="&#x136;" horiz-adv-x="1265" 
d="M518 870l404 586q70 19 131 19t139 -19l-455 -661l518 -777q-53 -18 -155 -18q-42 0 -79.5 4.5t-54.5 9.5l-16 4l-432 644h-92v-644q-37 -18 -131 -18q-37 0 -70 4.5t-47 9.5l-14 4v1438q45 19 133 19q38 0 70.5 -4.5t45.5 -9.5l13 -5v-586h92zM627 -631l-90 62
q8 9 19.5 25.5t32.5 73.5t25 120q-24 2 -44 6t-28 7l-7 3v236q45 16 129 16q37 0 69.5 -4t46.5 -8l13 -4v-154q0 -71 -17 -136t-41.5 -107t-49 -74.5t-41.5 -46.5z" />
    <glyph glyph-name="kcommaaccent" unicode="&#x137;" horiz-adv-x="1032" 
d="M459 657l254 404q53 16 129 16q31 0 63 -4t48 -8l16 -4l-299 -481l346 -564q-60 -18 -144 -18q-38 0 -73 4.5t-51 9.5l-15 4l-278 451h-62v-451q-51 -16 -127 -16q-36 0 -68.5 4t-47.5 8l-15 4v1508q53 12 131 12q30 0 62 -3t48 -6l17 -3v-867h66zM537 -631l-91 62
q3 3 7.5 9t17 27.5t22.5 45t19.5 61t11.5 76.5q-24 2 -44 6t-28 7l-8 3v236q45 16 129 16q37 0 69.5 -4t45.5 -8l14 -4v-154q0 -71 -17 -136t-41 -107t-48.5 -74.5t-41.5 -46.5z" />
    <glyph glyph-name="kgreenlandic" unicode="&#x138;" horiz-adv-x="1058" 
d="M657 645l390 -616q-54 -29 -154 -29q-41 0 -77 5t-52 10l-16 5l-263 416l-94 -117v-301q-59 -18 -127 -18q-76 0 -131 18v1047q58 12 133 12q72 0 125 -12v-426l340 426q65 12 129 12q76 0 139 -16z" />
    <glyph glyph-name="Lacute" unicode="&#x139;" horiz-adv-x="1073" 
d="M541 1804l-256 -266q-100 17 -144 78l176 280q61 7 128.5 -21t95.5 -71zM166 0v1456q43 19 129 19q39 0 72.5 -4.5t46.5 -9.5l14 -5v-1231h588q20 -47 20 -112q0 -51 -20 -113h-850z" />
    <glyph glyph-name="lacute" unicode="&#x13a;" horiz-adv-x="536" 
d="M510 1847l-256 -266q-99 17 -143 78l176 280q61 7 128 -21t95 -71zM397 1520v-1504q-45 -16 -129 -16q-40 0 -72 4t-44 8l-13 4v1504q39 16 129 16q37 0 69.5 -4t46.5 -8z" />
    <glyph glyph-name="Lcommaaccent" unicode="&#x13b;" horiz-adv-x="1073" 
d="M166 0v1456q43 19 129 19q39 0 72.5 -4.5t46.5 -9.5l14 -5v-1231h588q20 -47 20 -112q0 -51 -20 -113h-850zM567 -631l-90 62q3 3 7.5 9t17 27.5t22.5 45t19.5 61t11.5 76.5q-24 2 -44 6t-28 7l-8 3v236q45 16 129 16q37 0 69.5 -4t46.5 -8l13 -4v-154q0 -71 -17 -136
t-41.5 -107t-49 -74.5t-41.5 -46.5z" />
    <glyph glyph-name="lcommaaccent" unicode="&#x13c;" horiz-adv-x="536" 
d="M397 1520v-1504q-45 -16 -129 -16q-40 0 -72 4t-44 8l-13 4v1504q39 16 129 16q37 0 69.5 -4t46.5 -8zM233 -631l-90 62q3 3 7.5 9t17 27.5t22.5 45t19.5 61t11.5 76.5q-24 2 -44 6t-28 7l-8 3v236q45 16 129 16q37 0 69.5 -4t46.5 -8l13 -4v-154q0 -71 -17 -136
t-41.5 -107t-49 -74.5t-41.5 -46.5z" />
    <glyph glyph-name="Lcaron" unicode="&#x13d;" horiz-adv-x="1073" 
d="M627 1184q-75 16 -105 71q66 67 92 126t29 153q140 10 211 -53q-22 -105 -84 -187.5t-143 -109.5zM166 0v1456q43 19 129 19q39 0 72.5 -4.5t46.5 -9.5l14 -5v-1231h588q20 -47 20 -112q0 -51 -20 -113h-850z" />
    <glyph glyph-name="lcaron" unicode="&#x13e;" horiz-adv-x="563" 
d="M590 1178q-74 9 -111 61q58 73 77.5 134.5t12.5 154.5q136 25 215 -31q-9 -106 -62.5 -194t-131.5 -125zM397 1520v-1504q-45 -16 -129 -16q-40 0 -72 4t-44 8l-13 4v1504q39 16 129 16q37 0 69.5 -4t46.5 -8z" />
    <glyph glyph-name="Ldot" unicode="&#x13f;" horiz-adv-x="1091" 
d="M166 0v1456q43 19 129 19q39 0 72.5 -4.5t46.5 -9.5l14 -5v-1231h588q20 -47 20 -112q0 -51 -20 -113h-850zM907 784v-198q-38 -17 -110 -17q-35 0 -62.5 4.5t-38.5 8.5l-10 4v198q33 17 111 17q32 0 59.5 -4.5t39.5 -8.5z" />
    <glyph glyph-name="ldot" unicode="&#x140;" horiz-adv-x="796" 
d="M397 1520v-1504q-45 -16 -129 -16q-40 0 -72 4t-44 8l-13 4v1504q39 16 129 16q37 0 69.5 -4t46.5 -8zM778 784v-198q-38 -17 -110 -17q-35 0 -62.5 4.5t-37.5 8.5l-11 4v198q33 17 111 17q32 0 59.5 -4.5t38.5 -8.5z" />
    <glyph glyph-name="Lslash" unicode="&#x141;" horiz-adv-x="1126" 
d="M219 1456q43 19 129 19q39 0 72.5 -4.5t47.5 -9.5l13 -5v-514l236 137q62 -66 78 -135l-314 -182v-537h588q21 -49 21 -112q0 -48 -21 -113h-850v610l-137 -78q-51 51 -78 134l215 125v665z" />
    <glyph glyph-name="lslash" unicode="&#x142;" horiz-adv-x="716" 
d="M229 1520q39 16 129 16q37 0 69.5 -4t46.5 -8l13 -4v-531l123 72q20 -17 47 -60q13 -22 20.5 -40.5t8.5 -26.5l2 -8l-201 -117v-793q-45 -16 -129 -16q-40 0 -72 4t-44 8l-13 4v643l-118 -67q-21 16 -48 59q-13 22 -20.5 40.5t-8.5 26.5l-1 7l196 113v682z" />
    <glyph glyph-name="Nacute" unicode="&#x143;" horiz-adv-x="1435" 
d="M1024 1804l-256 -266q-99 17 -143 78l176 280q61 7 128 -21t95 -71zM958 18l-426 824q-35 64 -68 139t-49 119l-16 43h-8q17 -162 17 -375v-750q-39 -18 -123 -18q-36 0 -66 4.5t-41 9.5l-12 4v1438q56 19 158 19q46 0 85 -4.5t55 -9.5l15 -5l422 -819q36 -65 70 -142
t51 -121l16 -44h9q-17 172 -17 381v745q37 19 123 19q38 0 68 -4.5t41 -9.5l10 -5v-1438q-50 -18 -154 -18q-45 0 -85 4.5t-57 9.5z" />
    <glyph glyph-name="nacute" unicode="&#x144;" 
d="M770 1499l-256 -266q-99 17 -143 78l176 280q61 7 128 -21t95 -71zM993 786v-770q-45 -16 -129 -16q-40 0 -72 4t-44 8l-13 4v725q0 69 -40 108.5t-124 39.5q-101 0 -180 -76v-797q-45 -16 -129 -16q-40 0 -72 4t-44 8l-13 4v1045q39 16 129 16q37 0 69.5 -4t46.5 -8
l13 -4v-62q108 99 281 99q154 0 237.5 -85t83.5 -227z" />
    <glyph glyph-name="Ncommaaccent" unicode="&#x145;" horiz-adv-x="1435" 
d="M958 18l-426 824q-35 64 -68 139t-49 119l-16 43h-8q17 -162 17 -375v-750q-39 -18 -123 -18q-36 0 -66 4.5t-41 9.5l-12 4v1438q56 19 158 19q46 0 85 -4.5t55 -9.5l15 -5l422 -819q36 -65 70 -142t51 -121l16 -44h9q-17 172 -17 381v745q37 19 123 19q38 0 68 -4.5
t41 -9.5l10 -5v-1438q-50 -18 -154 -18q-45 0 -85 4.5t-57 9.5zM702 -631l-90 62q3 3 7.5 9t17 27.5t22.5 45t19.5 61t11.5 76.5q-24 2 -44 6t-28 7l-8 3v236q45 16 129 16q37 0 69.5 -4t45.5 -8l14 -4v-154q0 -71 -17 -136t-41.5 -107t-49 -74.5t-41.5 -46.5z" />
    <glyph glyph-name="ncommaaccent" unicode="&#x146;" horiz-adv-x="1122" 
d="M993 786v-770q-45 -16 -129 -16q-40 0 -72 4t-44 8l-13 4v725q0 69 -40 108.5t-124 39.5q-101 0 -180 -76v-797q-45 -16 -129 -16q-40 0 -72 4t-44 8l-13 4v1045q39 16 129 16q37 0 69.5 -4t46.5 -8l13 -4v-62q108 99 281 99q154 0 237.5 -85t83.5 -227zM535 -614l-91 61
q3 3 7.5 9t17 27.5t22.5 45t19.5 61t11.5 76.5q-24 2 -44 6t-28 8l-8 3v235q45 16 129 16q37 0 69.5 -4t45.5 -8l14 -4v-154q0 -71 -17 -135.5t-41 -107t-48.5 -74.5t-41.5 -47z" />
    <glyph glyph-name="Ncaron" unicode="&#x147;" horiz-adv-x="1435" 
d="M707 1538l-295 242q49 88 118 110l203 -129l201 127q72 -23 119 -108l-293 -242h-53zM958 18l-426 824q-35 64 -68 139t-49 119l-16 43h-8q17 -162 17 -375v-750q-39 -18 -123 -18q-36 0 -66 4.5t-41 9.5l-12 4v1438q56 19 158 19q46 0 85 -4.5t55 -9.5l15 -5l422 -819
q36 -65 70 -142t51 -121l16 -44h9q-17 172 -17 381v745q37 19 123 19q38 0 68 -4.5t41 -9.5l10 -5v-1438q-50 -18 -154 -18q-45 0 -85 4.5t-57 9.5z" />
    <glyph glyph-name="ncaron" unicode="&#x148;" horiz-adv-x="1122" 
d="M575 1440l185 116q63 -19 108 -100l-268 -223h-47l-270 223q43 84 108 103zM133 1061q39 16 129 16q37 0 69.5 -4t46.5 -8l13 -4v-62q108 99 281 99q154 0 237.5 -85t83.5 -227v-770q-45 -16 -129 -16q-40 0 -72 4t-44 8l-13 4v725q0 69 -40 108.5t-124 39.5
q-101 0 -180 -76v-797q-45 -16 -129 -16q-40 0 -72 4t-44 8l-13 4v1045z" />
    <glyph glyph-name="napostrophe" unicode="&#x149;" 
d="M246 1184q-75 16 -105 71q66 67 92 126t29 153q140 10 211 -53q-22 -105 -84 -187.5t-143 -109.5zM993 786v-770q-45 -16 -129 -16q-40 0 -72 4t-44 8l-13 4v725q0 69 -40 108.5t-124 39.5q-101 0 -180 -76v-797q-45 -16 -129 -16q-40 0 -72 4t-44 8l-13 4v1045
q39 16 129 16q37 0 69.5 -4t46.5 -8l13 -4v-62q108 99 281 99q154 0 237.5 -85t83.5 -227z" />
    <glyph glyph-name="Eng" unicode="&#x14a;" horiz-adv-x="1437" 
d="M1030 1456q37 19 123 19q38 0 68 -4.5t41 -9.5l10 -5v-1534q0 -160 -67.5 -252t-207.5 -137q-89 62 -86 186q55 22 79 68t24 135v84l-56 12l-426 824q-35 64 -68 139t-49 119l-16 43h-8q17 -162 17 -375v-750q-39 -18 -123 -18q-36 0 -66 4.5t-41 9.5l-12 4v1438
q56 19 158 19q46 0 85 -4.5t55 -9.5l15 -5l422 -819q36 -65 70 -142t51 -121l16 -44h9q-17 172 -17 381v745z" />
    <glyph glyph-name="eng" unicode="&#x14b;" 
d="M391 999q108 99 281 99q154 0 237.5 -85t83.5 -227v-864q0 -161 -67 -252.5t-207 -136.5q-89 62 -86 186q55 22 78.5 68t23.5 135v819q0 69 -40 108.5t-124 39.5q-101 0 -180 -76v-797q-45 -16 -129 -16q-40 0 -72 4t-44 8l-13 4v1045q39 16 129 16q37 0 69.5 -4t46.5 -8
l13 -4v-62z" />
    <glyph glyph-name="Omacron" unicode="&#x14c;" horiz-adv-x="1396" 
d="M410 1745h583q21 -69 0 -150h-583q-22 80 0 150zM106 737q0 382 156.5 570t435.5 188q280 0 436 -186.5t156 -571.5q0 -387 -154 -572t-438 -185t-438 185t-154 572zM1014 737q0 128 -14.5 223t-40.5 155.5t-66.5 97t-87 51t-107.5 14.5q-75 0 -129.5 -24t-98 -83
t-65.5 -167t-22 -267q0 -127 15 -222t41.5 -155t67 -97t86.5 -51.5t105 -14.5q77 0 131.5 24t98 83t65 167t21.5 266z" />
    <glyph glyph-name="omacron" unicode="&#x14d;" horiz-adv-x="1122" 
d="M293 1419h532q21 -64 0 -145h-532q-16 80 0 145zM90 539q0 293 122 426t349 133q228 0 349.5 -132.5t121.5 -426.5q0 -293 -122 -426t-349 -133t-349 133t-122 426zM766 539q0 107 -14 179t-42 111.5t-63.5 55.5t-85.5 16t-85.5 -16t-64 -55.5t-43 -112t-14.5 -178.5
t14.5 -179t43 -112.5t64 -55.5t85.5 -16t85.5 16t63.5 55.5t42 112t14 179.5z" />
    <glyph glyph-name="Obreve" unicode="&#x14e;" horiz-adv-x="1396" 
d="M702 1765q63 0 118.5 14t79.5 28l24 14q37 -12 67.5 -44.5t42.5 -70.5q-4 -5 -13 -14t-39.5 -31.5t-66 -40t-93.5 -31.5t-120 -14t-119.5 13.5t-94.5 32.5t-65.5 38.5t-40.5 32.5l-13 14q12 38 43.5 70.5t68.5 44.5q9 -6 26 -15.5t74.5 -25t120.5 -15.5zM106 737
q0 382 156.5 570t435.5 188q280 0 436 -186.5t156 -571.5q0 -387 -154 -572t-438 -185t-438 185t-154 572zM1014 737q0 128 -14.5 223t-40.5 155.5t-66.5 97t-87 51t-107.5 14.5q-75 0 -129.5 -24t-98 -83t-65.5 -167t-22 -267q0 -127 15 -222t41.5 -155t67 -97t86.5 -51.5
t105 -14.5q77 0 131.5 24t98 83t65 167t21.5 266z" />
    <glyph glyph-name="obreve" unicode="&#x14f;" horiz-adv-x="1122" 
d="M559 1432q61 0 114.5 14t76.5 28l24 15q36 -12 66.5 -46t42.5 -73q-4 -6 -12.5 -15t-39 -32.5t-65 -41.5t-90.5 -33t-117 -15t-116.5 14t-91.5 34.5t-63.5 40.5t-39.5 34l-12 14q12 40 42 73.5t66 45.5q9 -6 25.5 -15.5t72.5 -25.5t117 -16zM90 539q0 293 122 426
t349 133q228 0 349.5 -132.5t121.5 -426.5q0 -293 -122 -426t-349 -133t-349 133t-122 426zM766 539q0 107 -14 179t-42 111.5t-63.5 55.5t-85.5 16t-85.5 -16t-64 -55.5t-43 -112t-14.5 -178.5t14.5 -179t43 -112.5t64 -55.5t85.5 -16t85.5 16t63.5 55.5t42 112t14 179.5z
" />
    <glyph glyph-name="Ohungarumlaut" unicode="&#x150;" horiz-adv-x="1396" 
d="M412 1612l168 268q58 7 122.5 -19.5t92.5 -68.5l-246 -254q-97 17 -137 74zM745 1612l168 268q58 7 122.5 -19.5t90.5 -68.5l-243 -254q-98 17 -138 74zM106 737q0 382 156.5 570t435.5 188q280 0 436 -186.5t156 -571.5q0 -387 -154 -572t-438 -185t-438 185t-154 572z
M1014 737q0 128 -14.5 223t-40.5 155.5t-66.5 97t-87 51t-107.5 14.5q-75 0 -129.5 -24t-98 -83t-65.5 -167t-22 -267q0 -127 15 -222t41.5 -155t67 -97t86.5 -51.5t105 -14.5q77 0 131.5 24t98 83t65 167t21.5 266z" />
    <glyph glyph-name="ohungarumlaut" unicode="&#x151;" horiz-adv-x="1122" 
d="M322 1296l161 234q55 6 117 -17t88 -59l-235 -221q-93 14 -131 63zM641 1296l162 234q55 6 117 -17t88 -59l-236 -221q-93 14 -131 63zM90 539q0 293 122 426t349 133q228 0 349.5 -132.5t121.5 -426.5q0 -293 -122 -426t-349 -133t-349 133t-122 426zM766 539
q0 107 -14 179t-42 111.5t-63.5 55.5t-85.5 16t-85.5 -16t-64 -55.5t-43 -112t-14.5 -178.5t14.5 -179t43 -112.5t64 -55.5t85.5 -16t85.5 16t63.5 55.5t42 112t14 179.5z" />
    <glyph glyph-name="OE" unicode="&#x152;" horiz-adv-x="1822" 
d="M106 737q0 386 157 572t446 186q101 0 180 -20h813q20 -55 20 -105q0 -51 -20 -106h-522v-414h419q21 -58 21 -105q0 -48 -21 -106h-419v-428h542q21 -61 21 -107t-21 -104h-835q-92 -20 -178 -20q-288 0 -445.5 187t-157.5 570zM918 1237q-93 41 -209 41
q-62 0 -109.5 -14.5t-90 -51.5t-70 -97.5t-43 -155.5t-15.5 -222q0 -158 23 -266.5t68.5 -167t102 -82.5t134.5 -24q122 0 209 41v999z" />
    <glyph glyph-name="oe" unicode="&#x153;" horiz-adv-x="1654" 
d="M1552 459h-579q13 -153 68 -214t165 -61q61 0 121 12t89 24l30 11q62 -56 72 -168q-5 -3 -14 -9t-41 -20t-69 -25t-98 -20t-127 -9q-208 0 -309 131q-118 -131 -301 -131q-227 0 -349 133t-122 426t122 426t349 133q204 0 301 -140q102 140 295 140q197 0 308.5 -105.5
t111.5 -318.5q0 -58 -5.5 -112t-11.5 -78zM559 901q-50 0 -85.5 -16t-64 -55.5t-43 -112t-14.5 -178.5t14.5 -179t43 -112.5t64 -55.5t85.5 -16q66 0 104 29.5t59 110t21 223.5t-21 223t-59 109.5t-104 29.5zM1319 705q0 192 -164 192q-80 0 -123.5 -60t-56.5 -200h340
q4 46 4 68z" />
    <glyph glyph-name="Racute" unicode="&#x154;" horiz-adv-x="1288" 
d="M428 1616l176 280q61 7 128 -21t95 -71l-256 -266q-99 17 -143 78zM166 1475h539q206 0 331 -122t125 -321q0 -152 -75 -262t-207 -154l356 -598q-54 -18 -156 -18q-42 0 -78.5 4.5t-52.5 9.5l-16 4l-338 572h-166v-572q-43 -18 -129 -18q-43 0 -76 4.5t-45 9.5l-12 4
v1457zM428 1257v-450h240q107 0 163 58.5t56 166.5t-56 166.5t-163 58.5h-240z" />
    <glyph glyph-name="racute" unicode="&#x155;" horiz-adv-x="813" 
d="M268 1311l176 280q61 7 128.5 -21t95.5 -71l-256 -266q-100 17 -144 78zM391 944q112 152 227 152q98 0 181 -54q-11 -132 -111 -219q-54 45 -119 45q-102 0 -178 -106v-746q-45 -16 -129 -16q-40 0 -72 4t-44 8l-13 4v1045q39 16 129 16q37 0 69.5 -4t46.5 -8l13 -4
v-117z" />
    <glyph glyph-name="Rcommaaccent" unicode="&#x156;" horiz-adv-x="1288" 
d="M166 1475h539q206 0 331 -122t125 -321q0 -152 -75 -262t-207 -154l356 -598q-54 -18 -156 -18q-42 0 -78.5 4.5t-52.5 9.5l-16 4l-338 572h-166v-572q-43 -18 -129 -18q-43 0 -76 4.5t-45 9.5l-12 4v1457zM428 1257v-450h240q107 0 163 58.5t56 166.5t-56 166.5
t-163 58.5h-240zM537 -98q45 16 129 16q37 0 69.5 -4t46.5 -8l13 -4v-154q0 -71 -17 -136t-41.5 -107t-49 -74.5t-41.5 -46.5l-17 -15l-90 62q8 9 19.5 25.5t32.5 73.5t25 120q-24 2 -44 6t-28 7l-7 3v236z" />
    <glyph glyph-name="rcommaaccent" unicode="&#x157;" horiz-adv-x="813" 
d="M391 944q112 152 227 152q98 0 181 -54q-11 -132 -111 -219q-54 45 -119 45q-102 0 -178 -106v-746q-45 -16 -129 -16q-40 0 -72 4t-44 8l-13 4v1045q39 16 129 16q37 0 69.5 -4t46.5 -8l13 -4v-117zM135 -98q45 16 129 16q37 0 69.5 -4t46.5 -8l13 -4v-154
q0 -71 -17 -136t-41.5 -107t-49 -74.5t-41.5 -46.5l-17 -15l-90 62q3 3 7.5 9t17 27.5t22.5 45t19.5 61t11.5 76.5q-24 2 -44 6t-28 7l-8 3v236z" />
    <glyph glyph-name="Rcaron" unicode="&#x158;" horiz-adv-x="1288" 
d="M598 1761l201 127q72 -23 119 -108l-293 -242h-54l-295 242q48 88 119 110zM166 1475h539q206 0 331 -122t125 -321q0 -152 -75 -262t-207 -154l356 -598q-54 -18 -156 -18q-42 0 -78.5 4.5t-52.5 9.5l-16 4l-338 572h-166v-572q-43 -18 -129 -18q-43 0 -76 4.5t-45 9.5
l-12 4v1457zM428 1257v-450h240q107 0 163 58.5t56 166.5t-56 166.5t-163 58.5h-240z" />
    <glyph glyph-name="rcaron" unicode="&#x159;" horiz-adv-x="813" 
d="M412 1440l184 116q64 -19 109 -100l-269 -223h-47l-270 223q43 84 108 103zM391 944q112 152 227 152q98 0 181 -54q-11 -132 -111 -219q-54 45 -119 45q-102 0 -178 -106v-746q-45 -16 -129 -16q-40 0 -72 4t-44 8l-13 4v1045q39 16 129 16q37 0 69.5 -4t46.5 -8l13 -4
v-117z" />
    <glyph glyph-name="Sacute" unicode="&#x15a;" horiz-adv-x="1171" 
d="M874 1808l-274 -247q-98 23 -137 88l194 268q61 3 126.5 -30.5t90.5 -78.5zM655 1274q-293 0 -293 -199q0 -33 16.5 -60t40 -45t65.5 -37t77 -31t91.5 -31t92.5 -33q58 -22 103 -45t92 -59t77.5 -78t50 -103t19.5 -133q0 -215 -133.5 -327.5t-394.5 -112.5
q-125 0 -239 22.5t-166 45.5l-52 22q-3 59 14 115.5t48 93.5q22 -7 60 -17.5t139.5 -28.5t185.5 -18q140 0 205 49.5t65 149.5q0 37 -15 67.5t-36.5 52t-60 41.5t-71 32.5t-83.5 29.5q-162 54 -217 80q-165 77 -212 209q-22 61 -22 137q0 200 131 316t385 116
q113 0 216 -15.5t150 -30.5l46 -15q0 -136 -69 -205q-15 5 -42 12.5t-107.5 20t-156.5 12.5z" />
    <glyph glyph-name="sacute" unicode="&#x15b;" horiz-adv-x="911" 
d="M690 1499l-256 -266q-99 17 -143 78l176 280q61 7 128 -21t95 -71zM92 766q0 154 100 243t295 89q97 0 172.5 -15t102.5 -30l26 -15q0 -120 -65 -182q-96 33 -209 33q-176 0 -176 -115q0 -20 10 -36t22.5 -27t39.5 -22t46 -17t56.5 -17t58.5 -18q45 -15 79 -30t72.5 -41
t62.5 -58t40.5 -80.5t16.5 -108.5q0 -164 -101.5 -251.5t-300.5 -87.5q-62 0 -121.5 8t-100 19.5t-71.5 22.5t-46 19l-15 8q0 124 70 191q133 -49 272 -49q160 0 160 114q0 24 -11.5 44t-25 32t-45 25.5t-50 19.5t-61.5 18q-16 5 -24 7q-49 15 -81.5 27.5t-73.5 38
t-65.5 55.5t-41.5 78t-17 108z" />
    <glyph glyph-name="Scircumflex" unicode="&#x15c;" horiz-adv-x="1171" 
d="M643 1909l295 -242q-49 -89 -119 -111l-203 130l-200 -127q-72 23 -119 108l293 242h53zM655 1274q-293 0 -293 -199q0 -33 17 -60.5t42 -46t68 -38t79.5 -31.5t93 -31t94.5 -34q56 -22 100 -45t89 -58.5t75 -77.5t48.5 -102t18.5 -131q0 -215 -133.5 -327.5
t-394.5 -112.5q-125 0 -239 22.5t-166 45.5l-52 22q-3 59 14 115.5t48 93.5q22 -7 60 -17.5t139.5 -28.5t185.5 -18q140 0 205 49.5t65 149.5q0 64 -48 111t-94.5 66.5t-152.5 54.5l-9 3t-8 3t-9 3q-57 18 -96.5 33.5t-90 40t-84 54t-64.5 69.5t-46 93.5t-15 117.5
q0 200 131 316t385 116q113 0 216 -15.5t150 -30.5l46 -15q0 -57 -17.5 -112.5t-51.5 -92.5q-15 5 -42 12.5t-107.5 20t-156.5 12.5z" />
    <glyph glyph-name="scircumflex" unicode="&#x15d;" horiz-adv-x="911" 
d="M496 1546l288 -235q-48 -88 -116 -109l-197 125l-197 -123q-69 22 -116 107l286 235h52zM92 766q0 154 100 243t295 89q97 0 172.5 -15t102.5 -30l26 -15q0 -120 -65 -182q-96 33 -209 33q-176 0 -176 -115q0 -25 13.5 -44t43.5 -33.5t57 -23.5t74.5 -22.5t75.5 -23.5
q51 -18 89.5 -40.5t75 -57.5t56 -88.5t19.5 -121.5q0 -164 -101.5 -251.5t-300.5 -87.5q-62 0 -121.5 8t-100 19.5t-71.5 22.5t-46 19l-15 8q0 124 70 191q133 -49 272 -49q160 0 160 114q0 39 -30 67t-60.5 39.5t-98.5 31.5l-10.5 3.5t-9.5 2.5q-50 15 -82.5 27.5
t-75.5 37.5t-68 55t-43 79t-18 110z" />
    <glyph glyph-name="Scedilla" unicode="&#x15e;" horiz-adv-x="1171" 
d="M750 836q73 -28 127.5 -59t105 -79.5t77.5 -118.5t27 -159q0 -198 -113 -309.5t-335 -128.5l-18 -101q206 0 206 -200q0 -101 -68 -154t-188 -53q-56 0 -103.5 12t-67.5 24l-19 13q-2 32 12 60.5t39 43.5q54 -26 125 -26q117 0 117 88q0 38 -25 61t-76 23h-79l-29 32
l33 177q-109 4 -208 26t-144 42l-44 20q-3 59 14 115.5t48 93.5q22 -7 60 -17.5t139.5 -28.5t185.5 -18q140 0 205 49.5t65 149.5q0 33 -9.5 60t-32 49t-44 37.5t-61 32t-66.5 25.5t-76 25q-164 54 -233 93q-167 93 -191 263q-4 31 -4 64q0 200 131 316t385 116
q113 0 216 -15.5t150 -30.5l46 -15q0 -136 -69 -205q-15 5 -42 12.5t-107.5 20t-156.5 12.5q-293 0 -293 -199q0 -33 16.5 -60t41 -45.5t67 -37.5t78.5 -31t92 -31t93 -34z" />
    <glyph glyph-name="scedilla" unicode="&#x15f;" horiz-adv-x="913" 
d="M92 766q0 154 100 243t295 89q97 0 172.5 -15t102.5 -30l26 -15q0 -120 -65 -182q-96 33 -209 33q-176 0 -176 -115q0 -20 10 -36.5t23.5 -27t40.5 -22t46.5 -18t57 -17.5t57.5 -18q44 -14 78.5 -29t72 -41t62 -58t40.5 -80.5t16 -107.5q0 -150 -84 -236t-250 -101
l-16 -91q202 0 202 -192q0 -96 -67 -147.5t-183 -51.5q-56 0 -102.5 12t-65.5 24l-18 11q-1 31 12.5 58.5t36.5 42.5q56 -27 123 -27q115 0 115 86q0 36 -24.5 58t-74.5 22h-77l-29 31l31 164q-80 6 -151.5 25t-102.5 35l-31 15q0 124 70 191q133 -49 272 -49q160 0 160 114
q0 39 -31 67t-59 38.5t-99 31.5q-15 5 -22 7q-41 12 -69 22.5t-64.5 28.5t-60.5 40t-46.5 52.5t-33.5 72.5t-11 93z" />
    <glyph glyph-name="Scaron" unicode="&#x160;" horiz-adv-x="1171" 
d="M600 1565l-295 225q49 89 119 111l203 -129l200 126q72 -23 119 -108l-293 -225h-53zM655 1274q-293 0 -293 -199q0 -31 15.5 -57.5t36 -44t62 -37t71 -30t87 -30t87.5 -30.5q62 -23 108.5 -45t98 -58t84 -79t54 -105.5t21.5 -138.5q0 -215 -133.5 -327.5t-394.5 -112.5
q-125 0 -239 22.5t-166 45.5l-52 22q0 113 62 209q22 -7 60 -17.5t139.5 -28.5t185.5 -18q140 0 205 49.5t65 149.5q0 39 -17 71.5t-40.5 53.5t-68 42.5t-77.5 33.5t-92 30h-1l-1 1h-1h-1l-1 1h-1h-1l-2 1q-164 55 -236 98q-166 101 -176 290q-1 13 -1 27q0 200 131 316
t385 116q113 0 216 -15.5t150 -30.5l46 -15q0 -56 -18 -111t-51 -94q-15 5 -42 12.5t-107.5 20t-156.5 12.5z" />
    <glyph glyph-name="scaron" unicode="&#x161;" horiz-adv-x="913" 
d="M440 1233l-266 219q46 79 109 98l182 -116l182 116q63 -22 107 -98l-265 -219h-49zM92 766q0 154 100 243t295 89q97 0 172.5 -15t102.5 -30l26 -15q0 -120 -65 -182q-96 33 -209 33q-176 0 -176 -115q0 -17 5.5 -30.5t19 -25t25.5 -19.5t36.5 -16.5t39.5 -13.5t47.5 -14
t47.5 -14q48 -15 82.5 -29.5t75 -41t65.5 -58.5t42.5 -82t17.5 -111q0 -164 -101.5 -251.5t-300.5 -87.5q-62 0 -121.5 8t-100 19.5t-71.5 22.5t-46 19l-15 8q0 124 70 191q133 -49 272 -49q160 0 160 114q0 29 -14.5 51.5t-40.5 37t-59 26.5t-71 23q-15 4 -22 6
q-42 13 -69 23t-65 27.5t-62 39.5t-47.5 52.5t-34.5 72.5t-11 94z" />
    <glyph glyph-name="Tcommaaccent" unicode="&#x162;" horiz-adv-x="1132" 
d="M68 1475h997q20 -50 20 -111q0 -29 -5 -58t-10 -43l-5 -14h-363v-1231q-47 -18 -131 -18q-42 0 -74.5 4.5t-44.5 9.5l-12 4v1231h-372q-21 43 -21 111q0 29 5.5 58t10.5 43zM537 -631l-91 62q3 3 7.5 9t17 27.5t22.5 45t19.5 61t11.5 76.5q-24 2 -44 6t-28 7l-8 3v236
q45 16 129 16q37 0 69.5 -4t45.5 -8l14 -4v-154q0 -71 -17 -136t-41 -107t-48.5 -74.5t-41.5 -46.5z" />
    <glyph glyph-name="Tcommaaccent" unicode="&#x21a;" horiz-adv-x="1132" 
d="M68 1475h997q20 -50 20 -111q0 -29 -5 -58t-10 -43l-5 -14h-363v-1231q-47 -18 -131 -18q-42 0 -74.5 4.5t-44.5 9.5l-12 4v1231h-372q-21 43 -21 111q0 29 5.5 58t10.5 43zM537 -631l-91 62q3 3 7.5 9t17 27.5t22.5 45t19.5 61t11.5 76.5q-24 2 -44 6t-28 7l-8 3v236
q45 16 129 16q37 0 69.5 -4t45.5 -8l14 -4v-154q0 -71 -17 -136t-41 -107t-48.5 -74.5t-41.5 -46.5z" />
    <glyph glyph-name="tcommaaccent" unicode="&#x163;" horiz-adv-x="794" 
d="M467 887v-488q0 -125 45.5 -169t149.5 -44l71 7q19 -46 19 -103q0 -24 -4 -47t-8 -34l-3 -11q-63 -18 -151 -18q-194 0 -285.5 101t-91.5 306v500h-156q-14 37 -14 94q0 28 3.5 52t7.5 34l3 10h156v176q107 65 258 52v-228h242q14 -35 14 -94q0 -24 -3.5 -48t-7.5 -36
l-3 -12h-242zM461 -631l-90 62q3 3 7.5 9t17 27.5t22.5 45t19.5 61t11.5 76.5q-24 2 -44 6t-28 7l-8 3v236q45 16 129 16q37 0 69.5 -4t46.5 -8l13 -4v-154q0 -71 -17 -136t-41.5 -107t-49 -74.5t-41.5 -46.5z" />
    <glyph glyph-name="tcommaaccent" unicode="&#x21b;" horiz-adv-x="794" 
d="M467 887v-488q0 -125 45.5 -169t149.5 -44l71 7q19 -46 19 -103q0 -24 -4 -47t-8 -34l-3 -11q-63 -18 -151 -18q-194 0 -285.5 101t-91.5 306v500h-156q-14 37 -14 94q0 28 3.5 52t7.5 34l3 10h156v176q107 65 258 52v-228h242q14 -35 14 -94q0 -24 -3.5 -48t-7.5 -36
l-3 -12h-242zM461 -631l-90 62q3 3 7.5 9t17 27.5t22.5 45t19.5 61t11.5 76.5q-24 2 -44 6t-28 7l-8 3v236q45 16 129 16q37 0 69.5 -4t46.5 -8l13 -4v-154q0 -71 -17 -136t-41.5 -107t-49 -74.5t-41.5 -46.5z" />
    <glyph glyph-name="Tcaron" unicode="&#x164;" horiz-adv-x="1132" 
d="M547 1538l-295 242q48 88 119 110l202 -129l201 127q72 -23 119 -108l-293 -242h-53zM68 1475h997q20 -50 20 -111q0 -29 -5 -58t-10 -43l-5 -14h-363v-1231q-47 -18 -131 -18q-42 0 -74.5 4.5t-44.5 9.5l-12 4v1231h-372q-21 43 -21 111q0 29 5.5 58t10.5 43z" />
    <glyph glyph-name="tcaron" unicode="&#x165;" horiz-adv-x="794" 
d="M653 1184q-74 16 -104 71q66 67 92 126t29 153q140 10 211 -53q-22 -105 -84.5 -187t-143.5 -110zM467 887v-488q0 -125 45.5 -169t149.5 -44l71 7q19 -46 19 -103q0 -24 -4 -47t-8 -34l-3 -11q-63 -18 -151 -18q-194 0 -285.5 101t-91.5 306v500h-156q-14 37 -14 94
q0 28 3.5 52t7.5 34l3 10h156v176q107 65 258 52v-228h242q14 -35 14 -94q0 -24 -3.5 -48t-7.5 -36l-3 -12h-242z" />
    <glyph glyph-name="Tbar" unicode="&#x166;" horiz-adv-x="1175" 
d="M725 780h272q24 -71 0 -153h-272v-609q-47 -18 -131 -18q-42 0 -74.5 4.5t-44.5 9.5l-12 4v609h-285q-22 83 0 153h285v469h-373q-20 43 -20 111q0 29 5 58t10 43l5 14h997q21 -50 21 -111q0 -29 -5 -58t-11 -43l-5 -14h-362v-469z" />
    <glyph glyph-name="tbar" unicode="&#x167;" horiz-adv-x="798" 
d="M666 186l71 7q19 -46 19 -103q0 -24 -4 -47t-8 -34l-3 -11q-63 -18 -151 -18q-194 0 -285.5 101t-91.5 306v117h-135q-22 83 0 153h135v230h-156q-14 37 -14 94q0 28 3.5 52t7.5 34l3 10h156v176q107 65 258 52v-228h242q14 -35 14 -94q0 -24 -3.5 -48t-7.5 -36l-3 -12
h-242v-230h221q24 -71 0 -153h-221v-105q0 -125 45.5 -169t149.5 -44z" />
    <glyph glyph-name="Utilde" unicode="&#x168;" horiz-adv-x="1378" 
d="M827 1700q29 0 54.5 13t36.5 25l10 13q34 -15 59 -46.5t31 -66.5q-3 -4 -9 -11t-25.5 -24t-41.5 -30t-57 -24t-72 -11q-53 0 -93 15t-72.5 30.5t-67.5 15.5q-29 0 -54.5 -12.5t-35.5 -25.5l-11 -13q-79 43 -90 113q3 4 9 11t25.5 24t41.5 30t57 24t72 11q53 0 93 -15.5
t72.5 -30.5t67.5 -15zM1223 1456v-940q0 -255 -144 -395.5t-391 -140.5q-245 0 -388.5 142.5t-143.5 393.5v940q43 19 129 19q39 0 72.5 -4.5t46.5 -9.5l14 -5v-981q0 -130 71.5 -202t202.5 -72t202 72t71 202v981q41 19 127 19q38 0 71 -4.5t47 -9.5z" />
    <glyph glyph-name="utilde" unicode="&#x169;" 
d="M246 1362q3 4 9 11t25.5 25t41.5 32t57 25t72 11q53 0 93 -16.5t72.5 -32.5t67.5 -16q29 0 54 13.5t36 26.5l10 13q34 -15 59 -48t31 -69q-3 -4 -8.5 -11t-25.5 -25t-42 -32t-56.5 -25t-71.5 -11q-53 0 -93.5 16.5t-73 32.5t-67.5 16q-29 0 -54 -13t-36 -27l-10 -13
q-78 43 -90 117zM729 1061q45 16 129 16q40 0 72 -4t44 -8l13 -4v-1045q-39 -16 -129 -16q-37 0 -69.5 4t-46.5 8l-13 4v62q-107 -98 -280 -98q-155 0 -238.5 84.5t-83.5 226.5v770q45 16 129 16q40 0 72 -4t44 -8l13 -4v-725q0 -69 40 -108.5t124 -39.5q104 0 180 76v797z
" />
    <glyph glyph-name="Umacron" unicode="&#x16a;" horiz-adv-x="1378" 
d="M1004 1614h-625q-22 79 0 149h625q20 -69 0 -149zM1223 1456v-940q0 -255 -144 -395.5t-391 -140.5q-245 0 -388.5 142.5t-143.5 393.5v940q43 19 129 19q39 0 72.5 -4.5t46.5 -9.5l14 -5v-981q0 -130 71.5 -202t202.5 -72t202 72t71 202v981q41 19 127 19q38 0 71 -4.5
t47 -9.5z" />
    <glyph glyph-name="umacron" unicode="&#x16b;" 
d="M307 1432h510q21 -61 0 -138h-510q-16 77 0 138zM729 1061q45 16 129 16q40 0 72 -4t44 -8l13 -4v-1045q-39 -16 -129 -16q-37 0 -69.5 4t-46.5 8l-13 4v62q-107 -98 -280 -98q-155 0 -238.5 84.5t-83.5 226.5v770q45 16 129 16q40 0 72 -4t44 -8l13 -4v-725
q0 -69 40 -108.5t124 -39.5q104 0 180 76v797z" />
    <glyph glyph-name="Ubreve" unicode="&#x16c;" horiz-adv-x="1378" 
d="M1034 1706q-4 -5 -13 -14t-39.5 -31.5t-66 -40t-93.5 -31.5t-120 -14t-119.5 13.5t-94.5 32.5t-65.5 38.5t-40.5 32.5l-13 14q12 38 43.5 70.5t68.5 44.5q9 -6 26 -15.5t74.5 -25t120.5 -15.5t118.5 14t79.5 28l24 14q37 -12 67.5 -44.5t42.5 -70.5zM1223 1456v-940
q0 -255 -144 -395.5t-391 -140.5q-245 0 -388.5 142.5t-143.5 393.5v940q43 19 129 19q39 0 72.5 -4.5t46.5 -9.5l14 -5v-981q0 -130 71.5 -202t202.5 -72t202 72t71 202v981q41 19 127 19q38 0 71 -4.5t47 -9.5z" />
    <glyph glyph-name="ubreve" unicode="&#x16d;" 
d="M555 1432q61 0 114.5 14t76.5 28l24 15q36 -12 66.5 -46t42.5 -73q-4 -6 -12.5 -15t-39 -32.5t-65 -41.5t-90.5 -33t-117 -15t-116.5 14t-91.5 34.5t-63.5 40.5t-39.5 34l-13 14q12 39 42.5 73t66.5 46q9 -6 25.5 -15.5t72.5 -25.5t117 -16zM729 1061q45 16 129 16
q40 0 72 -4t44 -8l13 -4v-1045q-39 -16 -129 -16q-37 0 -69.5 4t-46.5 8l-13 4v62q-107 -98 -280 -98q-155 0 -238.5 84.5t-83.5 226.5v770q45 16 129 16q40 0 72 -4t44 -8l13 -4v-725q0 -69 40 -108.5t124 -39.5q104 0 180 76v797z" />
    <glyph glyph-name="Uring" unicode="&#x16e;" horiz-adv-x="1378" 
d="M698 1556q-109 0 -179 63t-70 173q0 108 73.5 168.5t177.5 60.5q102 0 178 -60t76 -169q0 -110 -73.5 -173t-182.5 -63zM815 1792q0 45 -31 77t-86 32q-53 0 -82.5 -32.5t-29.5 -76.5q0 -45 29 -77t83 -32q55 0 86 33t31 76zM1223 1456v-940q0 -255 -144 -395.5
t-391 -140.5q-245 0 -388.5 142.5t-143.5 393.5v940q43 19 129 19q39 0 72.5 -4.5t46.5 -9.5l14 -5v-981q0 -130 71.5 -202t202.5 -72t202 72t71 202v981q41 19 127 19q38 0 71 -4.5t47 -9.5z" />
    <glyph glyph-name="uring" unicode="&#x16f;" 
d="M307 1436q0 108 74 168.5t178 60.5q102 0 178 -60t76 -169q0 -110 -73.5 -173t-182.5 -63t-179.5 63t-70.5 173zM674 1436q0 44 -31 76t-86 32q-54 0 -83.5 -32.5t-29.5 -75.5q0 -45 29.5 -77t83.5 -32q55 0 86 33t31 76zM729 1061q45 16 129 16q40 0 72 -4t44 -8l13 -4
v-1045q-39 -16 -129 -16q-37 0 -69.5 4t-46.5 8l-13 4v62q-107 -98 -280 -98q-155 0 -238.5 84.5t-83.5 226.5v770q45 16 129 16q40 0 72 -4t44 -8l13 -4v-725q0 -69 40 -108.5t124 -39.5q104 0 180 76v797z" />
    <glyph glyph-name="Uhungarumlaut" unicode="&#x170;" horiz-adv-x="1378" 
d="M805 1796l-248 -258q-95 13 -137 76l170 272q58 7 123 -20.5t92 -69.5zM1141 1796l-246 -258q-97 14 -139 76l170 272q59 7 123.5 -20.5t91.5 -69.5zM1223 1456v-940q0 -255 -144 -395.5t-391 -140.5q-245 0 -388.5 142.5t-143.5 393.5v940q43 19 129 19q39 0 72.5 -4.5
t46.5 -9.5l14 -5v-981q0 -130 71.5 -202t202.5 -72t202 72t71 202v981q41 19 127 19q38 0 71 -4.5t47 -9.5z" />
    <glyph glyph-name="uhungarumlaut" unicode="&#x171;" 
d="M659 1477l-235 -244q-92 13 -131 72l162 256q56 7 117.5 -18.5t86.5 -65.5zM981 1477l-236 -244q-91 13 -133 72l162 256q56 7 118 -18.5t89 -65.5zM127 291v770q45 16 129 16q40 0 72 -4t44 -8l13 -4v-725q0 -69 40 -108.5t124 -39.5q104 0 180 76v797q45 16 129 16
q40 0 72 -4t44 -8l13 -4v-1045q-39 -16 -129 -16q-37 0 -69.5 4t-46.5 8l-13 4v62q-107 -98 -280 -98q-155 0 -238.5 84.5t-83.5 226.5z" />
    <glyph glyph-name="Uogonek" unicode="&#x172;" horiz-adv-x="1378" 
d="M965 1456q41 19 127 19q38 0 71 -4.5t47 -9.5l13 -5v-940q0 -200 -91 -332t-253 -180q-108 -34 -160.5 -73t-52.5 -103q0 -54 31 -81.5t77 -27.5q15 0 29 2.5t21 5.5l7 3q40 -30 37 -95q-67 -38 -147 -38q-92 0 -154.5 54.5t-62.5 151.5q0 118 100 181
q-208 25 -328 164.5t-120 367.5v940q43 19 129 19q39 0 72.5 -4.5t46.5 -9.5l14 -5v-981q0 -130 71.5 -202t202.5 -72t202 72t71 202v981z" />
    <glyph glyph-name="uogonek" unicode="&#x173;" 
d="M729 1061q45 16 129 16q40 0 72 -4t44 -8l13 -4v-1045q-192 -65 -192 -204q0 -22 8.5 -37.5t20 -23.5t31 -12.5t34 -5.5t35.5 -1q15 0 29 2.5t21 5.5l7 2q19 -14 29 -45.5t8 -63.5q-68 -39 -148 -39q-97 0 -167 49t-70 144q0 135 104 207l-8 84q-107 -98 -280 -98
q-155 0 -238.5 84.5t-83.5 226.5v770q45 16 129 16q40 0 72 -4t44 -8l13 -4v-725q0 -69 40 -108.5t124 -39.5q104 0 180 76v797z" />
    <glyph glyph-name="Wcircumflex" unicode="&#x174;" horiz-adv-x="1994" 
d="M1036 1890l295 -241q-49 -89 -119 -111l-202 129l-201 -127q-71 22 -119 109l293 241h53zM1245 18l-186 842q-21 96 -33.5 183.5t-15.5 126.5l-2 40h-11q-6 -133 -53 -350l-184 -842q-74 -18 -174 -18q-86 0 -156 18l-383 1438q43 19 131 19q40 0 72.5 -4.5t45.5 -9.5
l13 -5l234 -876q16 -63 32 -139t23 -121l8 -44h8q21 159 54 302l200 878q44 19 140 19q44 0 80 -4.5t50 -9.5l13 -5l199 -876q16 -68 28 -144t16 -118l5 -42h8q20 140 63 302l238 878q49 19 119 19q34 0 64.5 -4.5t44.5 -9.5l14 -5l-389 -1438q-62 -18 -154 -18
q-40 0 -80.5 4.5t-60.5 9.5z" />
    <glyph glyph-name="wcircumflex" unicode="&#x175;" horiz-adv-x="1630" 
d="M862 1577l289 -236q-47 -86 -117 -108l-196 125l-197 -123q-71 22 -117 106l287 236h51zM995 16l-121 488q-37 146 -49 313h-8q-12 -171 -51 -313l-125 -488q-63 -16 -152 -16q-92 0 -155 16l-293 1045q47 16 129 16q39 0 67 -4t36 -8l8 -4l165 -594q27 -96 43 -215h7
q21 126 45 217l151 592q66 16 144 16q37 0 69 -4t45 -8l13 -4l145 -590q27 -117 41 -219h6q16 93 51 217l166 592q41 16 113 16q35 0 62 -4t37 -8l9 -4l-293 -1045q-68 -16 -151 -16t-154 16z" />
    <glyph glyph-name="Ycircumflex" unicode="&#x176;" horiz-adv-x="1314" 
d="M705 1890l294 -241q-49 -89 -118 -111l-203 129l-201 -127q-71 22 -119 109l293 241h54zM1012 1456q47 19 135 19q37 0 73.5 -4.5t53.5 -9.5l18 -5l-506 -842v-596q-43 -18 -127 -18q-42 0 -75.5 4.5t-46.5 9.5l-13 4v590l-491 848q56 19 160 19q42 0 78.5 -4.5
t52.5 -9.5l16 -5l334 -579z" />
    <glyph glyph-name="ycircumflex" unicode="&#x177;" horiz-adv-x="1085" 
d="M573 1577l289 -236q-47 -86 -117 -108l-196 125l-197 -123q-70 22 -116 106l286 236h51zM1049 1061l-361 -1178q-22 -70 -41 -118t-44.5 -96.5t-55 -79t-69 -55t-90 -35.5t-114.5 -11q-32 0 -61.5 6t-42.5 12l-14 5q-19 43 -19 96q0 25 4.5 50.5t9.5 38.5l5 13
q51 -8 94 -8q35 0 54.5 3t42.5 14.5t39 35t34 64t37 102.5l24 80q-44 0 -80 16l-368 1045q49 16 133 16q39 0 72.5 -4t47.5 -8l13 -4l193 -549q24 -68 41.5 -132.5t23.5 -95.5l6 -30h8q19 102 66 258l166 549q41 16 125 16q33 0 63 -4t44 -8z" />
    <glyph glyph-name="Ydieresis" unicode="&#x178;" horiz-adv-x="1314" 
d="M379 1751q34 14 110 14q32 0 59.5 -3.5t39.5 -7.5l12 -3v-199q-39 -14 -111 -14q-34 0 -61.5 3.5t-37.5 6.5l-11 4v199zM750 1751q34 14 110 14q32 0 59.5 -3.5t39.5 -7.5l12 -3v-199q-39 -14 -111 -14q-34 0 -61.5 3.5t-38.5 6.5l-10 4v199zM1012 1456q47 19 135 19
q37 0 73.5 -4.5t53.5 -9.5l18 -5l-506 -842v-596q-43 -18 -127 -18q-42 0 -75.5 4.5t-46.5 9.5l-13 4v590l-491 848q56 19 160 19q42 0 78.5 -4.5t52.5 -9.5l16 -5l334 -579z" />
    <glyph glyph-name="Zacute" unicode="&#x179;" horiz-adv-x="1230" 
d="M475 1616l176 280q61 7 128 -21t95 -71l-256 -266q-99 17 -143 78zM145 1475h961q18 -40 18 -109q0 -68 -18 -121l-729 -1014h756q14 -58 14 -110q0 -66 -14 -121h-1045q-18 58 -18 119q0 59 18 112l717 1014h-660q-14 52 -14 123q0 64 14 107z" />
    <glyph glyph-name="zacute" unicode="&#x17a;" horiz-adv-x="968" 
d="M752 1499l-256 -266q-100 17 -144 78l176 280q61 7 128.5 -21t95.5 -71zM362 211h504q17 -39 17 -107q0 -27 -4.5 -53t-8.5 -39l-4 -12h-776q-14 49 -14 111q0 57 14 100l510 655h-483q-15 48 -15 109q0 28 4 53.5t8 37.5l3 11h753q15 -40 15 -98q0 -63 -15 -113z" />
    <glyph glyph-name="Zdotaccent" unicode="&#x17b;" horiz-adv-x="1230" 
d="M502 1800q34 15 116 15q34 0 63 -3.5t41 -7.5l13 -4v-211q-41 -14 -117 -14q-36 0 -65 3.5t-40 7.5l-11 3v211zM145 1475h961q18 -40 18 -109q0 -68 -18 -121l-729 -1014h756q14 -58 14 -110q0 -66 -14 -121h-1045q-18 58 -18 119q0 59 18 112l717 1014h-660
q-14 52 -14 123q0 64 14 107z" />
    <glyph glyph-name="zdotaccent" unicode="&#x17c;" horiz-adv-x="968" 
d="M625 1458v-211q-41 -14 -117 -14q-36 0 -65.5 3.5t-40.5 7.5l-11 3v211q35 15 117 15q34 0 63 -3.5t41 -7.5zM362 211h504q17 -39 17 -107q0 -27 -4.5 -53t-8.5 -39l-4 -12h-776q-14 49 -14 111q0 57 14 100l510 655h-483q-15 48 -15 109q0 28 4 53.5t8 37.5l3 11h753
q15 -40 15 -98q0 -63 -15 -113z" />
    <glyph glyph-name="Zcaron" unicode="&#x17d;" horiz-adv-x="1230" 
d="M625 1761l200 127q72 -23 119 -108l-293 -242h-53l-295 242q48 88 119 110zM145 1475h961q18 -40 18 -109q0 -68 -18 -121l-729 -1014h756q14 -58 14 -110q0 -66 -14 -121h-1045q-18 58 -18 119q0 59 18 112l717 1014h-660q-14 52 -14 123q0 64 14 107z" />
    <glyph glyph-name="zcaron" unicode="&#x17e;" horiz-adv-x="970" 
d="M481 1233l-266 219q43 77 107 100l182 -116l182 114q64 -20 107 -98l-265 -219h-47zM362 211h504q17 -39 17 -107q0 -27 -4.5 -53t-8.5 -39l-4 -12h-776q-14 49 -14 111q0 57 14 100l510 655h-483q-15 48 -15 109q0 28 4 53.5t8 37.5l3 11h753q15 -40 15 -98
q0 -63 -15 -113z" />
    <glyph glyph-name="longs" unicode="&#x17f;" horiz-adv-x="638" 
d="M463 1210v-1194q-45 -16 -129 -16q-40 0 -72 4t-44 8l-13 4v871h-131q-21 103 0 190h131v123q0 336 358 336q68 0 129 -12t88 -24l27 -13q-6 -104 -68 -178q-61 24 -159 24q-61 0 -89 -29t-28 -94z" />
    <glyph glyph-name="florin" unicode="&#x192;" horiz-adv-x="978" 
d="M592 799l-72 -766q-7 -75 -27.5 -130t-59.5 -99.5t-105 -67.5t-158 -23q-64 0 -121.5 11.5t-83.5 23.5l-26 12q6 103 63 168q60 -22 152 -22q58 0 86 27.5t34 89.5l74 776h-151q-15 35 -15 90q0 24 4 46.5t8 32.5l3 11h168l12 117q7 75 27.5 130t59.5 99.5t105 67
t158 22.5q64 0 121.5 -11.5t83.5 -23.5l26 -12q-6 -103 -63 -168q-60 23 -152 23q-58 0 -86 -27.5t-34 -89.5l-13 -127h162q14 -35 14 -90q0 -24 -3.5 -46.5t-6.5 -32.5l-4 -11h-180z" />
    <glyph glyph-name="Aringacute" unicode="&#x1fa;" horiz-adv-x="1363" 
d="M965 2089l-240 -197q-91 13 -133 58l164 209q58 6 121 -15.5t88 -54.5zM854 1417l477 -1399q-47 -18 -143 -18q-39 0 -71 4.5t-44 9.5l-12 4l-111 328h-559l-110 -328q-45 -18 -127 -18q-35 0 -65 4.5t-43 9.5l-13 4l473 1391q-82 66 -82 182q0 108 74 169t178 61
q102 0 178 -60.5t76 -169.5q0 -108 -76 -174zM791 1591q0 45 -31 77t-86 32q-54 0 -83.5 -32.5t-29.5 -76.5q0 -45 29.5 -76.5t83.5 -31.5q55 0 86 32.5t31 75.5zM879 557l-140 416q-19 56 -35 113t-22 86l-6 28h-8q-21 -104 -62 -227l-143 -416h416z" />
    <glyph glyph-name="aringacute" unicode="&#x1fb;" horiz-adv-x="1058" 
d="M391 1700l164 209q58 6 121 -15.5t88 -54.5l-240 -197q-91 13 -133 58zM285 1380q0 108 74 169t178 61q102 0 178 -60.5t76 -169.5q0 -110 -73.5 -172.5t-182.5 -62.5t-179.5 63t-70.5 172zM641 1380q0 40 -27.5 69.5t-78.5 29.5q-48 0 -75.5 -29.5t-27.5 -69.5t27.5 -69
t75.5 -29q51 0 78.5 29t27.5 69zM154 1016q6 3 17.5 8.5t49.5 20t78 25t101 19.5t122 9q220 0 315 -92t95 -289v-701q-29 -16 -101 -16q-28 0 -54 4t-38 8l-12 4l-39 111q-72 -147 -299 -147q-150 0 -233.5 89t-83.5 265q0 169 101.5 247t297.5 78q105 0 203 -10v56
q0 93 -40 134.5t-145 41.5q-60 0 -125.5 -12.5t-101.5 -24.5l-35 -13q-32 21 -57 76q-11 24 -15 51.5t-3 42.5zM674 479q-102 8 -170 8q-166 0 -166 -153q0 -84 37.5 -121t109.5 -37q51 0 89.5 22t59 58.5t30.5 77t10 84.5v61z" />
    <glyph glyph-name="AEacute" unicode="&#x1fc;" horiz-adv-x="1781" 
d="M1495 1804l-256 -266q-99 17 -143 78l176 280q61 7 128 -21t95 -71zM281 20q-62 -20 -144 -20q-90 0 -137 20l887 1455h776q17 -50 17 -108.5t-17 -102.5h-522v-414h420q37 -118 0 -211h-420v-428h542q37 -107 0 -211h-784v346h-426zM901 1065l-301 -508h301v508z" />
    <glyph glyph-name="aeacute" unicode="&#x1fd;" horiz-adv-x="1564" 
d="M1018 1499l-256 -266q-100 17 -144 78l177 280q61 7 128 -21t95 -71zM799 967q118 131 282 131q192 0 300 -105.5t108 -318.5q0 -53 -5.5 -103.5t-11.5 -74.5l-6 -25h-575q13 -152 74 -219.5t168 -67.5q58 0 115 12t84 24l28 11q62 -56 72 -168q-4 -3 -13 -9t-39.5 -20
t-66 -25t-94.5 -20t-123 -9q-77 0 -142 20.5t-105.5 53.5t-63.5 59.5t-37 52.5q-10 -19 -23 -38.5t-42 -47.5t-64 -49t-90 -36t-119 -15q-170 0 -256 89.5t-86 264.5q0 168 98 240.5t297 72.5h182v72q0 85 -38 123.5t-134 38.5q-57 0 -119.5 -12.5t-96.5 -24.5l-34 -13
q-67 70 -73 185l17 8.5t47.5 20t75.5 25t98 19.5t118 9q203 0 293 -131zM1233 705q0 58 -11.5 98t-46.5 67t-94 27q-79 0 -127 -57.5t-61 -192.5h336q4 29 4 58zM645 473h-149q-89 0 -125.5 -32.5t-36.5 -112.5q0 -152 127 -152q92 0 138 65t46 160v72z" />
    <glyph glyph-name="Oslashacute" unicode="&#x1fe;" horiz-adv-x="1396" 
d="M1034 1858l-256 -267q-99 17 -143 78l176 281q61 7 128 -21t95 -71zM1235 1554l-123 -219q178 -190 178 -598q0 -387 -154 -572t-438 -185q-184 0 -307 73l-74 -133q-43 -16 -104 -16q-26 0 -52 4t-39 8l-13 4l143 256q-146 191 -146 561q0 382 156.5 570t435.5 188
q151 0 265 -51l61 110q32 17 104 17q32 0 59 -4.5t37 -8.5zM698 1278q-75 0 -129.5 -24t-98 -83t-65.5 -167t-22 -267q0 -169 27 -280l440 786q-60 35 -152 35zM508 260q68 -63 190 -63q77 0 131.5 24t98 83t65 167t21.5 266q0 224 -43 346z" />
    <glyph glyph-name="oslashacute" unicode="&#x1ff;" 
d="M766 1499l-256 -266q-99 17 -143 78l176 280q61 7 128 -21t95 -71zM780 1057l74 119q39 0 78 -20.5t65 -47.5l-88 -143q121 -140 121 -426q0 -293 -122 -426t-349 -133q-129 0 -227 43l-76 -125q-91 0 -145 67l94 154q-117 139 -117 420q0 293 122 426t349 133
q132 0 221 -41zM668 872q-45 29 -109 29q-50 0 -85.5 -16t-64 -55.5t-43 -112t-14.5 -178.5q0 -89 13 -162zM752 707l-306 -498q41 -33 113 -33q50 0 85.5 16t63.5 55.5t42 112t14 179.5q0 101 -12 168z" />
    <glyph glyph-name="Scommaaccent" unicode="&#x218;" horiz-adv-x="1171" 
d="M655 1274q-293 0 -293 -199q0 -31 15.5 -57.5t36 -44t60.5 -36t70.5 -29.5t86 -29.5t86.5 -30.5q63 -23 110 -45t99 -58.5t85 -79t54.5 -106t21.5 -139.5q0 -215 -133.5 -327.5t-394.5 -112.5q-125 0 -239 22.5t-166 45.5l-52 22q-3 59 14 115.5t48 93.5q22 -7 60 -17.5
t139.5 -28.5t185.5 -18q140 0 205 49.5t65 149.5q0 39 -16 71t-43 54.5t-65.5 41.5t-80.5 34t-91 31q-11 3 -17 5q-51 16 -84 28.5t-79.5 33.5t-77 42t-64.5 52.5t-53.5 67t-32.5 84t-13 104.5q0 200 131 316t385 116q113 0 216 -15.5t150 -30.5l46 -15q0 -136 -69 -205
q-15 5 -42 12.5t-107.5 20t-156.5 12.5zM539 -631l-90 62q8 9 19.5 25.5t32.5 73.5t25 120q-24 2 -44 6t-28 7l-8 3v236q45 16 129 16q37 0 69.5 -4t46.5 -8l14 -4v-154q0 -71 -17 -136t-41.5 -107t-49 -74.5t-41.5 -46.5z" />
    <glyph glyph-name="scommaaccent" unicode="&#x219;" horiz-adv-x="913" 
d="M92 766q0 154 100 243t295 89q97 0 172.5 -15t102.5 -30l26 -15q0 -120 -65 -182q-96 33 -209 33q-176 0 -176 -115q0 -20 10 -37t24 -27.5t41 -22t47 -17.5t58.5 -17t59.5 -18q44 -15 77.5 -30t70.5 -41t61 -57.5t39.5 -80t15.5 -107.5q0 -164 -101.5 -251.5
t-300.5 -87.5q-62 0 -121.5 8t-100 19.5t-71.5 22.5t-46 19l-15 8q0 124 70 191q133 -49 272 -49q160 0 160 114q0 24 -11 43t-24 31.5t-43 25.5t-49 19t-60 19l-9 3t-8 2.5t-9 2.5q-34 10 -58 18.5t-55.5 22.5t-54 29.5t-45.5 39t-37.5 51t-23.5 65t-9 81.5zM416 -631
l-90 62q8 9 19.5 25.5t32.5 73.5t25 120q-24 2 -44 6t-27 7l-8 3v236q45 16 129 16q37 0 69.5 -4t45.5 -8l14 -4v-154q0 -71 -17 -136t-41.5 -107t-49 -74.5t-41.5 -46.5z" />
    <glyph glyph-name="dotlessj" unicode="&#x237;" horiz-adv-x="532" 
d="M137 -188v1249q39 16 129 16q37 0 69.5 -4t46.5 -8l13 -4v-1241q0 -160 -78.5 -246t-230.5 -86q-38 0 -74.5 4.5t-53.5 9.5l-17 4q-9 27 -9 60q0 40 7 73t13 47l7 13q33 -8 68 -8q110 0 110 121z" />
    <glyph glyph-name="circumflex" unicode="&#x2c6;" horiz-adv-x="811" 
d="M430 1501l295 -241q-49 -89 -119 -111l-203 129l-200 -127q-71 22 -119 109l293 241h53z" />
    <glyph glyph-name="caron" unicode="&#x2c7;" horiz-adv-x="827" 
d="M379 1126l-295 242q49 89 119 111l203 -129l200 127q71 -22 119 -109l-293 -242h-53z" />
    <glyph glyph-name="breve" unicode="&#x2d8;" horiz-adv-x="663" 
d="M651 1358q-4 -6 -12.5 -15t-38.5 -32.5t-64.5 -41.5t-90.5 -33t-117 -15t-116.5 14t-91.5 34.5t-63.5 40.5t-40.5 34l-12 14q12 39 42.5 73t66.5 46q9 -6 25.5 -16t72.5 -26t117 -16t114.5 14.5t77.5 28.5l23 15q36 -12 66 -45.5t42 -73.5z" />
    <glyph glyph-name="dotaccent" unicode="&#x2d9;" horiz-adv-x="360" 
d="M295 1462v-211q-41 -14 -117 -14q-36 0 -65.5 3.5t-40.5 7.5l-11 3v211q35 15 117 15q34 0 63 -3.5t41 -7.5z" />
    <glyph glyph-name="ring" unicode="&#x2da;" horiz-adv-x="704" 
d="M348 1024q-109 0 -179.5 63t-70.5 173q0 108 74 168.5t178 60.5q102 0 178 -60t76 -169q0 -110 -73.5 -173t-182.5 -63zM465 1260q0 44 -31 76t-86 32q-54 0 -83 -32t-29 -76q0 -45 29 -77t83 -32q55 0 86 33t31 76z" />
    <glyph glyph-name="ogonek" unicode="&#x2db;" horiz-adv-x="579" 
d="M352 -334q40 -30 37 -94q-67 -39 -147 -39q-92 0 -154.5 55t-62.5 152q0 107 89.5 173.5t262.5 70.5l22 -43q-108 -34 -160.5 -73.5t-52.5 -103.5q0 -54 31 -81t78 -27q15 0 29 2.5t21 5.5z" />
    <glyph glyph-name="tilde" unicode="&#x2dc;" horiz-adv-x="669" 
d="M459 1434q29 0 54 13t35 27l11 13q34 -15 59 -48t31 -69q-3 -4 -9 -11t-25.5 -25t-41.5 -32t-57 -25t-72 -11q-53 0 -93 16.5t-72.5 32.5t-67.5 16q-29 0 -54 -13.5t-35 -26.5l-11 -13q-79 43 -91 117q3 4 9 11t25.5 25t41.5 32t57 25t72 11q53 0 93.5 -16.5t73 -32.5
t67.5 -16z" />
    <glyph glyph-name="hungarumlaut" unicode="&#x2dd;" horiz-adv-x="790" 
d="M410 1567l-256 -267q-100 17 -144 78l176 281q61 7 128.5 -21t95.5 -71zM758 1567l-256 -267q-100 17 -144 78l177 281q61 7 128 -21t95 -71z" />
    <glyph glyph-name="pi" unicode="&#x3c0;" horiz-adv-x="1286" 
d="M487 1077h721q21 -54 21 -104q0 -53 -21 -107h-141v-379q0 -129 13.5 -237t26.5 -152l13 -43q-52 -55 -170 -55q-70 0 -98 14q-5 12 -12 40t-19 148t-12 281v383h-340v-848q-45 -18 -131 -18q-37 0 -69 4.5t-45 9.5l-13 4v832q-41 -5 -74.5 -11.5t-46.5 -10.5l-14 -3
q-21 54 -21 103q0 62 21 108q15 5 45.5 11.5t137 18t228.5 11.5z" />
    <glyph glyph-name="uni0401" unicode="&#x401;" horiz-adv-x="1134" 
d="M315 1812q35 15 111 15q32 0 60 -3.5t40 -7.5l11 -4v-198q-39 -15 -111 -15q-34 0 -61.5 3.5t-38.5 7.5l-11 4v198zM686 1812q35 15 111 15q32 0 59.5 -3.5t39.5 -7.5l11 -4v-198q-38 -15 -110 -15q-34 0 -61.5 3.5t-38.5 7.5l-11 4v198zM168 1475h846q20 -52 20 -99
q0 -62 -20 -112h-584v-414h481q21 -58 21 -102q0 -56 -21 -109h-481v-428h604q21 -58 21 -102q0 -57 -21 -109h-866v1475z" />
    <glyph glyph-name="uni0410" unicode="&#x410;" horiz-adv-x="1363" 
d="M522 1456q68 19 160 19q44 0 84 -4.5t58 -9.5l18 -5l489 -1438q-47 -18 -143 -18q-39 0 -71 4.5t-44 9.5l-12 4l-111 328h-559l-110 -328q-45 -18 -127 -18q-35 0 -65 4.5t-43 9.5l-13 4zM676 1200h-8q-21 -104 -62 -227l-143 -416h416l-140 416q-19 56 -35 113t-22 86z
" />
    <glyph glyph-name="uni0411" unicode="&#x411;" horiz-adv-x="1275" 
d="M168 1475h881q20 -41 20 -113q0 -29 -5 -57.5t-10 -42.5l-5 -13h-619v-360h324q202 0 324 -122.5t122 -322.5t-122 -322t-324 -122h-586v1475zM430 688v-487h270q115 0 172.5 63.5t57.5 179.5q0 117 -57.5 180.5t-172.5 63.5h-270z" />
    <glyph glyph-name="uni0412" unicode="&#x412;" horiz-adv-x="1288" 
d="M168 1475h577q183 0 292.5 -114.5t109.5 -301.5q0 -96 -39.5 -172.5t-112.5 -124.5q93 -47 144 -132.5t51 -201.5q0 -193 -119.5 -310.5t-316.5 -117.5h-586v1475zM430 846h256q96 0 145.5 59t49.5 154q0 100 -49 157.5t-146 57.5h-256v-428zM430 201h268
q111 0 166.5 58.5t55.5 166.5q0 115 -54.5 171t-167.5 56h-268v-452z" />
    <glyph glyph-name="uni0413" unicode="&#x413;" horiz-adv-x="1046" 
d="M166 1475h819q21 -39 21 -111q0 -28 -5 -57t-11 -43l-5 -15h-557v-1231q-45 -18 -133 -18q-38 0 -70.5 4.5t-45.5 9.5l-13 4v1457z" />
    <glyph glyph-name="uni0414" unicode="&#x414;" horiz-adv-x="1449" 
d="M1210 211h160v-494q-58 -20 -115 -20q-65 0 -118 20v283h-863v-283q-55 -18 -116 -18q-64 0 -117 18v494h109q65 43 106 171.5t59 369.5l56 723h839v-1264zM602 1280l-39 -541q-23 -337 -114 -528h501v1069h-348z" />
    <glyph glyph-name="uni0415" unicode="&#x415;" horiz-adv-x="1134" 
d="M168 1475h846q20 -52 20 -99q0 -62 -20 -112h-584v-410h481q21 -58 21 -102q0 -57 -21 -109h-481v-432h604q21 -58 21 -102q0 -57 -21 -109h-866v1475z" />
    <glyph glyph-name="uni0416" unicode="&#x416;" horiz-adv-x="1871" 
d="M1528 1456q70 19 131 19t139 -19l-440 -661l504 -777q-54 -18 -156 -18q-42 0 -79.5 4.5t-54.5 9.5l-16 4l-417 644h-72v-644q-37 -18 -131 -18q-37 0 -70 4.5t-47 9.5l-14 4v644h-72l-418 -644q-55 -18 -149 -18q-45 0 -84 4.5t-56 9.5l-16 4l504 777l-440 661
q78 19 139 19t131 -19l389 -586h72v586q45 19 133 19q38 0 70.5 -4.5t45.5 -9.5l13 -5v-586h72z" />
    <glyph glyph-name="uni0417" unicode="&#x417;" horiz-adv-x="1142" 
d="M86 1421q17 8 49 20.5t135 33t211 20.5q250 0 382 -102t132 -299q0 -251 -159 -330v-8q202 -89 202 -359q0 -199 -142 -308t-435 -109q-76 0 -145 7.5t-112.5 17.5t-76 20.5t-47.5 18.5l-14 7q-3 58 16.5 111.5t56.5 87.5q142 -43 283 -43q346 0 346 221q0 118 -72 167.5
t-225 49.5h-154q-20 49 -20 108t20 105h154q133 0 195.5 47.5t62.5 157.5q0 114 -75 163.5t-197 49.5q-75 0 -147.5 -11t-107.5 -21l-36 -11q-86 65 -80 188z" />
    <glyph glyph-name="uni0418" unicode="&#x418;" horiz-adv-x="1413" 
d="M946 1456q46 19 152 19q47 0 85 -4.5t52 -9.5l14 -5v-1438q-43 -18 -129 -18q-43 0 -76 4.5t-45 9.5l-12 4v500q0 176 5.5 323t10.5 206l5 59h-9q-41 -126 -227 -500l-293 -588l-7 -2q-7 -2 -20.5 -4.5t-31.5 -5t-45 -4.5t-56 -2q-51 0 -90 4.5t-52 9.5l-13 4v1438
q43 19 129 19q25 0 47.5 -2t37.5 -4.5t26.5 -5.5t17.5 -5l6 -2v-498q0 -164 -4.5 -320.5t-9.5 -231.5l-4 -74h8q43 150 237 540z" />
    <glyph glyph-name="uni0419" unicode="&#x419;" horiz-adv-x="1413" 
d="M709 1835q67 0 125.5 17.5t83.5 35.5l26 17q39 -13 72 -50t47 -81q-5 -6 -14 -16t-42 -36t-70.5 -46t-99 -36t-128.5 -16t-128 15.5t-100.5 37.5t-69.5 44t-43 37l-14 16q14 44 47 81t72 50q10 -8 28.5 -19.5t79.5 -31t128 -19.5zM946 1456q46 19 152 19q47 0 85 -4.5
t52 -9.5l14 -5v-1438q-43 -18 -129 -18q-43 0 -76 4.5t-45 9.5l-12 4v500q0 176 5.5 323t10.5 206l5 59h-9q-41 -126 -227 -500l-293 -588l-7 -2q-7 -2 -20.5 -4.5t-31.5 -5t-45 -4.5t-56 -2q-51 0 -90 4.5t-52 9.5l-13 4v1438q43 19 129 19q25 0 47.5 -2t37.5 -4.5
t26.5 -5.5t17.5 -5l6 -2v-498q0 -164 -4.5 -320.5t-9.5 -231.5l-4 -74h8q43 150 237 540z" />
    <glyph glyph-name="uni041A" unicode="&#x41a;" horiz-adv-x="1265" 
d="M518 870l404 586q70 19 131 19t139 -19l-455 -661l518 -777q-53 -18 -155 -18q-42 0 -79.5 4.5t-54.5 9.5l-16 4l-432 644h-92v-644q-37 -18 -131 -18q-37 0 -70 4.5t-47 9.5l-14 4v1438q45 19 133 19q38 0 70.5 -4.5t45.5 -9.5l13 -5v-586h92z" />
    <glyph glyph-name="uni041B" unicode="&#x41b;" horiz-adv-x="1396" 
d="M178 -10q-57 0 -119 16q-16 53 -16 94q0 52 16 99q55 0 80 4q22 3 43.5 18t50 57t51.5 106t44 176.5t32 258.5l52 656h819v-1457q-43 -18 -129 -18q-15 0 -29.5 0.5t-26 1.5t-21.5 2.5t-17.5 3t-14 3t-11 3t-7 2.5t-3.5 2h-1v1256h-328l-35 -459q-11 -152 -34 -276
t-51 -208.5t-64 -148t-70.5 -99t-74.5 -57.5t-71 -29t-65 -7z" />
    <glyph glyph-name="uni041C" unicode="&#x41c;" horiz-adv-x="1703" 
d="M1200 1456q87 19 168 19q44 0 86.5 -4.5t63.5 -9.5l20 -5v-1438q-45 -18 -129 -18q-37 0 -70.5 4.5t-48.5 9.5l-14 4v449q0 45 -1 171t-1 194.5t4 160.5t12 152h-12q-12 -45 -41 -116t-51.5 -120t-70.5 -150t-62 -132l-144 -301q-30 -11 -75 -11q-20 0 -36.5 2.5
t-23.5 5.5l-6 3q-16 32 -66 133t-77 157q-66 133 -96.5 197t-75.5 168t-60 164h-12q7 -34 12.5 -83.5t8 -92t3.5 -113t1.5 -108.5t0 -121t-0.5 -109v-500q-43 -18 -123 -18q-32 0 -61.5 4.5t-42.5 9.5l-13 4v1438q64 19 158 19q35 0 73.5 -4.5t60.5 -9.5l21 -5l187 -375
q141 -288 176 -401h10q35 113 82 213q113 227 266 563z" />
    <glyph glyph-name="uni041D" unicode="&#x41d;" horiz-adv-x="1392" 
d="M967 868v588q45 19 131 19q38 0 71 -4.5t47 -9.5l13 -5v-1438q-43 -18 -129 -18q-43 0 -76 4.5t-45 9.5l-12 4v625h-541v-625q-47 -18 -131 -18q-42 0 -74.5 4.5t-44.5 9.5l-12 4v1438q43 19 129 19q39 0 72.5 -4.5t46.5 -9.5l14 -5v-588h541z" />
    <glyph glyph-name="uni041E" unicode="&#x41e;" horiz-adv-x="1396" 
d="M106 737q0 382 156.5 570t435.5 188q280 0 436 -186.5t156 -571.5q0 -387 -154 -572t-438 -185t-438 185t-154 572zM1014 737q0 128 -14.5 223t-40.5 155.5t-66.5 97t-87 51t-107.5 14.5q-75 0 -129.5 -24t-98 -83t-65.5 -167t-22 -267q0 -127 15 -222t41.5 -155t67 -97
t86.5 -51.5t105 -14.5q77 0 131.5 24t98 83t65 167t21.5 266z" />
    <glyph glyph-name="uni041F" unicode="&#x41f;" horiz-adv-x="1372" 
d="M1206 1475v-1457q-43 -18 -129 -18q-43 0 -76 4.5t-45 9.5l-12 4v1231h-516v-1231q-47 -18 -131 -18q-42 0 -74.5 4.5t-44.5 9.5l-12 4v1457h1040z" />
    <glyph glyph-name="uni0420" unicode="&#x420;" horiz-adv-x="1243" 
d="M428 553v-535q-43 -18 -129 -18q-43 0 -76 4.5t-45 9.5l-12 4v1457h549q206 0 331 -127.5t125 -333.5t-125 -333.5t-331 -127.5h-287zM428 770h250q106 0 162.5 64t56.5 180t-56.5 179.5t-162.5 63.5h-250v-487z" />
    <glyph glyph-name="uni0421" unicode="&#x421;" horiz-adv-x="1157" 
d="M106 737q0 371 158.5 564.5t462.5 193.5q101 0 189.5 -18t126.5 -36l38 -18q7 -103 -77 -194q-117 43 -248 43q-86 0 -151 -25t-117 -83.5t-79.5 -166.5t-27.5 -262q0 -124 18.5 -217.5t50.5 -152t80.5 -94.5t102.5 -50t123 -14q65 0 132 10.5t102 21.5l34 11
q78 -72 78 -199q-6 -3 -16.5 -7.5t-47 -17t-77 -22t-104 -17t-130.5 -7.5q-304 0 -462.5 193t-158.5 564z" />
    <glyph glyph-name="uni0422" unicode="&#x422;" horiz-adv-x="1132" 
d="M68 1475h997q20 -50 20 -111q0 -29 -5 -58t-10 -43l-5 -14h-363v-1231q-47 -18 -131 -18q-42 0 -74.5 4.5t-44.5 9.5l-12 4v1231h-372q-21 43 -21 111q0 29 5.5 58t10.5 43z" />
    <glyph glyph-name="uni0423" unicode="&#x423;" horiz-adv-x="1247" 
d="M961 1456q45 19 129 19q33 0 65 -4.5t48 -9.5l16 -5l-402 -1061q-38 -100 -86 -174.5t-94 -115.5t-100 -66t-95.5 -32t-87.5 -7q-36 0 -69 5t-47 10l-15 5q-20 42 -20 105q0 25 3 51t6 40l3 13q55 -4 100 -4q73 0 133 45t115 170h-59l-475 1016q47 19 143 19
q47 0 84 -4.5t50 -9.5l13 -5l265 -567q24 -55 44 -108t28 -79l8 -26h8q24 98 71 219z" />
    <glyph glyph-name="uni0424" unicode="&#x424;" horiz-adv-x="1658" 
d="M698 1352v135q43 18 129 18q39 0 72.5 -4.5t47.5 -8.5l14 -5v-135q112 0 204 -18t170.5 -61t132 -109t83.5 -165.5t30 -228.5t-30 -228.5t-83.5 -165.5t-132 -109t-170.5 -61t-204 -18v-170q-48 -18 -132 -18q-42 0 -74.5 4.5t-44.5 9.5l-12 4v170q-112 0 -204 18
t-170.5 61t-132 109t-83.5 165.5t-30 228.5t30 228.5t83.5 165.5t132 109t170.5 61t204 18zM698 387v766q-63 0 -113 -10t-96.5 -36t-77 -68.5t-49 -110.5t-18.5 -158q0 -91 18.5 -159t49 -110.5t77 -68t96.5 -35.5t113 -10zM961 1153v-766q63 0 113 10t96.5 36t77 68.5
t49 110.5t18.5 158q0 91 -18.5 159t-49 110.5t-77 68t-96.5 35.5t-113 10z" />
    <glyph glyph-name="uni0425" unicode="&#x425;" horiz-adv-x="1314" 
d="M975 1456q65 19 135 19q77 0 139 -19l-426 -670l469 -761q-53 -25 -151 -25q-39 0 -75.5 5t-53.5 10l-17 5l-344 560l-356 -564q-59 -16 -127 -16q-99 0 -156 16l480 756l-416 684q53 19 151 19q39 0 76 -4.5t55 -9.5l17 -5l295 -481z" />
    <glyph glyph-name="uni0426" unicode="&#x426;" horiz-adv-x="1445" 
d="M166 0v1456q37 19 131 19q37 0 70 -4.5t47 -9.5l14 -5v-1231h516v1231q37 19 133 19q38 0 70.5 -4.5t45.5 -9.5l13 -5v-1231h158v-508q-58 -20 -113 -20q-65 0 -121 20v283h-964z" />
    <glyph glyph-name="uni0427" unicode="&#x427;" horiz-adv-x="1312" 
d="M887 823v633q45 19 131 19q38 0 71 -4.5t47 -9.5l13 -5v-1438q-43 -18 -129 -18q-43 0 -76 4.5t-45 9.5l-12 4v580q-124 -55 -303 -55q-115 0 -200.5 24.5t-149.5 78.5t-97 148t-33 226v436q43 19 129 19q39 0 72.5 -4.5t47.5 -9.5l14 -5v-436q0 -140 61.5 -196
t189.5 -56q157 0 269 55z" />
    <glyph glyph-name="uni0428" unicode="&#x428;" horiz-adv-x="1945" 
d="M166 0v1456q37 19 131 19q37 0 70 -4.5t47 -9.5l14 -5v-1231h414v1231q37 19 133 19q38 0 70.5 -4.5t45.5 -9.5l13 -5v-1231h414v1231q37 19 133 19q38 0 70.5 -4.5t45.5 -9.5l13 -5v-1456h-1614z" />
    <glyph glyph-name="uni0429" unicode="&#x429;" horiz-adv-x="2019" 
d="M166 0v1456q37 19 131 19q37 0 70 -4.5t47 -9.5l14 -5v-1231h414v1231q37 19 133 19q38 0 70.5 -4.5t45.5 -9.5l13 -5v-1231h414v1231q37 19 133 19q38 0 70.5 -4.5t45.5 -9.5l13 -5v-1231h157v-508q-44 -20 -116 -20q-64 0 -117 20v283h-1538z" />
    <glyph glyph-name="uni042A" unicode="&#x42a;" horiz-adv-x="1486" 
d="M641 897h317q207 0 332 -123.5t125 -324.5q0 -202 -125.5 -325.5t-331.5 -123.5h-579v1249h-316q-20 43 -20 111q0 29 5 58t10 43l5 14h578v-578zM641 680v-463h281q106 0 162.5 60.5t56.5 171.5t-56 171t-163 60h-281z" />
    <glyph glyph-name="uni042B" unicode="&#x42b;" horiz-adv-x="1800" 
d="M166 1456q37 19 133 19q38 0 70.5 -4.5t45.5 -9.5l13 -5v-559h317q207 0 332 -123.5t125 -324.5q0 -202 -125.5 -325.5t-331.5 -123.5h-579v1456zM1374 1456q43 19 129 19q39 0 72.5 -4.5t46.5 -9.5l14 -5v-1438q-47 -18 -131 -18q-42 0 -74.5 4.5t-44.5 9.5l-12 4v1438z
M428 680v-463h281q106 0 162.5 60.5t56.5 171.5t-56 171t-163 60h-281z" />
    <glyph glyph-name="uni042C" unicode="&#x42c;" horiz-adv-x="1273" 
d="M428 897h317q207 0 332 -123.5t125 -324.5q0 -202 -125.5 -325.5t-331.5 -123.5h-579v1456q37 19 133 19q38 0 70.5 -4.5t45.5 -9.5l13 -5v-559zM428 217h281q106 0 162.5 60.5t56.5 171.5t-56 171t-163 60h-281v-463z" />
    <glyph glyph-name="uni042D" unicode="&#x42d;" horiz-adv-x="1206" 
d="M84 1423q15 8 44.5 20t127 32t203.5 20q312 0 476.5 -194t164.5 -564t-164.5 -563.5t-476.5 -193.5q-69 0 -135.5 7.5t-111.5 17.5t-80.5 20.5t-51.5 18.5l-17 7q0 58 21 112.5t57 84.5q131 -43 289 -43q83 0 147 20t117.5 67.5t86 135.5t40.5 215h-499q-21 43 -21 109
q0 29 5.5 54.5t10.5 36.5l5 11h497q-11 119 -43.5 202.5t-85.5 130t-116 67t-144 20.5q-63 0 -130 -11t-102 -21l-36 -11q-39 35 -58.5 87t-19.5 105z" />
    <glyph glyph-name="uni042E" unicode="&#x42e;" horiz-adv-x="1955" 
d="M166 18v1438q43 19 129 19q39 0 72.5 -4.5t46.5 -9.5l14 -5v-612h242q21 329 173 490t414 161q284 0 438 -185.5t154 -572.5t-154 -572t-438 -185q-264 0 -415 159t-172 492h-242v-613q-47 -18 -131 -18q-42 0 -74.5 4.5t-44.5 9.5zM1257 1278q-75 0 -129.5 -24t-98 -83
t-65.5 -167t-22 -267q0 -127 15 -222t41.5 -155t67 -97t86.5 -51.5t105 -14.5q77 0 131.5 24t98 83t65 167t21.5 266q0 128 -14.5 223t-40.5 155.5t-66.5 97t-87 51t-107.5 14.5z" />
    <glyph glyph-name="uni042F" unicode="&#x42f;" horiz-adv-x="1292" 
d="M1126 1475v-1457q-37 -18 -133 -18q-38 0 -70.5 4.5t-45.5 9.5l-13 4v547h-184l-313 -547q-56 -18 -150 -18q-42 0 -78.5 4.5t-52.5 9.5l-16 4l331 576q-132 46 -206 158t-74 268q0 204 125.5 329.5t331.5 125.5h548zM864 1257h-250q-107 0 -163 -61t-56 -176t56 -176.5
t163 -61.5h250v475z" />
    <glyph glyph-name="uni0430" unicode="&#x430;" horiz-adv-x="1058" 
d="M154 1016q6 3 17.5 8.5t49.5 20t78 25t101 19.5t122 9q220 0 315 -92t95 -289v-701q-29 -16 -101 -16q-28 0 -54 4t-38 8l-12 4l-39 111q-72 -147 -299 -147q-150 0 -233.5 89t-83.5 265q0 169 101.5 247t297.5 78q105 0 203 -10v53q0 88 -39.5 133.5t-145.5 45.5
q-60 0 -125.5 -12.5t-101.5 -24.5l-35 -13q-32 21 -57 76q-11 24 -15 51.5t-3 42.5zM674 479q-102 8 -170 8q-166 0 -166 -153q0 -84 37.5 -121t109.5 -37q51 0 89.5 22t59 58.5t30.5 77t10 84.5v61z" />
    <glyph glyph-name="uni0431" unicode="&#x431;" horiz-adv-x="1165" 
d="M113 719q0 131 13.5 230.5t34.5 172.5t65.5 127t88 88.5t121 62.5t145 44t179.5 37q59 11 79.5 22t43.5 47q116 -13 166 -96q-24 -93 -77.5 -138t-146.5 -61q-66 -11 -107 -19t-91.5 -19t-80 -20t-65.5 -23t-56 -28.5t-43 -35t-36 -43.5t-25.5 -53t-19.5 -65t-12 -79h8
q88 183 328 183q450 0 450 -537q0 -283 -121.5 -409.5t-349.5 -126.5q-91 0 -162.5 20t-134.5 70.5t-104.5 133t-65.5 212.5t-24 303zM604 856q-51 0 -86 -13.5t-64 -49t-43 -104.5t-14 -173q0 -102 14 -170.5t43 -104.5t64.5 -50.5t85.5 -14.5q40 0 69.5 8.5t56 31t43.5 60
t26.5 98t9.5 142.5t-9.5 142.5t-26.5 98t-43.5 60t-56 31t-69.5 8.5z" />
    <glyph glyph-name="uni0432" unicode="&#x432;" horiz-adv-x="1058" 
d="M635 1077q136 0 216.5 -80t80.5 -211q0 -160 -111 -231q152 -74 152 -246q0 -141 -89 -225t-245 -84h-504v1077h500zM391 631h174q57 0 87 37t30 96q0 58 -30.5 94.5t-86.5 36.5h-174v-264zM391 182h180q68 0 104 34.5t36 98.5q0 140 -140 140h-180v-273z" />
    <glyph glyph-name="uni0433" unicode="&#x433;" horiz-adv-x="837" 
d="M133 1077h653q21 -45 21 -106q0 -27 -5.5 -53.5t-10.5 -39.5l-5 -12h-395v-850q-45 -16 -129 -16q-40 0 -72 4t-44 8l-13 4v1061z" />
    <glyph glyph-name="uni0434" unicode="&#x434;" horiz-adv-x="1214" 
d="M49 188h72q52 29 84 123.5t47 278.5l39 487h721v-889h129v-434q-43 -16 -107 -16q-72 0 -131 16v246h-616v-246q-50 -16 -119 -16q-80 0 -119 16v434zM506 883l-23 -301q-17 -244 -86 -394h359v695h-250z" />
    <glyph glyph-name="uni0435" unicode="&#x435;" horiz-adv-x="1056" 
d="M954 459h-600q13 -148 75.5 -205t178.5 -57q61 0 121 12.5t89 24.5l30 12q65 -62 72 -183q-5 -3 -14.5 -9t-43 -20t-71 -25t-97 -20t-123.5 -9q-247 0 -364 141.5t-117 423.5q0 281 123 417t344 136q197 0 308.5 -105.5t111.5 -318.5q0 -58 -5.5 -112t-11.5 -78zM721 705
q0 192 -164 192q-176 0 -201 -260h361q4 46 4 68z" />
    <glyph glyph-name="uni0436" unicode="&#x436;" horiz-adv-x="1544" 
d="M1223 1061q51 16 129 16q32 0 63.5 -4t47.5 -8l16 -4l-267 -479l312 -566q-44 -16 -142 -16q-38 0 -73 4t-51 8l-15 4l-248 451h-92v-451q-49 -16 -127 -16q-36 0 -69 4t-47 8l-15 4v451h-94l-246 -451q-53 -16 -139 -16q-44 0 -79 4.5t-49 9.5l-13 4l311 564l-266 479
q57 16 133 16q36 0 67.5 -4t45.5 -8l14 -4l221 -404h94v404q49 16 131 16q32 0 63.5 -4t47.5 -8l16 -4v-404h96z" />
    <glyph glyph-name="uni0437" unicode="&#x437;" horiz-adv-x="946" 
d="M80 1044q10 6 32.5 15t110.5 24t199 15q407 0 407 -310q0 -177 -122 -235v-8q151 -61 151 -240q0 -152 -110 -238.5t-351 -86.5q-94 0 -178.5 16.5t-122.5 32.5l-37 16q0 110 70 174q96 -37 260 -37q102 0 154.5 31t52.5 104q0 71 -43.5 101.5t-138.5 30.5h-156
q-18 41 -18 100q0 24 4.5 46.5t9.5 32.5l4 11h156q81 0 118 32t37 101q0 131 -188 131q-59 0 -117.5 -7.5t-87.5 -15.5l-29 -8q-64 61 -67 172z" />
    <glyph glyph-name="uni0438" unicode="&#x438;" horiz-adv-x="1177" 
d="M786 1061q49 16 129 16q34 0 66 -4t47 -8l16 -4v-1045q-48 -16 -124 -16q-36 0 -69.5 4t-48.5 8l-16 4v260q0 436 13 449h-6q9 -3 -49.5 -110t-149.5 -261l-203 -338q-49 -16 -131 -16q-35 0 -66.5 4t-45.5 8l-15 4v1045q49 16 125 16q37 0 70.5 -4t47.5 -8l15 -4v-262
q0 -155 -4 -301.5t-8 -147.5h6q43 109 98 203z" />
    <glyph glyph-name="uni0439" unicode="&#x439;" horiz-adv-x="1177" 
d="M590 1432q61 0 114.5 14t77.5 28l23 15q36 -12 66 -45.5t42 -73.5q-4 -6 -12.5 -15t-38.5 -32.5t-64.5 -41.5t-90.5 -33t-117 -15t-116.5 14t-91.5 34.5t-63.5 40.5t-40.5 34l-12 14q12 39 42.5 73t66.5 46q9 -6 25.5 -15.5t72.5 -25.5t117 -16zM786 1061q49 16 129 16
q34 0 66 -4t47 -8l16 -4v-1045q-48 -16 -124 -16q-36 0 -69.5 4t-48.5 8l-16 4v260q0 436 13 449h-6q-33 -94 -99 -203l-303 -506q-49 -16 -131 -16q-35 0 -66.5 4t-45.5 8l-15 4v1045q49 16 125 16q37 0 70.5 -4t47.5 -8l15 -4v-262q0 -155 -4 -301.5t-8 -147.5h6
q43 109 98 203z" />
    <glyph glyph-name="uni043A" unicode="&#x43a;" horiz-adv-x="1030" 
d="M457 657l254 404q53 16 129 16q31 0 63 -4t48 -8l16 -4l-299 -481l344 -564q-52 -16 -150 -16q-38 0 -71 4t-47 8l-13 4l-278 451h-62v-451q-51 -16 -127 -16q-36 0 -68.5 4t-47.5 8l-15 4v1045q49 16 131 16q32 0 63.5 -4t47.5 -8l16 -4v-404h66z" />
    <glyph glyph-name="uni043B" unicode="&#x43b;" horiz-adv-x="1146" 
d="M512 594q-13 -149 -37.5 -258.5t-55 -175.5t-74 -105.5t-86.5 -53t-99 -13.5q-25 0 -51.5 4t-40.5 8l-13 4q-16 35 -16 86q0 22 4 44.5t8 33.5l4 12q39 -6 78 2q110 24 141 420l37 475h701v-1061q-57 -16 -125 -16q-36 0 -68.5 4t-47.5 8l-15 4v867h-219z" />
    <glyph glyph-name="uni043C" unicode="&#x43c;" horiz-adv-x="1361" 
d="M942 1061q61 16 145 16q34 0 69.5 -4t53.5 -8l19 -4v-1045q-41 -16 -123 -16q-35 0 -66 4t-45 8l-14 4v357q0 107 4.5 199.5t8.5 131.5l5 39h-8q-19 -59 -80 -182l-174 -346q-22 -10 -59 -10q-16 0 -31 2.5t-22 4.5l-7 3l-172 332q-31 59 -52.5 107.5t-27.5 67.5l-6 19
h-8q17 -130 17 -370v-355q-51 -16 -119 -16q-28 0 -57 4t-45 8l-15 4v1045q68 16 148 16q38 0 72.5 -4t49.5 -8l15 -4l198 -387q39 -76 64 -154h8q18 67 62 154z" />
    <glyph glyph-name="uni043D" unicode="&#x43d;" horiz-adv-x="1142" 
d="M391 451v-435q-47 -16 -131 -16q-36 0 -68 4t-46 8l-13 4v1045q43 16 129 16q36 0 68 -4t46 -8l15 -4v-404h361v404q51 16 129 16q36 0 68 -4t47 -8l14 -4v-1045q-45 -16 -131 -16q-35 0 -66.5 4t-46.5 8l-14 4v435h-361z" />
    <glyph glyph-name="uni043E" unicode="&#x43e;" horiz-adv-x="1122" 
d="M90 539q0 293 122 426t349 133q228 0 349.5 -132.5t121.5 -426.5q0 -293 -122 -426t-349 -133t-349 133t-122 426zM766 539q0 107 -14 179t-42 111.5t-63.5 55.5t-85.5 16t-85.5 -16t-64 -55.5t-43 -112t-14.5 -178.5t14.5 -179t43 -112.5t64 -55.5t85.5 -16t85.5 16
t63.5 55.5t42 112t14 179.5z" />
    <glyph glyph-name="uni043F" unicode="&#x43f;" horiz-adv-x="1122" 
d="M391 864v-848q-53 -16 -131 -16q-35 0 -66.5 4t-45.5 8l-15 4v1061h856v-1061q-51 -16 -131 -16q-32 0 -64 4t-48 8l-15 4v848h-340z" />
    <glyph glyph-name="uni0440" unicode="&#x440;" horiz-adv-x="1142" 
d="M393 991q87 107 277 107q89 0 156.5 -29t118.5 -93t77.5 -174t26.5 -263t-26.5 -263t-77.5 -174t-118.5 -93t-156.5 -29q-191 0 -277 106v-528q-45 -17 -131 -17q-38 0 -70 4.5t-44 8.5l-13 4v1503q41 16 127 16q38 0 71 -4t47 -8l13 -4v-70zM782 539q0 106 -13 176
t-41 107.5t-63 52t-87 14.5q-85 0 -135 -61.5t-50 -159.5v-258q0 -98 50 -160t135 -62q52 0 87 14.5t63 52t41 108t13 176.5z" />
    <glyph glyph-name="uni0441" unicode="&#x441;" horiz-adv-x="915" 
d="M594 889q-130 0 -185 -82.5t-55 -267.5q0 -182 58.5 -262t189.5 -80q46 0 92 7t69 14l23 7q32 -29 51 -79t21 -103q-10 -7 -30.5 -17.5t-100 -28t-176.5 -17.5q-461 0 -461 559t461 559q94 0 165.5 -13.5t96.5 -26.5l25 -14q0 -52 -19.5 -101t-52.5 -81q-70 27 -172 27z
" />
    <glyph glyph-name="uni0442" unicode="&#x442;" horiz-adv-x="954" 
d="M55 1077h844q21 -42 21 -108q0 -28 -5 -54.5t-11 -39.5l-5 -13h-293v-846q-45 -16 -129 -16q-40 0 -72.5 4t-44.5 8l-12 4v846h-293q-22 44 -22 107q0 29 5.5 56t11.5 39z" />
    <glyph glyph-name="uni0443" unicode="&#x443;" horiz-adv-x="1085" 
d="M1049 1061l-361 -1178q-22 -70 -41 -118t-44.5 -96.5t-55 -79t-69 -55t-90 -35.5t-114.5 -11q-32 0 -61.5 6t-42.5 12l-14 5q-19 43 -19 96q0 25 4.5 50.5t9.5 38.5l5 13q51 -8 94 -8q35 0 54.5 3t42.5 14.5t39 35t34 64t37 102.5l24 80q-44 0 -80 16l-368 1045
q49 16 133 16q39 0 72.5 -4t47.5 -8l13 -4l193 -549q24 -68 41.5 -132.5t23.5 -95.5l6 -30h8q19 102 66 258l166 549q41 16 125 16q33 0 63 -4t44 -8z" />
    <glyph glyph-name="uni0444" unicode="&#x444;" horiz-adv-x="1597" 
d="M670 1520q39 16 129 16q37 0 69.5 -4t45.5 -8l14 -4v-459q69 37 180 37q204 0 300.5 -140.5t96.5 -418.5t-96.5 -418.5t-300.5 -140.5q-47 0 -92 10.5t-66 21.5l-22 11v-519q-45 -16 -129 -16q-40 0 -72.5 4t-44.5 8l-12 4v519q-8 -5 -23.5 -12t-63 -19t-94.5 -12
q-204 0 -300.5 140.5t-96.5 418.5t96.5 418.5t300.5 140.5q49 0 94.5 -9t66.5 -19l20 -9v459zM682 866l-16 8q-16 8 -53 17.5t-81 9.5q-96 0 -140 -82t-44 -280t44 -279.5t140 -81.5q40 0 77.5 11t54.5 21l18 11v645zM1249 539q0 198 -44 280t-140 82q-44 0 -81 -9.5
t-53 -17.5l-16 -8v-645q7 -5 19.5 -12t51.5 -19t79 -12q96 0 140 81.5t44 279.5z" />
    <glyph glyph-name="uni0445" unicode="&#x445;" horiz-adv-x="1044" 
d="M373 551l-324 510q51 16 139 16q42 0 77.5 -4t50.5 -8l14 -4l202 -318l207 318q47 16 123 16q37 0 70.5 -4t47.5 -8l15 -4l-325 -494l354 -551q-51 -16 -139 -16q-42 0 -77.5 4t-49.5 8l-15 4l-231 359l-236 -359q-46 -16 -122 -16q-37 0 -70.5 4t-48.5 8l-15 4z" />
    <glyph glyph-name="uni0446" unicode="&#x446;" horiz-adv-x="1191" 
d="M731 1061q49 16 127 16q36 0 68.5 -4t47.5 -8l15 -4v-848h129v-459q-46 -16 -112 -16q-84 0 -125 16v246h-748v1061q47 16 127 16q41 0 73.5 -4t44.5 -8l13 -4v-848h340v848z" />
    <glyph glyph-name="uni0447" unicode="&#x447;" horiz-adv-x="1073" 
d="M940 1061v-1045q-43 -16 -131 -16q-36 0 -68 4t-45 8l-14 4v383q-60 -22 -195 -22q-197 0 -301 82.5t-104 267.5v334q49 16 129 16q36 0 68 -4t47 -8l14 -4v-336q0 -78 42 -114t130 -36q49 0 91.5 6.5t60.5 13.5l18 7v459q45 16 127 16q39 0 72 -4t46 -8z" />
    <glyph glyph-name="uni0448" unicode="&#x448;" horiz-adv-x="1515" 
d="M133 0v1061q37 16 127 16q38 0 71 -4t47 -8l13 -4v-848h238v848q37 16 127 16q38 0 71 -4t47 -8l13 -4v-848h237v848q37 16 127 16q38 0 71 -4t46 -8l14 -4v-1061h-1249z" />
    <glyph glyph-name="uni0449" unicode="&#x449;" horiz-adv-x="1585" 
d="M1511 213v-459q-46 -16 -118 -16q-78 0 -119 16v246h-1141v1061q37 16 127 16q38 0 71 -4t47 -8l13 -4v-848h238v848q37 16 127 16q38 0 71 -4t47 -8l13 -4v-848h237v848q37 16 127 16q38 0 71 -4t46 -8l14 -4v-848h129z" />
    <glyph glyph-name="uni044A" unicode="&#x44a;" horiz-adv-x="1189" 
d="M553 664h229q158 0 253 -91t95 -241t-95 -241t-253 -91h-487v862h-236q-24 50 -24 111t24 104h494v-413zM553 182h180q64 0 99.5 40t35.5 110q0 68 -35.5 108.5t-99.5 40.5h-180v-299z" />
    <glyph glyph-name="uni044B" unicode="&#x44b;" horiz-adv-x="1495" 
d="M133 1061q49 16 127 16q82 0 131 -16v-397h230q158 0 253 -91t95 -241t-95 -241t-253 -91h-488v1061zM1104 1061q49 16 129 16t129 -16v-1045q-49 -16 -131 -16q-78 0 -127 16v1045zM391 481v-299h180q64 0 100 40t36 110q0 68 -36 108.5t-100 40.5h-180z" />
    <glyph glyph-name="uni044C" unicode="&#x44c;" horiz-adv-x="1028" 
d="M391 664h230q158 0 253 -91t95 -241t-95 -241t-253 -91h-488v1061q49 16 127 16q82 0 131 -16v-397zM391 182h180q64 0 100 40t36 110q0 68 -36 108.5t-100 40.5h-180v-299z" />
    <glyph glyph-name="uni044D" unicode="&#x44d;" horiz-adv-x="944" 
d="M590 449h-363q-18 33 -18 94q0 27 4.5 50.5t8.5 33.5l5 10h361q-14 134 -74 199t-172 65q-50 0 -99.5 -7.5t-73.5 -14.5l-24 -7q-64 64 -67 172q11 6 33 15t102.5 24t175.5 15q465 0 465 -559q0 -275 -118 -417t-351 -142q-96 0 -178 15.5t-116 31.5l-34 16q3 114 70 174
q92 -33 207 -33q230 0 256 265z" />
    <glyph glyph-name="uni044E" unicode="&#x44e;" horiz-adv-x="1595" 
d="M567 639q40 459 467 459q228 0 349.5 -132.5t121.5 -426.5q0 -293 -122 -426t-349 -133q-204 0 -323.5 105.5t-143.5 338.5h-176v-408q-49 -16 -131 -16q-78 0 -127 16v1045q49 16 129 16t129 -16v-422h176zM1239 539q0 107 -14 179t-42 111.5t-63.5 55.5t-85.5 16
t-85.5 -16t-64 -55.5t-43 -112t-14.5 -178.5t14.5 -179t43 -112.5t64 -55.5t85.5 -16t85.5 16t63.5 55.5t42 112t14 179.5z" />
    <glyph glyph-name="uni044F" unicode="&#x44f;" horiz-adv-x="1075" 
d="M555 397l-211 -381q-59 -16 -147 -16q-78 0 -140 16l242 414q-88 40 -137 120t-49 187q0 153 97 246.5t259 93.5h473v-1061q-49 -16 -127 -16q-82 0 -131 16v381h-129zM518 895q-68 0 -105.5 -42.5t-37.5 -115.5q0 -72 37.5 -114.5t105.5 -42.5h166v315h-166z" />
    <glyph glyph-name="uni0451" unicode="&#x451;" horiz-adv-x="1054" 
d="M252 1446q34 14 110 14q32 0 59.5 -3.5t39.5 -6.5l12 -4v-199q-39 -14 -111 -14q-34 0 -61.5 3.5t-38.5 7.5l-10 3v199zM623 1446q34 14 110 14q32 0 59.5 -3.5t39.5 -6.5l12 -4v-199q-39 -14 -111 -14q-34 0 -61.5 3.5t-37.5 7.5l-11 3v199zM90 545q0 281 123 417
t344 136q197 0 308.5 -105.5t111.5 -318.5q0 -58 -5.5 -112t-11.5 -78l-6 -25h-600q13 -150 76.5 -212.5t177.5 -62.5q61 0 121 12t89 24l30 11q62 -56 72 -168q-5 -3 -14 -9t-41 -20t-69 -25t-98 -20t-127 -9q-247 0 -364 141.5t-117 423.5zM721 705q0 192 -164 192
q-176 0 -201 -260h361q4 46 4 68z" />
    <glyph glyph-name="Wgrave" unicode="&#x1e80;" horiz-adv-x="1994" 
d="M987 1534l-256 266q28 43 95 71t128 21l176 -280q-44 -61 -143 -78zM1245 18l-186 842q-21 96 -33.5 183.5t-15.5 126.5l-2 40h-11q-6 -133 -53 -350l-184 -842q-74 -18 -174 -18q-86 0 -156 18l-383 1438q43 19 131 19q40 0 72.5 -4.5t45.5 -9.5l13 -5l234 -876
q16 -63 32 -139t23 -121l8 -44h8q21 159 54 302l200 878q44 19 140 19q44 0 80 -4.5t50 -9.5l13 -5l199 -876q16 -68 28 -144t16 -118l5 -42h8q20 140 63 302l238 878q49 19 119 19q34 0 64.5 -4.5t44.5 -9.5l14 -5l-389 -1438q-62 -18 -154 -18q-40 0 -80.5 4.5t-60.5 9.5z
" />
    <glyph glyph-name="wgrave" unicode="&#x1e81;" horiz-adv-x="1634" 
d="M780 1233l-256 266q28 43 95.5 71t128.5 21l176 -280q-44 -61 -144 -78zM995 16l-121 488q-37 146 -49 313h-8q-12 -171 -51 -313l-125 -488q-63 -16 -152 -16q-92 0 -155 16l-293 1045q47 16 129 16q39 0 67 -4t36 -8l8 -4l165 -594q27 -96 43 -215h7q21 126 45 217
l151 592q66 16 144 16q37 0 69 -4t45 -8l13 -4l145 -590q27 -117 41 -219h6q16 93 51 217l166 592q41 16 113 16q35 0 62 -4t37 -8l9 -4l-293 -1045q-68 -16 -151 -16t-154 16z" />
    <glyph glyph-name="Wacute" unicode="&#x1e82;" horiz-adv-x="1994" 
d="M1223 1804l-256 -266q-100 17 -144 78l176 280q61 7 128.5 -21t95.5 -71zM1245 18l-186 842q-21 96 -33.5 183.5t-15.5 126.5l-2 40h-11q-6 -133 -53 -350l-184 -842q-74 -18 -174 -18q-86 0 -156 18l-383 1438q43 19 131 19q40 0 72.5 -4.5t45.5 -9.5l13 -5l234 -876
q16 -63 32 -139t23 -121l8 -44h8q21 159 54 302l200 878q44 19 140 19q44 0 80 -4.5t50 -9.5l13 -5l199 -876q16 -68 28 -144t16 -118l5 -42h8q20 140 63 302l238 878q49 19 119 19q34 0 64.5 -4.5t44.5 -9.5l14 -5l-389 -1438q-62 -18 -154 -18q-40 0 -80.5 4.5t-60.5 9.5z
" />
    <glyph glyph-name="wacute" unicode="&#x1e83;" horiz-adv-x="1630" 
d="M1028 1499l-256 -266q-99 17 -143 78l176 280q61 7 128 -21t95 -71zM995 16l-121 488q-37 146 -49 313h-8q-12 -171 -51 -313l-125 -488q-63 -16 -152 -16q-92 0 -155 16l-293 1045q47 16 129 16q39 0 67 -4t36 -8l8 -4l165 -594q27 -96 43 -215h7q21 126 45 217l151 592
q66 16 144 16q37 0 69 -4t45 -8l13 -4l145 -590q27 -117 41 -219h6q16 93 51 217l166 592q41 16 113 16q35 0 62 -4t37 -8l9 -4l-293 -1045q-68 -16 -151 -16t-154 16z" />
    <glyph glyph-name="Wdieresis" unicode="&#x1e84;" horiz-adv-x="1996" 
d="M934 1790v-199q-39 -14 -111 -14q-34 0 -61.5 3.5t-37.5 7.5l-11 3v199q34 14 110 14q32 0 59.5 -3.5t39.5 -6.5zM1305 1790v-199q-39 -14 -111 -14q-34 0 -61.5 3.5t-38.5 7.5l-11 3v199q35 14 111 14q32 0 59.5 -3.5t39.5 -6.5zM1247 18l-186 842q-21 96 -33.5 183.5
t-15.5 126.5l-2 40h-11q-6 -133 -53 -350l-184 -842q-74 -18 -174 -18q-86 0 -156 18l-383 1438q43 19 131 19q40 0 72.5 -4.5t45.5 -9.5l13 -5l234 -876q16 -63 32 -139t23 -121l8 -44h8q21 159 54 302l200 878q44 19 140 19q44 0 80 -4.5t50 -9.5l13 -5l199 -876
q16 -68 28 -144t16 -118l5 -42h8q21 140 64 302l237 878q49 19 119 19q34 0 64.5 -4.5t44.5 -9.5l14 -5l-389 -1438q-62 -18 -154 -18q-40 0 -80.5 4.5t-60.5 9.5z" />
    <glyph glyph-name="wdieresis" unicode="&#x1e85;" horiz-adv-x="1634" 
d="M760 1446v-199q-39 -14 -111 -14q-34 0 -61.5 3.5t-37.5 7.5l-11 3v199q34 14 110 14q32 0 59.5 -3.5t39.5 -6.5zM1130 1446v-199q-38 -14 -110 -14q-34 0 -61.5 3.5t-38.5 7.5l-11 3v199q35 14 111 14q32 0 59.5 -3.5t38.5 -6.5zM995 16l-121 488q-37 146 -49 313h-8
q-12 -171 -51 -313l-125 -488q-63 -16 -152 -16q-92 0 -155 16l-293 1045q47 16 129 16q39 0 67 -4t36 -8l8 -4l165 -594q27 -96 43 -215h7q21 126 45 217l151 592q66 16 144 16q37 0 69 -4t45 -8l13 -4l145 -590q27 -117 41 -219h6q16 93 51 217l166 592q41 16 113 16
q35 0 62 -4t37 -8l9 -4l-293 -1045q-68 -16 -151 -16t-154 16z" />
    <glyph glyph-name="Ygrave" unicode="&#x1ef2;" horiz-adv-x="1314" 
d="M610 1892l176 -280q-44 -61 -143 -78l-256 266q28 43 95 71t128 21zM1012 1456q47 19 135 19q37 0 73.5 -4.5t53.5 -9.5l18 -5l-506 -842v-596q-43 -18 -127 -18q-42 0 -75.5 4.5t-46.5 9.5l-13 4v590l-491 848q56 19 160 19q42 0 78.5 -4.5t52.5 -9.5l16 -5l334 -579z
" />
    <glyph glyph-name="ygrave" unicode="&#x1ef3;" horiz-adv-x="1085" 
d="M500 1233l-256 266q28 43 95 71t128 21l176 -280q-44 -61 -143 -78zM1049 1061l-361 -1178q-22 -70 -41 -118t-44.5 -96.5t-55 -79t-69 -55t-90 -35.5t-114.5 -11q-32 0 -61.5 6t-42.5 12l-14 5q-19 43 -19 96q0 25 4.5 50.5t9.5 38.5l5 13q51 -8 94 -8q35 0 54.5 3
t42.5 14.5t39 35t34 64t37 102.5l24 80q-44 0 -80 16l-368 1045q49 16 133 16q39 0 72.5 -4t47.5 -8l13 -4l193 -549q24 -68 41.5 -132.5t23.5 -95.5l6 -30h8q19 102 66 258l166 549q41 16 125 16q33 0 63 -4t44 -8z" />
    <glyph glyph-name="endash" unicode="&#x2013;" horiz-adv-x="1169" 
d="M1014 500h-860q-15 37 -15 94q0 25 3.5 48.5t7.5 34.5l4 11h860q14 -37 14 -94q0 -25 -3.5 -48.5t-6.5 -34.5z" />
    <glyph glyph-name="emdash" unicode="&#x2014;" horiz-adv-x="1681" 
d="M1526 500h-1372q-15 37 -15 94q0 25 3.5 48.5t7.5 34.5l4 11h1372q14 -37 14 -94q0 -25 -3.5 -48.5t-6.5 -34.5z" />
    <glyph glyph-name="quoteleft" unicode="&#x2018;" horiz-adv-x="487" 
d="M276 1475l91 -62q-8 -9 -20 -26t-34 -74t-26 -121q25 -2 45.5 -5.5t28.5 -6.5l8 -2v-236q-39 -16 -129 -16q-37 0 -69.5 4t-46.5 8l-13 4v154q0 71 17 136t41 107t48.5 74.5t41.5 46.5z" />
    <glyph glyph-name="quoteright" unicode="&#x2019;" horiz-adv-x="468" 
d="M207 926l-90 61q8 9 20 25.5t33 73t25 120.5q-24 2 -44 6t-28 8l-8 3v235q39 17 129 17q37 0 69.5 -4.5t46.5 -8.5l13 -4v-153q0 -71 -17 -136t-41.5 -107t-49 -74.5t-41.5 -47.5z" />
    <glyph glyph-name="quotesinglbase" unicode="&#x201a;" horiz-adv-x="503" 
d="M215 -281l-90 62q3 3 7.5 9t17 27.5t22.5 45t19.5 61t11.5 76.5q-24 2 -44 6t-28 7l-8 3v236q39 16 129 16q37 0 69.5 -4t46.5 -8l13 -4v-154q0 -71 -17 -136t-41.5 -107t-49 -74.5t-41.5 -46.5z" />
    <glyph glyph-name="quotedblleft" unicode="&#x201c;" horiz-adv-x="815" 
d="M276 1475l91 -62q-8 -9 -20 -26t-34 -74t-26 -121q25 -2 45.5 -5.5t28.5 -6.5l8 -2v-236q-39 -16 -129 -16q-37 0 -69.5 4t-46.5 8l-13 4v154q0 71 17 136t41 107t48.5 74.5t41.5 46.5zM604 1475l90 -62q-8 -9 -20 -26t-34 -74t-26 -121q25 -2 45.5 -5.5t28.5 -6.5l8 -2
v-236q-39 -16 -129 -16q-37 0 -69.5 4t-45.5 8l-14 4v154q0 71 17 136t41.5 107t49 74.5t41.5 46.5z" />
    <glyph glyph-name="quotedblright" unicode="&#x201d;" horiz-adv-x="796" 
d="M207 926l-90 61q8 9 20 25.5t33 73t25 120.5q-24 2 -44 6t-28 8l-8 3v235q39 17 129 17q37 0 69.5 -4.5t46.5 -8.5l13 -4v-153q0 -71 -17 -136t-41.5 -107t-49 -74.5t-41.5 -47.5zM535 926l-91 61q8 9 20 25.5t33 73t25 120.5q-24 2 -44 6t-28 8l-8 3v235q39 17 129 17
q37 0 69.5 -4.5t45.5 -8.5l14 -4v-153q0 -71 -17 -136t-41 -107t-48.5 -74.5t-41.5 -47.5z" />
    <glyph glyph-name="quotedblbase" unicode="&#x201e;" horiz-adv-x="831" 
d="M215 -281l-90 62q3 3 7.5 9t17 27.5t22.5 45t19.5 61t11.5 76.5q-24 2 -44 6t-28 7l-8 3v236q39 16 129 16q37 0 69.5 -4t46.5 -8l13 -4v-154q0 -71 -17 -136t-41.5 -107t-49 -74.5t-41.5 -46.5zM543 -281l-90 62q8 9 19.5 25.5t32.5 73.5t25 120q-24 2 -44 6t-28 7l-7 3
v236q39 16 129 16q37 0 69.5 -4t46.5 -8l13 -4v-154q0 -71 -17 -136t-41.5 -107t-49 -74.5t-41.5 -46.5z" />
    <glyph glyph-name="dagger" unicode="&#x2020;" horiz-adv-x="1136" 
d="M584 -260l-103 53l15 1053l-435 -15q-10 42 -10 97q0 28 2.5 51.5t4.5 32.5l3 10l435 -14l-15 417q46 11 101 11q25 0 49.5 -3t36.5 -5l12 -3l-14 -417l409 14q12 -39 12 -94q0 -25 -3 -49.5t-6 -36.5l-3 -11l-409 15l14 -1053z" />
    <glyph glyph-name="daggerdbl" unicode="&#x2021;" horiz-adv-x="1292" 
d="M731 340l434 14q11 -41 11 -96q0 -28 -3 -51.5t-5 -32.5l-3 -10l-434 14l14 -418q-45 -10 -100 -10q-25 0 -49.5 2.5t-36.5 5.5l-12 2l14 418l-432 -14q-12 39 -12 94q0 25 3 49t6 35l3 12l432 -14l-14 252l14 254l-434 -15q-10 42 -10 97q0 28 2.5 51.5t4.5 32.5l3 10
l434 -14l-14 417q45 11 100 11q25 0 49.5 -3t36.5 -5l12 -3l-14 -417l432 14q13 -39 13 -94q0 -25 -3 -49.5t-7 -36.5l-3 -11l-432 15l14 -254z" />
    <glyph glyph-name="bullet" unicode="&#x2022;" horiz-adv-x="737" 
d="M584 578q0 -94 -60.5 -152.5t-152.5 -58.5q-94 0 -155.5 58.5t-61.5 152.5q0 95 61.5 154t155.5 59q92 0 152.5 -59t60.5 -154z" />
    <glyph glyph-name="ellipsis" unicode="&#x2026;" horiz-adv-x="1425" 
d="M379 252v-236q-45 -16 -129 -16q-40 0 -72 4t-44 8l-13 4v236q39 16 129 16q37 0 69.5 -4t46.5 -8zM844 252v-236q-45 -16 -129 -16q-40 0 -72.5 4t-44.5 8l-12 4v236q39 16 129 16q37 0 69.5 -4t45.5 -8zM1305 252v-236q-45 -16 -129 -16q-40 0 -72 4t-44 8l-13 4v236
q39 16 129 16q37 0 69.5 -4t46.5 -8z" />
    <glyph glyph-name="perthousand" unicode="&#x2030;" horiz-adv-x="2248" 
d="M1286 1423l-788 -1429q-31 -14 -97 -14q-28 0 -52 3.5t-34 6.5l-10 4l789 1429q30 15 96 15q28 0 52 -4t34 -8zM360 707q-141 0 -213.5 84t-72.5 270q0 184 72.5 269t213.5 85t215 -84t74 -270t-74 -270t-215 -84zM360 1274q-55 0 -79.5 -44t-24.5 -169q0 -127 24 -169
t80 -42q36 0 56.5 14.5t33.5 62t13 134.5q0 125 -24.5 169t-78.5 44zM1217 -20q-142 0 -214.5 84t-72.5 270q0 184 73 269t214 85t214.5 -84t73.5 -270t-73.5 -270t-214.5 -84zM1892 -20q-141 0 -213.5 84t-72.5 270q0 184 72.5 269t213.5 85t215 -84t74 -270t-74 -270
t-215 -84zM1217 547q-55 0 -80 -44t-25 -169q0 -87 13 -134.5t34 -62t58 -14.5q36 0 56.5 14.5t33 62t12.5 134.5q0 86 -12.5 133.5t-33.5 63.5t-56 16zM1892 547q-55 0 -79.5 -44t-24.5 -169q0 -127 24 -169t80 -42q36 0 56.5 14.5t33.5 62t13 134.5q0 125 -24.5 169
t-78.5 44z" />
    <glyph glyph-name="guilsinglleft" unicode="&#x2039;" horiz-adv-x="692" 
d="M104 659l412 383q63 -51 84 -149l-289 -342l289 -340q-22 -99 -84 -150l-412 377q-18 39 -18 105q0 32 4.5 61t9.5 42z" />
    <glyph glyph-name="guilsinglright" unicode="&#x203a;" horiz-adv-x="692" 
d="M176 1042l412 -383q18 -44 18 -116q0 -29 -4.5 -55.5t-9.5 -37.5l-4 -12l-412 -377q-62 51 -84 150l289 340l-289 342q21 98 84 149z" />
    <glyph glyph-name="fraction" unicode="&#x2044;" horiz-adv-x="286" 
d="M-352 -6l788 1429q30 15 96 15q29 0 53.5 -4t34.5 -8l9 -3l-791 -1429q-39 -14 -96 -14q-24 0 -47.5 3.5t-34.5 6.5z" />
    <glyph glyph-name="zeroinferior" unicode="&#x2080;" horiz-adv-x="706" 
d="M352 -207q-286 0 -286 363q0 360 286 360q289 0 289 -360q0 -363 -289 -363zM352 375q-54 0 -79 -46.5t-25 -172.5q0 -128 24.5 -172.5t79.5 -44.5q54 0 78.5 45t24.5 172q0 125 -25 172t-78 47z" />
    <glyph glyph-name="oneinferior" unicode="&#x2081;" horiz-adv-x="505" 
d="M37 381q69 18 114.5 45t84.5 70q34 10 86 10q33 0 81 -10v-682q-50 -11 -81 -11q-50 0 -95 11v399q0 57 2 82q-63 -43 -147 -53q-24 24 -36 62t-9 77z" />
    <glyph glyph-name="twoinferior" unicode="&#x2082;" horiz-adv-x="616" 
d="M51 -113q0 65 24.5 117.5t60.5 82.5t79 58t79 47t60.5 46t24.5 59q0 40 -32.5 58t-82.5 18q-68 3 -127 -19q-49 52 -43 127q88 35 205 35q111 0 184.5 -53.5t73.5 -155.5q0 -60 -24.5 -104.5t-64.5 -73.5t-82.5 -52.5t-88.5 -55.5t-72 -68h297q15 -38 15 -76
q0 -37 -15 -74h-463q-8 37 -8 84z" />
    <glyph glyph-name="threeinferior" unicode="&#x2083;" horiz-adv-x="610" 
d="M547 0q0 -207 -293 -207q-58 0 -109 11t-73 22l-21 12q0 80 47 121q66 -22 148 -22q125 0 125 83q0 42 -23.5 61t-79.5 19h-98q-25 69 0 138h98q82 0 82 63q0 74 -100 74q-32 0 -67 -5.5t-53 -10.5l-19 -5q-46 43 -43 123q77 39 196 39q121 0 191.5 -50t70.5 -140
q0 -107 -84 -152q105 -46 105 -174z" />
    <glyph glyph-name="fourinferior" unicode="&#x2084;" horiz-adv-x="671" 
d="M532 86h76q10 -29 10 -63q0 -24 -10 -62h-76v-147q-40 -11 -73 -11q-37 0 -74 11v147h-336q-10 33 -10 62q0 30 8 51l320 420q41 12 84 12t81 -12v-408zM385 303l-164 -217h164v217z" />
    <glyph glyph-name="fiveinferior" unicode="&#x2085;" horiz-adv-x="610" 
d="M264 356v-98q144 0 215.5 -57t71.5 -176q0 -118 -71 -175t-226 -57q-59 0 -110 11t-72 22l-21 12q0 76 45 121q61 -22 135 -22q140 0 140 88q0 53 -31.5 71.5t-108.5 18.5h-133v391h414q24 -73 0 -150h-248z" />
    <glyph glyph-name="sixinferior" unicode="&#x2086;" horiz-adv-x="636" 
d="M63 74q0 407 441 438q17 -26 17 -66t-17 -71q-180 -8 -238 -129q34 6 82 6q104 0 171 -56.5t67 -172.5q0 -113 -69 -171.5t-191 -58.5q-124 0 -193.5 69.5t-69.5 211.5zM410 23q0 94 -86 94q-36 0 -82 -8q-3 -183 84 -183q40 0 62 25t22 72z" />
    <glyph glyph-name="seveninferior" unicode="&#x2087;" horiz-adv-x="581" 
d="M360 354h-299q-21 76 0 152h474q10 -41 10 -82q-1 -68 -31.5 -127t-74 -105.5t-86 -97t-70.5 -122.5t-25 -160q-92 -17 -168 0q2 94 19.5 163.5t48 117t62.5 83t72.5 83t67.5 95.5z" />
    <glyph glyph-name="eightinferior" unicode="&#x2088;" horiz-adv-x="661" 
d="M82 322q0 90 66 142t184 52q111 0 176 -49t65 -133q0 -94 -79 -158q106 -66 106 -176q0 -100 -70.5 -153.5t-199.5 -53.5q-124 0 -195.5 51t-71.5 146q0 105 103 168q-84 60 -84 164zM416 322q0 67 -84 67q-38 0 -59 -16.5t-21 -44.5q0 -31 32.5 -53t90.5 -42
q41 30 41 89zM430 -6q0 21 -16.5 38.5t-33.5 27t-49.5 23.5t-43.5 19q-6 -4 -16 -12.5t-26 -34.5t-16 -53q0 -76 105 -76q43 0 69.5 17.5t26.5 50.5z" />
    <glyph glyph-name="nineinferior" unicode="&#x2089;" horiz-adv-x="636" 
d="M51 287q0 113 69 171t191 58q124 0 193 -69t69 -211q0 -408 -440 -439q-17 26 -17 66t17 71q180 8 236 129q-34 -6 -80 -6q-104 0 -171 57t-67 173zM395 201q0 92 -19 137t-65 45q-40 0 -62 -24.5t-22 -71.5q0 -94 86 -94q49 0 82 8z" />
    <glyph glyph-name="Euro" unicode="&#x20ac;" horiz-adv-x="1220" 
d="M266 930q44 228 179.5 345.5t357.5 117.5q90 0 168 -17t111 -34l32 -17q0 -113 -74 -178q-98 39 -211 39q-115 0 -192.5 -58.5t-110.5 -197.5h473q9 -35 1 -81.5t-29 -76.5h-467q-2 -29 -2 -88q0 -57 2 -82h411q9 -35 1 -81.5t-29 -76.5h-363q33 -140 110.5 -197
t194.5 -57q57 0 115 10t88 20l29 9q72 -51 72 -182q-5 -3 -14 -7.5t-40.5 -16t-67 -20.5t-92 -16t-116.5 -7q-223 0 -358.5 117.5t-178.5 346.5h-174q-9 35 -1 81.5t30 76.5h127q-2 27 -2 84t2 86h-156q-9 35 -1 81.5t30 76.5h145z" />
    <glyph glyph-name="uni2113" unicode="&#x2113;" horiz-adv-x="972" 
d="M223 1108q0 428 365 428q166 0 251 -83t85 -222q0 -181 -114.5 -358t-328.5 -336v-220q0 -120 105 -120q50 0 99.5 26.5t74.5 52.5l24 27q101 -30 123 -127q-6 -8 -16.5 -21t-47.5 -47t-79.5 -60t-110.5 -47t-141 -21q-66 0 -116 16t-90.5 52.5t-61.5 104.5t-21 166v54
q-41 -23 -108 -56q-74 54 -74 168q96 45 182 103v520zM686 1231q0 66 -22 97.5t-72 31.5q-58 0 -84.5 -53.5t-26.5 -202.5v-297q101 113 153 226t52 198z" />
    <glyph glyph-name="uni2117" unicode="&#x2117;" horiz-adv-x="1634" 
d="M100 696q0 146 56.5 279t152.5 229t229 152.5t279 56.5t279 -56.5t229 -152.5t152.5 -229t56.5 -279q0 -195 -96 -360t-261 -260.5t-360 -95.5t-360 95.5t-261 260.5t-96 360zM1368 696q0 112 -43.5 214t-117.5 176t-176 117.5t-214 43.5t-214 -43.5t-176 -117.5
t-117.5 -176t-43.5 -214t43.5 -214t117.5 -176t176 -117.5t214 -43.5t214 43.5t176 117.5t117.5 176t43.5 214zM588 1071h317q121 0 193.5 -72t72.5 -190q0 -120 -72.5 -192t-193.5 -72h-143v-244q-38 -19 -86 -19t-88 19v770zM762 924v-228h125q104 0 104 113q0 55 -27 85
t-77 30h-125z" />
    <glyph glyph-name="trademark" unicode="&#x2122;" horiz-adv-x="1265" 
d="M76 1475h416q8 -16 8 -41q0 -15 -8 -43h-154v-498q-18 -8 -53 -8q-16 0 -29 2t-18 4l-5 2v498h-157q-8 28 -8 41q0 24 8 43zM575 1466q25 9 64 9q26 0 61 -9l76 -149q46 -91 70 -162q5 17 67 148l76 163q39 9 68 9q17 0 34 -2.5t25 -4.5l8 -2v-573q-18 -8 -51 -8
q-16 0 -29 2t-18 4l-6 2v227q0 184 4 223q-17 -47 -57 -133l-80 -161q-16 -7 -43 -7q-12 0 -22.5 2t-15.5 4l-5 1l-78 161q-28 55 -57 133q6 -56 6 -223v-227q-18 -8 -49 -8q-13 0 -25 2t-18 4l-5 2v573z" />
    <glyph glyph-name="Omega" unicode="&#x2126;" horiz-adv-x="1497" 
d="M147 778q0 367 156.5 542t446.5 175q289 0 445.5 -175t156.5 -542q0 -322 -187 -553h213q21 -68 21 -112q0 -48 -21 -113h-504q-47 116 0 225q203 171 203 553q0 122 -15.5 211t-42.5 144t-70 88t-90 45t-109 12t-109 -12t-90 -45t-70 -88t-43 -144t-16 -211
q0 -382 203 -553q38 -108 0 -225h-504q-23 58 -23 111q0 61 23 114h213q-187 225 -187 553z" />
    <glyph glyph-name="estimated" unicode="&#x212e;" horiz-adv-x="1609" 
d="M1204 195h137q-203 -215 -520 -215q-146 0 -279.5 57t-230 153.5t-154 230t-57.5 279.5t57.5 279.5t154 230t230 154t279.5 57.5t279.5 -57.5t230 -154t154 -230t57.5 -279.5v-49h-1114v-446q184 -137 393 -137q202 0 383 127zM1214 1194q-184 139 -393 139
q-204 0 -393 -137v-455h786v453z" />
    <glyph glyph-name="uni2153" unicode="&#x2153;" horiz-adv-x="1503" 
d="M997 1423q31 15 97 15q29 0 53 -4t33 -8l10 -3l-791 -1429q-39 -14 -96 -14q-24 0 -47.5 3.5t-35.5 6.5l-11 4zM252 1399q34 10 86 10q34 0 82 -10v-682q-45 -10 -82 -10q-53 0 -94 10v399q0 57 2 82q-63 -43 -148 -53q-24 24 -36 62t-9 77q69 18 114.5 45t84.5 70z
M950 674q78 39 197 39q121 0 191.5 -50.5t70.5 -140.5q0 -106 -84 -151q105 -46 105 -174q0 -207 -293 -207q-58 0 -109 11t-72 23l-22 11q0 80 47 121q65 -23 147 -23q125 0 125 84q0 42 -23 61t-79 19h-98q-24 68 0 137h98q82 0 82 64q0 39 -24.5 56t-75.5 17
q-32 0 -67 -5t-54 -10l-19 -5q-46 43 -43 123z" />
    <glyph glyph-name="uni2154" unicode="&#x2154;" horiz-adv-x="1628" 
d="M334 -6l788 1429q31 15 97 15q29 0 53 -4t34 -8l9 -3l-791 -1429q-39 -14 -96 -14q-24 0 -47.5 3.5t-34.5 6.5zM76 793q0 57 18 103t47 76.5t63.5 55t69.5 44t64 38t47 42t18 50.5q0 72 -110 76q-74 3 -131 -18q-49 52 -43 126q88 35 205 35q111 0 184.5 -53.5
t73.5 -155.5q0 -60 -24.5 -104.5t-64.5 -73.5t-82.5 -52.5t-88.5 -55.5t-72 -68h297q14 -35 14 -76q0 -38 -14 -73h-463q-8 37 -8 84zM1554 197q0 -207 -292 -207q-58 0 -109 11t-73 23l-21 11q0 80 47 121q65 -23 147 -23q125 0 125 84q0 42 -23 61t-79 19h-98
q-24 68 0 137h98q82 0 82 64q0 39 -25 56t-76 17q-32 0 -67 -5t-54 -10l-18 -5q-46 43 -43 123q78 39 197 39q121 0 191.5 -50.5t70.5 -140.5q0 -106 -84 -151q104 -46 104 -174z" />
    <glyph glyph-name="oneeighth" unicode="&#x215b;" horiz-adv-x="1501" 
d="M997 1423q31 15 97 15q29 0 53 -4t33 -8l10 -3l-791 -1429q-39 -14 -96 -14q-24 0 -47.5 3.5t-35.5 6.5l-11 4zM252 1399q34 10 86 10q34 0 82 -10v-682q-45 -10 -82 -10q-53 0 -94 10v399q0 57 2 82q-63 -43 -148 -53q-24 24 -36 62t-9 77q69 18 114.5 45t84.5 70z
M911 518q0 90 66 142.5t184 52.5q111 0 176.5 -49.5t65.5 -133.5q0 -92 -80 -157q107 -67 107 -176q0 -99 -71 -153t-200 -54q-124 0 -195 50.5t-71 145.5q0 105 102 168q-84 60 -84 164zM1245 518q0 68 -84 68q-38 0 -59 -17t-21 -45q0 -31 32 -52t91 -42q41 30 41 88z
M1260 190q0 21 -16.5 39t-34 27t-50.5 23.5t-43 19.5q-6 -4 -15.5 -12.5t-25.5 -34.5t-16 -53q0 -76 104 -76q43 0 70 17t27 50z" />
    <glyph glyph-name="threeeighths" unicode="&#x215c;" horiz-adv-x="1589" 
d="M1085 1423q31 15 97 15q29 0 53 -4t33 -8l10 -3l-791 -1429q-39 -14 -96 -14q-24 0 -47.5 3.5t-35.5 6.5l-11 4zM96 1382q78 39 197 39q121 0 191.5 -50t70.5 -140q0 -107 -84 -152q104 -46 104 -174q0 -207 -292 -207q-58 0 -109 11t-72 23l-22 11q0 80 47 121
q65 -22 147 -22q125 0 125 84q0 42 -23 61t-79 19h-98q-24 68 0 137h98q82 0 82 63q0 74 -100 74q-32 0 -67 -5t-54 -10l-19 -5q-46 43 -43 122zM999 518q0 90 66 142.5t184 52.5q111 0 176.5 -49.5t65.5 -133.5q0 -92 -80 -157q107 -67 107 -176q0 -99 -71 -153t-200 -54
q-124 0 -195 50.5t-71 145.5q0 105 102 168q-84 60 -84 164zM1333 518q0 68 -84 68q-38 0 -59 -17t-21 -45q0 -31 32 -52t91 -42q41 30 41 88zM1348 190q0 21 -16.5 39t-34 27t-50.5 23.5t-43 19.5q-6 -4 -15.5 -12.5t-25.5 -34.5t-16 -53q0 -76 104 -76q43 0 70 17t27 50z
" />
    <glyph glyph-name="fiveeighths" unicode="&#x215d;" horiz-adv-x="1585" 
d="M1081 1423q31 15 97 15q29 0 53 -4t33 -8l10 -3l-791 -1429q-39 -14 -96 -14q-24 0 -47.5 3.5t-35.5 6.5l-11 4zM123 1411h414q24 -73 0 -149h-248v-99q144 0 215 -57t71 -176t-70.5 -175.5t-225.5 -56.5q-59 0 -110 11t-72 23l-21 11q0 76 45 121q61 -22 135 -22
q139 0 139 88q0 53 -31 71.5t-108 18.5h-133v391zM995 518q0 90 66 142.5t184 52.5q111 0 176.5 -49.5t65.5 -133.5q0 -92 -80 -157q106 -66 106 -176q0 -100 -70.5 -153.5t-199.5 -53.5q-124 0 -195 50.5t-71 145.5q0 105 102 168q-84 60 -84 164zM1329 518q0 68 -84 68
q-38 0 -59 -17t-21 -45q0 -31 32 -52t91 -42q41 30 41 88zM1343 190q0 21 -16.5 39t-33.5 27t-50 23.5t-43 19.5q-6 -4 -15.5 -12.5t-25.5 -34.5t-16 -53q0 -76 104 -76q43 0 69.5 17t26.5 50z" />
    <glyph glyph-name="seveneighths" unicode="&#x215e;" horiz-adv-x="1429" 
d="M926 1423q30 15 96 15q29 0 53 -4t33 -8l10 -3l-790 -1429q-40 -14 -97 -14q-24 0 -47.5 3.5t-35.5 6.5l-11 4zM96 1411h473q11 -41 11 -82q-1 -68 -28.5 -127t-66.5 -106t-78 -97t-66.5 -122.5t-27.5 -159.5q-92 -17 -168 0q2 92 17.5 160.5t43.5 117t56.5 84.5t67.5 85
t65 96h-299q-21 76 0 151zM840 518q0 90 66 142.5t184 52.5q111 0 176 -49t65 -134q0 -92 -80 -157q107 -67 107 -176q0 -99 -71 -153t-200 -54q-124 0 -195 50.5t-71 145.5q0 105 103 168q-84 60 -84 164zM1174 518q0 68 -84 68q-38 0 -59 -17t-21 -45q0 -31 32 -52t91 -42
q41 30 41 88zM1188 190q0 21 -16.5 39t-34 27t-50.5 23.5t-43 19.5q-6 -4 -15.5 -12.5t-25.5 -34.5t-16 -53q0 -76 105 -76q43 0 69.5 17t26.5 50z" />
    <glyph glyph-name="arrowleft" unicode="&#x2190;" horiz-adv-x="1277" 
d="M51 717l473 475q35 -10 63.5 -38.5t43.5 -66.5l-287 -284h844q14 -41 14 -86q0 -35 -14 -86h-844l287 -285q-15 -38 -43.5 -66t-63.5 -38z" />
    <glyph glyph-name="arrowup" unicode="&#x2191;" horiz-adv-x="1048" 
d="M524 1292l475 -473q-10 -35 -38 -63t-66 -43l-285 286v-843q-44 -15 -86 -15q-32 0 -86 15v843l-284 -286q-83 33 -105 106z" />
    <glyph glyph-name="arrowright" unicode="&#x2192;" horiz-adv-x="1275" 
d="M1227 717l-473 -475q-35 10 -63.5 38t-43.5 66l287 285h-844q-14 51 -14 86q0 45 14 86h844l-287 284q15 38 43.5 66.5t63.5 38.5z" />
    <glyph glyph-name="arrowdown" unicode="&#x2193;" horiz-adv-x="1048" 
d="M438 1278q51 14 86 14q45 0 86 -14v-844l285 287q38 -15 66 -43.5t38 -63.5l-475 -473l-475 473q10 35 38.5 63.5t66.5 43.5l284 -287v844z" />
    <glyph glyph-name="uni2196" unicode="&#x2196;" horiz-adv-x="1052" 
d="M125 1124h672q14 -32 14 -73q0 -39 -14 -74h-404l596 -596q-12 -40 -46 -73.5t-75 -47.5l-596 596v-403q-37 -15 -73 -15q-39 0 -74 15v671z" />
    <glyph glyph-name="uni2197" unicode="&#x2197;" horiz-adv-x="1052" 
d="M928 1124v-671q-34 -15 -74 -15q-36 0 -74 15v403l-596 -596q-41 14 -75 47.5t-46 73.5l596 596h-403q-14 35 -14 74q0 41 14 73h672z" />
    <glyph glyph-name="uni2198" unicode="&#x2198;" horiz-adv-x="1050" 
d="M772 528v404q35 14 74 14q42 0 74 -14v-672h-672q-15 34 -15 74q0 36 15 74h403l-596 596q12 40 46 73t75 47z" />
    <glyph glyph-name="uni2199" unicode="&#x2199;" horiz-adv-x="1050" 
d="M279 528l595 596q41 -14 75 -47t46 -73l-596 -596h404q14 -35 14 -74q0 -42 -14 -74h-672v672q32 14 74 14q39 0 74 -14v-404z" />
    <glyph glyph-name="partialdiff" unicode="&#x2202;" horiz-adv-x="1142" 
d="M268 1313q-30 138 29 223q170 -12 295 -54t209.5 -111t135.5 -175t73 -235.5t22 -303.5q0 -194 -32 -328t-96 -209.5t-146.5 -107.5t-196.5 -32q-228 0 -349.5 126.5t-121.5 409.5q0 537 451 537q90 0 182 -29q-43 128 -147 194.5t-308 94.5zM758 811q-70 45 -195 45
q-51 0 -86 -13.5t-64 -49t-43 -104.5t-14 -173q0 -102 14 -170.5t43 -104.5t64.5 -50.5t85.5 -14.5q40 0 69.5 8.5t56 31t43.5 60t26.5 98t9.5 142.5q0 185 -10 295z" />
    <glyph glyph-name="Delta" unicode="&#x2206;" horiz-adv-x="1323" 
d="M535 1458q66 17 131 17q69 0 135 -17l475 -1333q-21 -77 -78 -125h-1073q-66 50 -78 123zM659 1126h-8q-24 -99 -82 -262l-231 -653h631l-232 655q-55 151 -78 260z" />
    <glyph glyph-name="product" unicode="&#x220f;" horiz-adv-x="1460" 
d="M1280 1419v-1822q-41 -21 -117 -21q-33 0 -62 5t-41 11l-13 5v1603h-633v-1603q-41 -21 -119 -21q-32 0 -60.5 5t-41.5 11l-13 5v1822h1100z" />
    <glyph glyph-name="summation" unicode="&#x2211;" horiz-adv-x="1239" 
d="M61 -299l465 834l-430 772v114h1039q18 -40 18 -106q0 -27 -4.5 -53.5t-8.5 -39.5l-5 -12h-725l381 -680l-408 -737h764q18 -42 18 -110q0 -27 -4.5 -54t-8.5 -40l-5 -13h-1086v125z" />
    <glyph glyph-name="minus" unicode="&#x2212;" horiz-adv-x="958" 
d="M807 582h-655q-15 37 -15 94q0 25 3.5 48.5t7.5 34.5l4 11h655q14 -37 14 -94q0 -25 -3.5 -48.5t-7.5 -34.5z" />
    <glyph glyph-name="uni2215" unicode="&#x2215;" horiz-adv-x="995" 
d="M4 -6l789 1429q30 15 96 15q29 0 53 -4t34 -8l9 -3l-790 -1429q-40 -14 -97 -14q-24 0 -47.5 3.5t-34.5 6.5z" />
    <glyph glyph-name="uni2219" unicode="&#x2219;" horiz-adv-x="514" 
d="M258 545q-60 0 -102.5 37.5t-42.5 105.5q0 67 43 105t102 38q58 0 101.5 -38t43.5 -105q0 -68 -43 -105.5t-102 -37.5z" />
    <glyph glyph-name="radical" unicode="&#x221a;" horiz-adv-x="1337" 
d="M633 -31l-320 719l-202 -88q-35 24 -54.5 68t-13.5 92l387 170l287 -664l420 1229q49 8 96 -3t78 -40l-502 -1483h-176z" />
    <glyph glyph-name="infinity" unicode="&#x221e;" horiz-adv-x="1646" 
d="M1174 311q-61 0 -120 21.5t-99 52.5t-71 61.5t-46 51.5l-15 22q-5 -8 -15.5 -22.5t-44.5 -50.5t-72 -63.5t-97.5 -50t-120.5 -22.5q-90 0 -163 30.5t-118 81t-69.5 113.5t-24.5 130t24.5 129.5t69.5 113t118 81t163 30.5q45 0 88.5 -11.5t77 -30t64 -41.5t52 -45.5
t37.5 -41t24 -30.5l7 -11q5 9 15.5 23t45 50.5t72.5 64t97.5 50.5t120.5 23q90 0 162.5 -30.5t118 -81t69.5 -113t24 -129.5t-24 -130t-69.5 -113.5t-118 -81t-162.5 -30.5zM469 506q40 0 78 16.5t64 40t46 47t29 40.5l10 16q-3 6 -9.5 17t-29 38.5t-47 48.5t-63 38
t-78.5 17q-84 0 -128 -47.5t-44 -111.5t44 -112t128 -48zM1178 825q-40 0 -78 -16.5t-64 -39.5t-46.5 -46.5t-29.5 -40.5l-10 -16q3 -7 10 -17.5t29 -38t47 -48.5t63.5 -38.5t78.5 -17.5q84 0 128 48t44 112t-44 111.5t-128 47.5z" />
    <glyph glyph-name="integral" unicode="&#x222b;" horiz-adv-x="1017" 
d="M393 -2v1087q0 183 90 286.5t265 103.5q60 0 124 -23.5t98 -46.5l34 -23q-17 -96 -89 -155q-44 34 -97 51t-99 10q-58 -8 -92.5 -58t-34.5 -145v-1087q0 -391 -334 -391q-61 0 -121.5 23t-90.5 46l-30 23q16 98 86 154q99 -79 183 -64q108 21 108 209z" />
    <glyph glyph-name="approxequal" unicode="&#x2248;" horiz-adv-x="1075" 
d="M375 725q-27 0 -51.5 -8t-40 -19t-26.5 -22t-16 -19l-5 -8q-45 15 -74 48t-35 75q3 6 8.5 16t27 35t48 44t71.5 35t97 16q45 0 89 -16.5t74 -36t72.5 -36t85.5 -16.5q27 0 51.5 8t40 19t27 22t16.5 19l5 8q45 -15 73.5 -48t34.5 -75q-3 -6 -8.5 -15.5t-27 -34.5
t-48 -44.5t-71.5 -35t-97 -15.5q-45 0 -89 16.5t-74 35.5t-72.5 35.5t-85.5 16.5zM375 356q-44 0 -78.5 -19t-47.5 -37l-13 -19q-45 15 -74 47.5t-35 74.5q3 6 8.5 16t27 35t48 44t71.5 35t97 16q45 0 89 -16.5t74 -36t72.5 -36t85.5 -16.5q27 0 51.5 8t40 19t27 22t16.5 19
l5 8q45 -15 73.5 -48t34.5 -75q-3 -6 -8.5 -15.5t-27 -34.5t-48 -44.5t-71.5 -35t-97 -15.5q-45 0 -89 16t-74 36t-72.5 36t-85.5 16z" />
    <glyph glyph-name="notequal" unicode="&#x2260;" horiz-adv-x="1021" 
d="M426 307l-94 -172q-38 -14 -90 -14q-34 0 -78 14l94 172h-127q-14 54 -14 94q0 56 14 97h234l104 190h-338q-14 46 -14 100q0 44 14 91h442l86 153q44 15 89 15q34 0 81 -15l-86 -153h146q14 -38 14 -91q0 -57 -14 -100h-252l-105 -190h357q14 -41 14 -92q0 -56 -14 -99
h-463z" />
    <glyph glyph-name="lessequal" unicode="&#x2264;" horiz-adv-x="944" 
d="M795 430l-656 232q-14 43 -14 98q0 25 3.5 48t7.5 34l3 10l656 231q14 -31 14 -94q0 -27 -3.5 -51t-7.5 -34l-3 -11l-414 -139l414 -133q14 -32 14 -95q0 -27 -3.5 -51t-7.5 -35zM795 168h-656q-14 37 -14 94q0 25 3.5 48.5t7.5 34.5l3 11h656q14 -37 14 -94
q0 -25 -3.5 -48.5t-7.5 -34.5z" />
    <glyph glyph-name="greaterequal" unicode="&#x2265;" horiz-adv-x="944" 
d="M805 662l-655 -232q-15 35 -15 96q0 28 3.5 52t7.5 34l4 9l413 133l-413 139q-15 35 -15 96q0 28 3.5 51.5t7.5 33.5l4 9l655 -231q14 -35 14 -92q0 -24 -3.5 -48.5t-7.5 -37.5zM805 168h-655q-15 37 -15 94q0 25 3.5 48.5t7.5 34.5l4 11h655q14 -37 14 -94
q0 -25 -3.5 -48.5t-7.5 -34.5z" />
    <glyph glyph-name="lozenge" unicode="&#x25ca;" horiz-adv-x="1130" 
d="M508 14l-442 707l442 704h113l448 -704l-448 -707h-113zM831 719l-264 434l-260 -434l260 -434z" />
    <glyph glyph-name="commaaccentcomb" unicode="&#xf6c3;" horiz-adv-x="0" 
d="M154 -281l-91 62q3 3 7.5 9t17 27.5t22.5 45t19.5 61t11.5 76.5q-24 2 -44 6t-28 7l-8 3v236q39 16 129 16q37 0 69.5 -4t46.5 -8l13 -4v-154q0 -71 -17 -136t-41.5 -107t-48.5 -74.5t-41 -46.5z" />
    <glyph glyph-name="CR" horiz-adv-x="659" 
 />
    <glyph glyph-name="_0020" horiz-adv-x="0" 
 />
    <glyph glyph-name="_375" horiz-adv-x="1323" 
d="M535 1458q66 17 131 17q69 0 135 -17l475 -1333q-21 -77 -78 -125h-1073q-66 50 -78 123zM659 1126h-8q-24 -99 -82 -262l-231 -653h631l-232 655q-55 151 -78 260z" />
    <glyph glyph-name="_376" horiz-adv-x="1433" 
d="M1343 0h-503q-47 116 0 225q202 170 202 553q0 122 -15.5 211t-42.5 144t-70 88t-90 45t-109 12t-109 -12t-90 -45t-70 -88t-43 -144t-16 -211q0 -382 203 -553q38 -108 0 -225h-504q-23 58 -23 111q0 61 23 114h213q-186 224 -186 553q0 367 156.5 542t445.5 175
t445.5 -175t156.5 -542q0 -322 -187 -553h213q21 -68 21 -112q0 -48 -21 -113z" />
    <glyph glyph-name="commaaccentcomb.alt" horiz-adv-x="0" 
d="M207 1475l90 -62q-8 -9 -20 -26t-34 -74t-26 -121q25 -2 45.5 -5.5t28.5 -6.5l8 -2v-236q-39 -16 -129 -16q-37 0 -69.5 4t-46.5 8l-13 4v154q0 71 17 136t41.5 107t49 74.5t41.5 46.5z" />
    <glyph glyph-name="eight.denom" horiz-adv-x="661" 
d="M82 518q0 90 66 142.5t184 52.5q111 0 176 -49t65 -134q0 -93 -79 -157q106 -66 106 -176q0 -100 -70.5 -153.5t-199.5 -53.5q-124 0 -195.5 50.5t-71.5 145.5q0 105 103 168q-84 60 -84 164zM416 518q0 68 -84 68q-38 0 -59 -17t-21 -45q0 -31 32 -52t91 -42
q41 30 41 88zM430 190q0 21 -16.5 39t-33.5 27t-50 23.5t-43 19.5q-6 -4 -16 -12.5t-26 -34.5t-16 -53q0 -76 105 -76q43 0 69.5 17t26.5 50z" />
    <glyph glyph-name="eight.num" horiz-adv-x="661" 
d="M82 1227q0 90 66 142t184 52q111 0 176 -49t65 -133q0 -94 -79 -158q106 -66 106 -176q0 -100 -70.5 -153.5t-199.5 -53.5q-124 0 -195.5 51t-71.5 146q0 105 103 168q-84 60 -84 164zM416 1227q0 67 -84 67q-38 0 -59 -16.5t-21 -44.5q0 -31 32 -52t91 -42q41 30 41 88z
M430 899q0 21 -16.5 39t-33.5 27t-50 23.5t-43 19.5q-6 -4 -16 -12.5t-26 -35t-16 -53.5q0 -76 105 -76q43 0 69.5 17.5t26.5 50.5z" />
    <glyph glyph-name="five.denom" horiz-adv-x="610" 
d="M264 553v-98q287 0 287 -234q0 -118 -71 -174.5t-226 -56.5q-59 0 -110 11t-72 23l-21 11q0 76 45 121q61 -23 135 -23q140 0 140 88q0 53 -31.5 71.5t-108.5 18.5h-133v391h414q24 -73 0 -149h-248z" />
    <glyph glyph-name="five.num" horiz-adv-x="612" 
d="M266 1262v-99q144 0 215.5 -57t71.5 -176q0 -118 -71 -175t-226 -57q-59 0 -110 11t-72 23l-21 11q0 76 45 121q61 -22 135 -22q140 0 140 88q0 53 -31.5 71.5t-108.5 18.5h-133v391h414q24 -73 0 -149h-248z" />
    <glyph glyph-name="four.denom" horiz-adv-x="671" 
d="M532 283h76q10 -29 10 -64q0 -23 -10 -61h-76v-148q-36 -10 -73 -10q-40 0 -74 10v148h-336q-10 33 -10 61q0 30 8 51l320 420q41 12 84 12t81 -12v-407zM385 500l-164 -217h164v217z" />
    <glyph glyph-name="four.num" horiz-adv-x="671" 
d="M532 991h76q10 -29 10 -63q0 -24 -10 -62h-76v-147q-36 -10 -73 -10q-40 0 -74 10v147h-336q-10 33 -10 62q0 30 8 51l320 420q41 12 84 12t81 -12v-408zM385 1208l-164 -217h164v217z" />
    <glyph glyph-name="g.alt" horiz-adv-x="1142" 
d="M750 53v33q-89 -106 -277 -106q-89 0 -156.5 29t-118.5 93t-77.5 174t-26.5 263t26.5 263t77.5 174t118.5 93t156.5 29q187 0 277 -107v70q45 16 131 16q38 0 70 -4t45 -8l12 -4v-1008q0 -296 -119.5 -430.5t-368.5 -134.5q-64 0 -122.5 8.5t-96 21t-66 25t-41.5 21.5
l-12 8q10 112 72 168q11 -5 31 -13t80 -21t118 -13q64 0 108.5 14t82.5 51t57 110.5t19 184.5zM360 539q0 -106 13.5 -176.5t41.5 -108t63 -52t87 -14.5q82 0 132 58.5t53 152.5v269q0 98 -50 159.5t-135 61.5q-41 0 -71 -8.5t-56.5 -31.5t-43 -62t-25.5 -101t-9 -147z" />
    <glyph glyph-name="gbreve.alt" horiz-adv-x="1142" 
d="M915 1370q-4 -6 -12.5 -15t-38.5 -32.5t-64.5 -41.5t-90.5 -33t-117 -15t-116.5 14t-91.5 34.5t-63.5 40.5t-40.5 34l-12 14q12 39 42.5 73t66.5 46q9 -6 25.5 -15.5t72.5 -25.5t117 -16t114.5 14t77.5 28l23 15q36 -12 66 -45.5t42 -73.5zM750 53v33q-89 -106 -277 -106
q-89 0 -156.5 29t-118.5 93t-77.5 174t-26.5 263t26.5 263t77.5 174t118.5 93t156.5 29q187 0 277 -107v70q45 16 131 16q38 0 70 -4t45 -8l12 -4v-1008q0 -296 -119.5 -430.5t-368.5 -134.5q-64 0 -122.5 8.5t-96 21t-66 25t-41.5 21.5l-12 8q10 112 72 168q11 -5 31 -13
t80 -21t118 -13q64 0 108.5 14t82.5 51t57 110.5t19 184.5zM360 539q0 -106 13.5 -176.5t41.5 -108t63 -52t87 -14.5q82 0 132 58.5t53 152.5v269q0 98 -50 159.5t-135 61.5q-41 0 -71 -8.5t-56.5 -31.5t-43 -62t-25.5 -101t-9 -147z" />
    <glyph glyph-name="gcircumflex.alt" horiz-adv-x="1142" 
d="M578 1577l288 -236q-48 -87 -116 -108l-197 125l-197 -123q-70 22 -116 106l286 236h52zM750 53v33q-89 -106 -277 -106q-89 0 -156.5 29t-118.5 93t-77.5 174t-26.5 263t26.5 263t77.5 174t118.5 93t156.5 29q187 0 277 -107v70q45 16 131 16q38 0 70 -4t45 -8l12 -4
v-1008q0 -296 -119.5 -430.5t-368.5 -134.5q-64 0 -122.5 8.5t-96 21t-66 25t-41.5 21.5l-12 8q10 112 72 168q11 -5 31 -13t80 -21t118 -13q64 0 108.5 14t82.5 51t57 110.5t19 184.5zM360 539q0 -106 13.5 -176.5t41.5 -108t63 -52t87 -14.5q82 0 132 58.5t53 152.5v269
q0 98 -50 159.5t-135 61.5q-41 0 -71 -8.5t-56.5 -31.5t-43 -62t-25.5 -101t-9 -147z" />
    <glyph glyph-name="gcommaaccent.alt" horiz-adv-x="1142" 
d="M629 1706l88 -55q-8 -8 -19.5 -22.5t-32 -64t-24.5 -104.5q24 -2 43.5 -5.5t27.5 -6.5l7 -2v-205q-45 -14 -127 -14q-37 0 -69.5 3.5t-46.5 7.5l-13 3v133q0 61 17 118t41.5 94t49 65.5t41.5 41.5zM750 53v33q-89 -106 -277 -106q-89 0 -156.5 29t-118.5 93t-77.5 174
t-26.5 263t26.5 263t77.5 174t118.5 93t156.5 29q187 0 277 -107v70q45 16 131 16q38 0 70 -4t45 -8l12 -4v-1008q0 -296 -119.5 -430.5t-368.5 -134.5q-64 0 -122.5 8.5t-96 21t-66 25t-41.5 21.5l-12 8q10 112 72 168q11 -5 31 -13t80 -21t118 -13q64 0 108.5 14t82.5 51
t57 110.5t19 184.5zM360 539q0 -106 13.5 -176.5t41.5 -108t63 -52t87 -14.5q82 0 132 58.5t53 152.5v269q0 98 -50 159.5t-135 61.5q-41 0 -71 -8.5t-56.5 -31.5t-43 -62t-25.5 -101t-9 -147z" />
    <glyph glyph-name="gdotaccent.alt" horiz-adv-x="1142" 
d="M737 1458v-211q-40 -14 -116 -14q-36 0 -65.5 3.5t-40.5 7.5l-11 3v211q35 15 117 15q34 0 63 -3.5t41 -7.5zM750 53v33q-89 -106 -277 -106q-89 0 -156.5 29t-118.5 93t-77.5 174t-26.5 263t26.5 263t77.5 174t118.5 93t156.5 29q187 0 277 -107v70q45 16 131 16
q38 0 70 -4t45 -8l12 -4v-1008q0 -296 -119.5 -430.5t-368.5 -134.5q-64 0 -122.5 8.5t-96 21t-66 25t-41.5 21.5l-12 8q10 112 72 168q11 -5 31 -13t80 -21t118 -13q64 0 108.5 14t82.5 51t57 110.5t19 184.5zM360 539q0 -106 13.5 -176.5t41.5 -108t63 -52t87 -14.5
q82 0 132 58.5t53 152.5v269q0 98 -50 159.5t-135 61.5q-41 0 -71 -8.5t-56.5 -31.5t-43 -62t-25.5 -101t-9 -147z" />
    <glyph glyph-name="nine.denom" horiz-adv-x="636" 
d="M51 483q0 113 69 171.5t191 58.5q124 0 193 -69.5t69 -211.5q0 -407 -440 -438q-17 26 -17 66t17 71q180 4 236 129q-35 -6 -80 -6q-104 0 -171 56.5t-67 172.5zM395 397q0 92 -19 137.5t-65 45.5q-40 0 -62 -25t-22 -72q0 -94 86 -94q49 0 82 8z" />
    <glyph glyph-name="nine.num" horiz-adv-x="636" 
d="M51 1192q0 113 69 171t191 58q124 0 193 -69t69 -211q0 -408 -440 -439q-17 26 -17 66.5t17 71.5q180 4 236 129q-35 -6 -80 -6q-104 0 -171 56.5t-67 172.5zM395 1106q0 92 -19 137t-65 45q-40 0 -62 -24.5t-22 -71.5q0 -94 86 -94q49 0 82 8z" />
    <glyph glyph-name="_300" horiz-adv-x="0" 
 />
    <glyph glyph-name="one.denom" horiz-adv-x="505" 
d="M37 578q70 19 115 45t84 69q34 10 86 10q33 0 81 -10v-682q-45 -10 -81 -10q-54 0 -95 10v400q0 57 2 82q-65 -45 -147 -54q-24 24 -36 62.5t-9 77.5z" />
    <glyph glyph-name="one.num" horiz-adv-x="538" 
d="M37 1286q69 18 114.5 45t84.5 70q34 10 86 10q33 0 81 -10v-682q-45 -10 -81 -10q-54 0 -95 10v399q0 57 2 82q-63 -43 -147 -53q-24 24 -36 62t-9 77z" />
    </font>
</defs>
</svg>
