<svg id="Icon-linkedin" xmlns="http://www.w3.org/2000/svg" width="24" height="24" viewBox="0 0 24 24">
  <path id="Pfad_228" data-name="Pfad 228" d="M19.86,0H4.15A4.157,4.157,0,0,0,0,4.14V19.86A4.15,4.15,0,0,0,4.15,24H19.86A4.135,4.135,0,0,0,24,19.86V4.14A4.142,4.142,0,0,0,19.86,0Zm2.49,19.88a2.505,2.505,0,0,1-2.51,2.51H4.17a2.505,2.505,0,0,1-2.51-2.51V4.12a2.5,2.5,0,0,1,2.51-2.5H19.84a2.5,2.5,0,0,1,2.51,2.5V19.88Z" fill="#c81e69"/>
  <rect id="Rechteck_231" data-name="Rechteck 231" width="2.95" height="9.93" transform="translate(4.81 9.57)" fill="#c81e69"/>
  <circle id="Ellipse_116" data-name="Ellipse 116" cx="1.81" cy="1.81" r="1.81" transform="translate(4.45 4.33)" fill="#c81e69"/>
  <path id="Pfad_229" data-name="Pfad 229" d="M19.56,13.25v6.22h-3V13.25a1.473,1.473,0,0,0-.47-1.16,2.022,2.022,0,0,0-1.34-.4,1.761,1.761,0,0,0-1.29.42,1.5,1.5,0,0,0-.47,1.18v6.18H10V9.23h2.99v1.41A4.054,4.054,0,0,1,14,9.56a3.165,3.165,0,0,1,1.79-.48,3.549,3.549,0,0,1,2.78,1.09,4.42,4.42,0,0,1,.99,3.08Z" fill="#c81e69"/>
</svg>
