<svg id="Icon-tiktok" xmlns="http://www.w3.org/2000/svg" width="24" height="24" viewBox="0 0 24 24">
  <path id="Pfad_230" data-name="Pfad 230" d="M19.37,7.5v2.91a7.2,7.2,0,0,1-3.94-1.53v6.5a4.655,4.655,0,0,1-.54,2.26,5.447,5.447,0,0,1-2.42,2.28,5.387,5.387,0,0,1-3.02.5,5.468,5.468,0,0,1,.93-10.89h0v2.91a2.348,2.348,0,0,0-.27-.01A2.563,2.563,0,1,0,12.46,16V3.54h3.02A4.552,4.552,0,0,0,19.37,7.5Z" fill="#c81e69"/>
  <path id="Pfad_231" data-name="Pfad 231" d="M19.86,0H4.15A4.157,4.157,0,0,0,0,4.14V19.86A4.15,4.15,0,0,0,4.15,24H19.86A4.135,4.135,0,0,0,24,19.86V4.14A4.142,4.142,0,0,0,19.86,0Zm2.49,19.88a2.505,2.505,0,0,1-2.51,2.51H4.17a2.505,2.505,0,0,1-2.51-2.51V4.12a2.5,2.5,0,0,1,2.51-2.5H19.84a2.5,2.5,0,0,1,2.51,2.5V19.88Z" fill="#c81e69"/>
</svg>
