<svg id="Icon-facebook" xmlns="http://www.w3.org/2000/svg" width="24" height="23.99" viewBox="0 0 24 23.99">
  <path id="Icon-facebook-2" data-name="Icon-facebook" d="M19.86,0H4.15A4.15,4.15,0,0,0,0,4.14V19.85a4.144,4.144,0,0,0,4.15,4.14H19.86A4.129,4.129,0,0,0,24,19.85V4.14A4.135,4.135,0,0,0,19.86,0Zm2.49,19.89a2.505,2.505,0,0,1-2.51,2.51H15.33V14.84h3.25l.27-2.5H15.33V9.14A1.133,1.133,0,0,1,16.47,8H19V5.5H16.31a3.487,3.487,0,0,0-3.49,3.49v3.35H9.91v2.5h2.91V22.4H4.17a2.505,2.505,0,0,1-2.51-2.51V4.11a2.5,2.5,0,0,1,2.51-2.5H19.84a2.5,2.5,0,0,1,2.51,2.5V19.88Z"/>
</svg>
