<svg id="Icon-instagram" xmlns="http://www.w3.org/2000/svg" width="24" height="24" viewBox="0 0 24 24">
  <g id="Gruppe_389">
    <g id="Rechteck_214">
      <path id="Pfad_221" data-name="Pfad 221" d="M12,7.59A4.41,4.41,0,1,0,16.41,12,4.409,4.409,0,0,0,12,7.59Zm0,7.35A2.94,2.94,0,1,1,14.94,12,2.936,2.936,0,0,1,12,14.94Z"/>
      <path id="Pfad_222" data-name="Pfad 222" d="M20.79,7.8a4.791,4.791,0,0,0-.2-1,4.984,4.984,0,0,0-.39-.92,5.135,5.135,0,0,0-4.52-2.7H8.33A5.116,5.116,0,0,0,4.7,4.69a5.778,5.778,0,0,0-.63.76c-.09.14-.18.28-.26.43a4.984,4.984,0,0,0-.39.92,4.791,4.791,0,0,0-.2,1,4.708,4.708,0,0,0-.03.53v7.34a4.708,4.708,0,0,0,.03.53,4.791,4.791,0,0,0,.2,1,4.984,4.984,0,0,0,.39.92c.08.15.17.29.26.43a5.778,5.778,0,0,0,.63.76,5.116,5.116,0,0,0,3.63,1.51h7.35a5.135,5.135,0,0,0,4.52-2.7,4.984,4.984,0,0,0,.39-.92,4.791,4.791,0,0,0,.2-1,4.708,4.708,0,0,0,.03-.53V8.33a3.142,3.142,0,0,0-.03-.53Zm-1.44,7.87a3.681,3.681,0,0,1-3.67,3.68H8.33a3.681,3.681,0,0,1-3.67-3.68V8.33A3.681,3.681,0,0,1,8.33,4.65h7.35a3.681,3.681,0,0,1,3.67,3.68Z"/>
      <path id="Pfad_223" data-name="Pfad 223" d="M20.79,7.8a4.791,4.791,0,0,0-.2-1,4.984,4.984,0,0,0-.39-.92,5.135,5.135,0,0,0-4.52-2.7H8.33A5.116,5.116,0,0,0,4.7,4.69a5.778,5.778,0,0,0-.63.76c-.09.14-.18.28-.26.43a4.984,4.984,0,0,0-.39.92,4.791,4.791,0,0,0-.2,1,4.708,4.708,0,0,0-.03.53v7.34a4.708,4.708,0,0,0,.03.53,4.791,4.791,0,0,0,.2,1,4.984,4.984,0,0,0,.39.92c.08.15.17.29.26.43a5.778,5.778,0,0,0,.63.76,5.116,5.116,0,0,0,3.63,1.51h7.35a5.135,5.135,0,0,0,4.52-2.7,4.984,4.984,0,0,0,.39-.92,4.791,4.791,0,0,0,.2-1,4.708,4.708,0,0,0,.03-.53V8.33a3.142,3.142,0,0,0-.03-.53Zm-1.44,7.87a3.681,3.681,0,0,1-3.67,3.68H8.33a3.681,3.681,0,0,1-3.67-3.68V8.33A3.681,3.681,0,0,1,8.33,4.65h7.35a3.681,3.681,0,0,1,3.67,3.68Z"/>
    </g>
    <g id="Ellipse_116">
      <path id="Pfad_224" data-name="Pfad 224" d="M12,7.59A4.41,4.41,0,1,0,16.41,12,4.409,4.409,0,0,0,12,7.59Zm0,7.35A2.94,2.94,0,1,1,14.94,12,2.936,2.936,0,0,1,12,14.94Z"/>
      <path id="Pfad_225" data-name="Pfad 225" d="M12,7.59A4.41,4.41,0,1,0,16.41,12,4.409,4.409,0,0,0,12,7.59Zm0,7.35A2.94,2.94,0,1,1,14.94,12,2.936,2.936,0,0,1,12,14.94Z"/>
    </g>
  </g>
  <path id="Pfad_226" data-name="Pfad 226" d="M19.86,0H4.15A4.157,4.157,0,0,0,0,4.14V19.86A4.15,4.15,0,0,0,4.15,24H19.86A4.135,4.135,0,0,0,24,19.86V4.14A4.142,4.142,0,0,0,19.86,0Zm2.49,19.88a2.505,2.505,0,0,1-2.51,2.51H4.17a2.505,2.505,0,0,1-2.51-2.51V4.12a2.5,2.5,0,0,1,2.51-2.5H19.84a2.5,2.5,0,0,1,2.51,2.5V19.88Z"/>
  <path id="Pfad_227" data-name="Pfad 227" d="M17.88,7.22a1.1,1.1,0,1,1-1.1-1.1A1.105,1.105,0,0,1,17.88,7.22Z"/>
</svg>
